# Blender v2.73 (sub 0) OBJ File: ''
# www.blender.org
o Cylinder
v 0.000000 -0.651501 -1.680000
v 0.000000 1.388500 -0.030000
v 0.015000 1.388500 -0.025981
v 0.840000 -0.651501 -1.454923
v 0.025981 1.388500 -0.015000
v 1.454923 -0.651501 -0.840000
v 0.030000 1.388500 0.000000
v 1.680000 -0.651501 0.000000
v 0.025981 1.388500 0.015000
v 1.454923 -0.651501 0.840000
v 0.015000 1.388500 0.025981
v 0.840000 -0.651501 1.454923
v 0.000000 1.388500 0.030000
v 0.000000 -0.651501 1.680000
v -0.015000 1.388500 0.025981
v -0.840000 -0.651501 1.454923
v -0.025981 1.388500 0.015000
v -1.454922 -0.651501 0.840000
v -0.030000 1.388500 0.000000
v -1.680000 -0.651501 0.000001
v -0.025981 1.388500 -0.015000
v -1.454923 -0.651501 -0.839999
v -0.015000 1.388500 -0.025981
v -0.840001 -0.651501 -1.454922
v 0.000000 -0.153987 -1.512000
v 0.000000 1.682013 -0.027000
v 0.013500 1.682013 -0.023383
v 0.756000 -0.153987 -1.309430
v 0.023383 1.682013 -0.013500
v 1.309431 -0.153987 -0.756000
v 0.027000 1.682013 0.000000
v 1.512000 -0.153987 0.000000
v 0.023383 1.682013 0.013500
v 1.309430 -0.153987 0.756000
v 0.013500 1.682013 0.023383
v 0.756000 -0.153987 1.309431
v 0.000000 1.682013 0.027000
v 0.000000 -0.153987 1.512000
v -0.013500 1.682013 0.023383
v -0.756000 -0.153987 1.309431
v -0.023383 1.682013 0.013500
v -1.309430 -0.153987 0.756000
v -0.027000 1.682013 0.000000
v -1.512000 -0.153987 0.000001
v -0.023383 1.682013 -0.013500
v -1.309431 -0.153987 -0.755999
v -0.013500 1.682013 -0.023383
v -0.756001 -0.153987 -1.309430
v 0.000000 0.440563 -1.209600
v 0.000000 2.276564 -0.026999
v 0.013500 2.276564 -0.023382
v 0.604800 0.440563 -1.047544
v 0.023383 2.276564 -0.013499
v 1.047544 0.440563 -0.604800
v 0.027000 2.276564 0.000001
v 1.209600 0.440563 0.000000
v 0.023383 2.276564 0.013501
v 1.047544 0.440563 0.604800
v 0.013500 2.276564 0.023384
v 0.604800 0.440563 1.047544
v 0.000000 2.276564 0.027001
v 0.000000 0.440563 1.209600
v -0.013500 2.276564 0.023384
v -0.604800 0.440563 1.047545
v -0.023383 2.276564 0.013501
v -1.047544 0.440563 0.604800
v -0.027000 2.276564 0.000001
v -1.209600 0.440563 0.000001
v -0.023383 2.276564 -0.013499
v -1.047545 0.440563 -0.604800
v -0.604801 0.440563 -1.047544
v -0.013500 2.276564 -0.023382
v 0.000000 1.314700 -0.725760
v 0.000000 3.150699 -0.026999
v 0.013500 3.150699 -0.023382
v 0.362880 1.314700 -0.628527
v 0.023383 3.150699 -0.013499
v 0.628527 1.314700 -0.362880
v 0.027000 3.150699 0.000001
v 0.725760 1.314700 0.000000
v 0.023383 3.150699 0.013501
v 0.628527 1.314700 0.362880
v 0.013500 3.150699 0.023384
v 0.362880 1.314700 0.628527
v 0.000000 3.150699 0.027001
v 0.000000 1.314700 0.725760
v -0.013500 3.150699 0.023384
v -0.362880 1.314700 0.628527
v -0.023383 3.150699 0.013501
v -0.628527 1.314700 0.362880
v -0.027000 3.150699 0.000001
v -0.725760 1.314700 0.000000
v -0.023383 3.150699 -0.013499
v -0.628527 1.314700 -0.362880
v -0.362881 1.314700 -0.628526
v -0.013500 3.150699 -0.023382
vt 0.902813 0.901792
vt 0.514398 0.512367
vt 0.518646 0.503623
vt 1.049890 0.646824
vt 0.518199 0.493877
vt 1.049890 0.353450
vt 0.512921 0.485722
vt 0.903106 0.098600
vt 0.504253 0.481367
vt 0.648299 -0.049175
vt 0.494545 0.481948
vt 0.353609 -0.049873
vt 0.486413 0.487318
vt 0.098025 0.097016
vt 0.482039 0.496041
vt -0.049719 0.352140
vt 0.482594 0.505785
vt -0.049890 0.646956
vt 0.487933 0.513943
vt 0.097532 0.902257
vt 0.496623 0.518326
vt 0.352915 1.049524
vt 0.647700 1.049309
vt 0.506320 0.517751
vn 0.204000 0.615700 -0.761200
vn 0.557200 0.615700 -0.557200
vn 0.761200 0.615700 -0.204000
vn 0.761200 0.615700 0.204000
vn 0.557200 0.615700 0.557200
vn 0.204000 0.615700 0.761200
vn -0.204000 0.615700 0.761200
vn -0.557200 0.615700 0.557200
vn -0.761200 0.615700 0.204000
vn -0.761200 0.615700 -0.204000
vn -0.204000 0.615700 -0.761200
vn -0.557200 0.615700 -0.557200
vn 0.219800 0.528300 -0.820100
vn 0.600400 0.528300 -0.600400
vn 0.820100 0.528300 -0.219800
vn 0.820100 0.528300 0.219800
vn 0.600400 0.528300 0.600400
vn 0.219800 0.528300 0.820100
vn -0.219800 0.528300 0.820100
vn -0.600400 0.528300 0.600400
vn -0.820100 0.528300 0.219800
vn -0.820100 0.528300 -0.219800
vn -0.219800 0.528300 -0.820100
vn -0.600400 0.528300 -0.600400
vn 0.242900 0.345000 -0.906600
vn 0.663700 0.345000 -0.663700
vn 0.906600 0.345000 -0.242900
vn 0.906600 0.345000 0.242900
vn 0.663700 0.345000 0.663700
vn 0.242900 0.345000 0.906600
vn -0.242900 0.345000 0.906600
vn -0.663700 0.345000 0.663700
vn -0.906600 0.345000 0.242900
vn -0.906600 0.345000 -0.242900
vn -0.242900 0.345000 -0.906600
vn -0.663700 0.345000 -0.663700
vn 0.000000 1.000000 -0.000000
s off
f 1/1/1 2/2/1 3/3/1 4/4/1
f 4/4/2 3/3/2 5/5/2 6/6/2
f 6/6/3 5/5/3 7/7/3 8/8/3
f 8/8/4 7/7/4 9/9/4 10/10/4
f 10/10/5 9/9/5 11/11/5 12/12/5
f 12/12/6 11/11/6 13/13/6 14/14/6
f 14/14/7 13/13/7 15/15/7 16/16/7
f 16/16/8 15/15/8 17/17/8 18/18/8
f 18/18/9 17/17/9 19/19/9 20/20/9
f 20/20/10 19/19/10 21/21/10 22/22/10
f 2/2/11 1/1/11 24/23/11 23/24/11
f 22/22/12 21/21/12 23/24/12 24/23/12
f 25/1/1 26/2/1 27/3/1 28/4/1
f 28/4/2 27/3/2 29/5/2 30/6/2
f 30/6/3 29/5/3 31/7/3 32/8/3
f 32/8/4 31/7/4 33/9/4 34/10/4
f 34/10/5 33/9/5 35/11/5 36/12/5
f 36/12/6 35/11/6 37/13/6 38/14/6
f 38/14/7 37/13/7 39/15/7 40/16/7
f 40/16/8 39/15/8 41/17/8 42/18/8
f 42/18/9 41/17/9 43/19/9 44/20/9
f 44/20/10 43/19/10 45/21/10 46/22/10
f 48/23/11 47/24/11 26/2/11 25/1/11
f 46/22/12 45/21/12 47/24/12 48/23/12
f 49/1/13 50/2/13 51/3/13 52/4/13
f 52/4/14 51/3/14 53/5/14 54/6/14
f 54/6/15 53/5/15 55/7/15 56/8/15
f 56/8/16 55/7/16 57/9/16 58/10/16
f 58/10/17 57/9/17 59/11/17 60/12/17
f 60/12/18 59/11/18 61/13/18 62/14/18
f 62/14/19 61/13/19 63/15/19 64/16/19
f 64/16/20 63/15/20 65/17/20 66/18/20
f 66/18/21 65/17/21 67/19/21 68/20/21
f 68/20/22 67/19/22 69/21/22 70/22/22
f 71/23/23 72/24/23 50/2/23 49/1/23
f 70/22/24 69/21/24 72/24/24 71/23/24
f 73/1/25 74/2/25 75/3/25 76/4/25
f 76/4/26 75/3/26 77/5/26 78/6/26
f 78/6/27 77/5/27 79/7/27 80/8/27
f 80/8/28 79/7/28 81/9/28 82/10/28
f 82/10/29 81/9/29 83/11/29 84/12/29
f 84/12/30 83/11/30 85/13/30 86/14/30
f 86/14/31 85/13/31 87/15/31 88/16/31
f 88/16/32 87/15/32 89/17/32 90/18/32
f 90/18/33 89/17/33 91/19/33 92/20/33
f 92/20/34 91/19/34 93/21/34 94/22/34
f 95/23/35 96/24/35 74/2/35 73/1/35
f 94/22/36 93/21/36 96/24/36 95/23/36
f 17/17/37 15/15/37 13/13/37 11/11/37 9/9/37 7/7/37 5/5/37 3/3/37 2/2/37 23/24/37 21/21/37 19/19/37
f 33/9/37 31/7/37 29/5/37 27/3/37 26/2/37 47/24/37 45/21/37 43/19/37 41/17/37 39/15/37 37/13/37 35/11/37
