# Blender v2.69 (sub 0) OBJ File: 'test.blend'
# www.blender.org
o Cylinder
v -0.000000 0.248499 -1.680000
v -0.000000 2.288500 -0.030000
v 0.840000 0.248499 -1.454923
v 0.015000 2.288500 -0.025981
v 1.454923 0.248499 -0.840000
v 0.025981 2.288500 -0.015000
v 1.680000 0.248499 -0.000000
v 0.030000 2.288500 0.000000
v 1.454923 0.248499 0.840000
v 0.025981 2.288500 0.015000
v 0.840000 0.248499 1.454923
v 0.015000 2.288500 0.025981
v 0.000000 0.248499 1.680000
v -0.000000 2.288500 0.030000
v -0.840000 0.248499 1.454923
v -0.015000 2.288500 0.025981
v -1.454922 0.248499 0.840000
v -0.025981 2.288500 0.015000
v -1.680000 0.248499 0.000001
v -0.030000 2.288500 0.000000
v -1.454923 0.248499 -0.839999
v -0.025981 2.288500 -0.015000
v -0.840001 0.248499 -1.454922
v -0.015000 2.288500 -0.025981
v -0.000000 0.746013 -1.512000
v -0.000000 2.582013 -0.027000
v 0.756000 0.746013 -1.309430
v 0.013500 2.582013 -0.023383
v 1.309431 0.746013 -0.756000
v 0.023383 2.582013 -0.013500
v 1.512000 0.746013 0.000000
v 0.027000 2.582013 0.000000
v 1.309430 0.746013 0.756000
v 0.023383 2.582013 0.013500
v 0.756000 0.746013 1.309431
v 0.013500 2.582013 0.023383
v 0.000000 0.746013 1.512000
v -0.000000 2.582013 0.027000
v -0.756000 0.746013 1.309431
v -0.013500 2.582013 0.023383
v -1.309430 0.746013 0.756000
v -0.023383 2.582013 0.013500
v -1.512000 0.746013 0.000001
v -0.027000 2.582013 0.000000
v -1.309431 0.746013 -0.755999
v -0.023383 2.582013 -0.013500
v -0.756001 0.746013 -1.309430
v -0.013500 2.582013 -0.023383
v -0.000000 1.340563 -1.209600
v -0.000000 3.176564 -0.027000
v 0.604800 1.340563 -1.047544
v 0.013500 3.176564 -0.023383
v 1.047544 1.340563 -0.604800
v 0.023383 3.176564 -0.013500
v 1.209600 1.340563 0.000000
v 0.027000 3.176564 0.000000
v 1.047544 1.340563 0.604800
v 0.023383 3.176564 0.013500
v 0.604800 1.340563 1.047544
v 0.013500 3.176564 0.023383
v 0.000000 1.340563 1.209600
v -0.000000 3.176564 0.027000
v -0.604800 1.340563 1.047545
v -0.013500 3.176564 0.023383
v -1.047544 1.340563 0.604800
v -0.023383 3.176564 0.013500
v -1.209600 1.340563 0.000001
v -0.027000 3.176564 0.000000
v -1.047545 1.340563 -0.604800
v -0.023383 3.176564 -0.013500
v -0.604801 1.340563 -1.047544
v -0.013500 3.176564 -0.023383
v -0.000000 2.214700 -0.725760
v -0.000000 4.050699 -0.027000
v 0.362880 2.214700 -0.628527
v 0.013500 4.050699 -0.023383
v 0.628527 2.214700 -0.362880
v 0.023383 4.050699 -0.013500
v 0.725760 2.214700 0.000000
v 0.027000 4.050699 0.000000
v 0.628527 2.214700 0.362880
v 0.023383 4.050699 0.013500
v 0.362880 2.214700 0.628527
v 0.013500 4.050699 0.023383
v 0.000000 2.214700 0.725760
v -0.000000 4.050699 0.027000
v -0.362880 2.214700 0.628527
v -0.013500 4.050699 0.023383
v -0.628527 2.214700 0.362880
v -0.023383 4.050699 0.013500
v -0.725760 2.214700 0.000000
v -0.027000 4.050699 0.000000
v -0.628527 2.214700 -0.362880
v -0.023383 4.050699 -0.013500
v -0.362881 2.214700 -0.628526
v -0.013500 4.050699 -0.023383
vt 0.902813 0.901792
vt 0.514398 0.512367
vt 0.518646 0.503623
vt 1.049890 0.646824
vt 0.518199 0.493877
vt 1.049890 0.353450
vt 0.512921 0.485722
vt 0.903106 0.098600
vt 0.504253 0.481367
vt 0.648299 -0.049175
vt 0.494545 0.481948
vt 0.353609 -0.049873
vt 0.486413 0.487318
vt 0.098025 0.097016
vt 0.482039 0.496041
vt -0.049719 0.352140
vt 0.482594 0.505785
vt -0.049890 0.646956
vt 0.487933 0.513943
vt 0.097532 0.902257
vt 0.496623 0.518326
vt 0.352915 1.049524
vt 0.506320 0.517751
vt 0.647700 1.049309
vn 0.203954 0.615651 -0.761168
vn 0.557213 0.615651 -0.557214
vn 0.761168 0.615651 -0.203954
vn 0.761168 0.615651 0.203954
vn 0.557214 0.615651 0.557214
vn 0.203955 0.615651 0.761168
vn -0.203954 0.615651 0.761168
vn -0.557214 0.615651 0.557214
vn -0.761168 0.615651 0.203955
vn -0.761168 0.615651 -0.203954
vn 0.000000 1.000000 0.000000
vn -0.203955 0.615651 -0.761168
vn -0.557214 0.615651 -0.557213
vn 0.557214 0.615651 -0.557214
vn 0.761168 0.615651 0.203955
vn 0.203954 0.615651 0.761168
vn -0.557214 0.615650 0.557214
vn 0.000000 1.000000 0.000002
vn -0.203955 0.615650 -0.761168
vn -0.557214 0.615651 -0.557214
vn 0.219757 0.528270 -0.820145
vn 0.600388 0.528270 -0.600388
vn 0.820145 0.528270 -0.219757
vn 0.820145 0.528270 0.219758
vn 0.600388 0.528270 0.600387
vn 0.219757 0.528270 0.820145
vn -0.219757 0.528270 0.820145
vn -0.600388 0.528270 0.600388
vn -0.820145 0.528270 0.219757
vn -0.820145 0.528270 -0.219756
vn -0.219757 0.528270 -0.820145
vn -0.600388 0.528270 -0.600388
vn 0.242924 0.345044 -0.906605
vn 0.663681 0.345043 -0.663681
vn 0.906605 0.345043 -0.242924
vn 0.906605 0.345043 0.242924
vn 0.663681 0.345043 0.663681
vn 0.242924 0.345043 0.906605
vn -0.242924 0.345043 0.906605
vn -0.663681 0.345043 0.663681
vn -0.906605 0.345043 0.242925
vn -0.906605 0.345043 -0.242924
vn -0.242924 0.345043 -0.906605
vn -0.663681 0.345043 -0.663681
s off
f 1/1/1 2/2/1 4/3/1 3/4/1
f 3/4/2 4/3/2 6/5/2 5/6/2
f 5/6/3 6/5/3 8/7/3 7/8/3
f 7/8/4 8/7/4 10/9/4 9/10/4
f 9/10/5 10/9/5 12/11/5 11/12/5
f 11/12/6 12/11/6 14/13/6 13/14/6
f 13/14/7 14/13/7 16/15/7 15/16/7
f 15/16/8 16/15/8 18/17/8 17/18/8
f 17/18/9 18/17/9 20/19/9 19/20/9
f 19/20/10 20/19/10 22/21/10 21/22/10
f 4/3/11 2/2/11 24/23/11 22/21/11 20/19/11 18/17/11 16/15/11 14/13/11 12/11/11 10/9/11 8/7/11 6/5/11
f 23/24/12 24/23/12 2/2/12 1/1/12
f 21/22/13 22/21/13 24/23/13 23/24/13
f 25/1/1 26/2/1 28/3/1 27/4/1
f 27/4/14 28/3/14 30/5/14 29/6/14
f 29/6/3 30/5/3 32/7/3 31/8/3
f 31/8/15 32/7/15 34/9/15 33/10/15
f 33/10/5 34/9/5 36/11/5 35/12/5
f 35/12/16 36/11/16 38/13/16 37/14/16
f 37/14/7 38/13/7 40/15/7 39/16/7
f 39/16/17 40/15/17 42/17/17 41/18/17
f 41/18/9 42/17/9 44/19/9 43/20/9
f 43/20/10 44/19/10 46/21/10 45/22/10
f 28/3/18 26/2/18 48/23/18 46/21/18 44/19/18 42/17/18 40/15/18 38/13/18 36/11/18 34/9/18 32/7/18 30/5/18
f 47/24/19 48/23/19 26/2/19 25/1/19
f 45/22/20 46/21/20 48/23/20 47/24/20
f 49/1/21 50/2/21 52/3/21 51/4/21
f 51/4/22 52/3/22 54/5/22 53/6/22
f 53/6/23 54/5/23 56/7/23 55/8/23
f 55/8/24 56/7/24 58/9/24 57/10/24
f 57/10/25 58/9/25 60/11/25 59/12/25
f 59/12/26 60/11/26 62/13/26 61/14/26
f 61/14/27 62/13/27 64/15/27 63/16/27
f 63/16/28 64/15/28 66/17/28 65/18/28
f 65/18/29 66/17/29 68/19/29 67/20/29
f 67/20/30 68/19/30 70/21/30 69/22/30
f 71/24/31 72/23/31 50/2/31 49/1/31
f 69/22/32 70/21/32 72/23/32 71/24/32
f 73/1/33 74/2/33 76/3/33 75/4/33
f 75/4/34 76/3/34 78/5/34 77/6/34
f 77/6/35 78/5/35 80/7/35 79/8/35
f 79/8/36 80/7/36 82/9/36 81/10/36
f 81/10/37 82/9/37 84/11/37 83/12/37
f 83/12/38 84/11/38 86/13/38 85/14/38
f 85/14/39 86/13/39 88/15/39 87/16/39
f 87/16/40 88/15/40 90/17/40 89/18/40
f 89/18/41 90/17/41 92/19/41 91/20/41
f 91/20/42 92/19/42 94/21/42 93/22/42
f 95/24/43 96/23/43 74/2/43 73/1/43
f 93/22/44 94/21/44 96/23/44 95/24/44
