<?xml version="1.0" encoding="utf-8"?>
<!-- Generator: Adobe Illustrator 14.0.0, SVG Export Plug-In . SVG Version: 6.00 Build 43363)  -->
<!DOCTYPE svg PUBLIC "-//W3C//DTD SVG 1.1//EN" "http://www.w3.org/Graphics/SVG/1.1/DTD/svg11.dtd">
<svg version="1.1" id="Layer_1" xmlns="http://www.w3.org/2000/svg" xmlns:xlink="http://www.w3.org/1999/xlink" x="0px" y="0px"
	 width="1000px" height="1000px" viewBox="0 0 1000 1000" enable-background="new 0 0 1000 1000" xml:space="preserve">
<g>
	<path fill-rule="evenodd" clip-rule="evenodd" fill="#FFFFFF" d="M463.711,22.73c-5.294,3.619-11.71,6.117-13.722,13.017
		c-2.981-2.169-2.112-10.998,0.352-13.017C454.798,22.73,459.255,22.73,463.711,22.73z"/>
	<path fill-rule="evenodd" clip-rule="evenodd" fill="#FFFFFF" d="M542.521,29.062c6.393,3.342,11.304,8.165,15.48,13.722
		c-5.099,7.216-16.89,7.737-14.425,22.517c5.965-0.395,9.306-1.46,14.073-3.519c2.93-1.264,9.145-3.859,9.852-7.74
		c0.605-3.325-3.89-6.702-3.167-10.204c0.58-2.816,5.959-3.021,7.388-4.574c2.623,4.768,0.811,13.969,3.168,19
		c2.129,0.03,6.569-1.521,7.036,1.055c4.255-4.188,7.628-9.26,9.499-15.832c0.063,16.482,0.74,36.625-9.851,43.626
		c-1.541-7.609,3.765-14.356,0.704-21.461c-12.165-5.77-31.305-2.12-34.128,9.851c-2.932,0-5.864,0-8.797,0
		C538.402,58.186,544.579,46.337,542.521,29.062z"/>
	<path fill-rule="evenodd" clip-rule="evenodd" fill="#FFFFFF" d="M471.803,31.525c1.923,0.424,1.991,2.701,4.223,2.815
		c-5.255,6.004-8.34,14.178-17.24,16.536c0.358,3.032,4.75,0.497,7.037,1.055c-0.263,6.541-7.746,5.858-14.425,5.982
		c-2.042-1.828-1.269-6.472-1.407-10.203C462.869,50.647,466.293,38.278,471.803,31.525z"/>
	<path fill-rule="evenodd" clip-rule="evenodd" fill="#FFFFFF" d="M376.458,36.1c0.234,0,0.469,0,0.704,0
		c3.931,0.643,2.865,6.282,4.925,8.796c6.708,0.726,8.905-3.059,14.778-3.167c-1.979,7.287-11.899,6.63-19,8.796
		C376.73,46.381,376.215,41.619,376.458,36.1z"/>
	<path fill-rule="evenodd" clip-rule="evenodd" fill="#FFFFFF" d="M354.292,42.432c3.928,7.235,12.793,14.139,23.925,9.852
		c1.388,3.3,1.49,9.401,0,12.666c7.091,1.24,13.484-5.741,20.406-2.463c0,1.876,0,3.753,0,5.629
		c-9.445,0.021-20.565,1.796-22.869,8.795c-1.694,5.148,2.058,8.891,3.167,12.667c-4.191,1.045-5.907-3.171-10.907-2.464
		c1.252-3.908,3.021-7.298,4.222-11.258c-2.751-1.706-6.869-2.044-8.796-4.574c1.459-2.529,4.577-3.398,8.796-3.166
		C369.08,56.938,352.172,57.722,354.292,42.432z"/>
	<path fill-rule="evenodd" clip-rule="evenodd" fill="#FFFFFF" d="M650.532,91.336c-5.448-11.37,9.971-15.374,10.556-23.572
		c0.508-7.132-6.8-7.728-8.09-14.073c0.724-0.096,0.081-1.559,1.055-1.408c11.277,0.215,14.077,10.785,12.665,22.518
		c-1.847,1.679-3.56,1.796-5.277,3.166C656.891,81.592,655.813,88.474,650.532,91.336z"/>
	<path fill-rule="evenodd" clip-rule="evenodd" fill="#FFFFFF" d="M489.043,54.747c-9.443,2.754-16.48,7.913-17.24,19.351
		c-2.345,0-4.69,0-7.037,0C468.391,63.651,473.699,50.042,489.043,54.747z"/>
	<path fill-rule="evenodd" clip-rule="evenodd" fill="#FFFFFF" d="M403.548,87.114c2.068,1.83,0.426,5.651,0.704,8.796
		C401.167,96.394,399.545,87.034,403.548,87.114z"/>
	<path fill-rule="evenodd" clip-rule="evenodd" fill="#FFFFFF" d="M697.679,113.854c0.599,6.463-3.148,8.579-4.574,13.018
		c-4.176-0.28-4.944-3.969-8.796-4.574C681.385,113.058,692.357,107.676,697.679,113.854z"/>
	<path fill-rule="evenodd" clip-rule="evenodd" fill="#FFFFFF" d="M263.871,113.501c4.331-0.46,5.306,2.436,5.63,5.981
		C265.713,120.577,263.709,117.467,263.871,113.501z"/>
	<path fill-rule="evenodd" clip-rule="evenodd" fill="#FFFFFF" d="M776.839,113.501c3.604-0.322,5.11,2.943,4.224,5.981
		c-2.346,0-4.693,0-7.036,0C774.241,116.767,777.858,117.452,776.839,113.501z"/>
	<path fill-rule="evenodd" clip-rule="evenodd" fill="#FFFFFF" d="M274.075,122.649c5.598-0.154,5.496,6.113,9.5,7.037
		c5.87,1.354,6.905-4.767,13.018-4.926c2.753,6.721-4.92,8.846-4.926,15.129c-4.456,0-8.914,0-13.37,0
		C276.005,135.027,273.657,130.222,274.075,122.649z"/>
	<path fill-rule="evenodd" clip-rule="evenodd" fill="#FFFFFF" d="M250.502,131.093c-1.955-0.955-4.141-2.179-4.222-4.221
		C246.009,120.016,256.008,126.478,250.502,131.093z"/>
	<path fill-rule="evenodd" clip-rule="evenodd" fill="#FFFFFF" d="M241.355,135.668c-1.543,4.542-7.333,1.451-7.037-2.815
		C237.849,131.26,239.171,134.756,241.355,135.668z"/>
	<path fill-rule="evenodd" clip-rule="evenodd" fill="#FFFFFF" d="M770.858,150.092c-6.077-0.815-13.268-4.63-10.202-11.258
		C766.59,140.055,771.404,142.394,770.858,150.092z"/>
	<path fill-rule="evenodd" clip-rule="evenodd" fill="#FFFFFF" d="M754.323,165.221c-3.215,0.282-3.92-1.943-6.686-2.11
		c2.677-5.769,5.188-11.7,8.443-16.889C762.252,148.702,753.418,158.534,754.323,165.221z"/>
	<path fill-rule="evenodd" clip-rule="evenodd" fill="#FFFFFF" d="M775.784,154.667c10.978,0.516,20.547,2.44,24.277,10.203
		c-2.538,9.19,0.116,23.57-4.224,30.961c-9.438,0.961-19.76-1.072-22.867-6.333c5.941-1.335,12.774,2.647,17.591-0.353
		c3.721-2.315,5.157-9.705,4.926-13.72c-0.491-8.563-9.306-15.997-18.648-12.314c-6.404,2.524-8.567,12.001-5.98,21.46
		C762,178.595,770.081,159.966,775.784,154.667z"/>
	<path fill-rule="evenodd" clip-rule="evenodd" fill="#FFFFFF" d="M159.026,163.462c-1.72,5.435-10.169,7.187-12.667,13.017
		c2.478,3.103,6.723,8.649,10.556,11.962c1.529,1.321,4.952,4.126,6.685,4.222c3.902,0.216,10.534-6.386,11.962-10.554
		c1.291-0.645,1.828,1.229,2.815,2.111c5.828,5.2,18.204,10.444,13.37,23.22c-13.903-3.459-20.941,8.439-30.258,13.019
		c-2.208-0.857-4.059-2.15-6.333-2.462c-8.611-1.186-15.52,3.434-20.054,7.036c-1.648-0.851,0.915-4.911-1.056-5.981
		c10.281-5.434,20.746-10.685,27.091-20.055c-1.177-2.264-3.428-3.795-5.629-5.628c-1.828-1.524-4.297-4.593-6.333-4.926
		c-7.032-1.148-9.204,8.727-16.887,8.796C140.463,185.241,143.965,168.571,159.026,163.462z M161.137,209.904
		c8.355-3.96,14.81-9.82,21.461-15.481C170.69,191.896,166.486,204.728,161.137,209.904z"/>
	<path fill-rule="evenodd" clip-rule="evenodd" fill="#FFFFFF" d="M814.837,180.35c-0.99,1.941-1.305,4.558-3.869,4.925
		C808.659,181.987,812.579,175.271,814.837,180.35z"/>
	<path fill-rule="evenodd" clip-rule="evenodd" fill="#FFFFFF" d="M877.112,217.292c-0.695,4.263-2.57,6.562-2.111,10.906
		c0.605,5.735,5.556,10.175,3.871,15.48c-0.598,1.876-3.838,4.919-6.333,4.574c-5.927-0.82-0.125-12.025-2.462-16.184
		c-2.563-4.558-8.593-1.038-9.501-7.038c5.915-1.355,12.602-1.939,13.018-8.795C875.402,215.951,876.358,216.52,877.112,217.292z"/>
	<path fill-rule="evenodd" clip-rule="evenodd" fill="#FFFFFF" d="M854.243,229.606c9.452,15.41,25.214,24.51,26.738,47.849
		c-6.559-9.038-12.766-18.428-19.351-27.444c-5.715,0.032-5.434,6.06-8.795,8.444c-9.295-1.869,1.55-9.414,0.353-15.481
		c-1.419-7.183-8.703,2.645-13.018,0C840.983,236.04,850.484,234.768,854.243,229.606z"/>
	<path fill-rule="evenodd" clip-rule="evenodd" fill="#FFFFFF" d="M892.592,241.216c5.519,2.489,2.075,12.188,2.815,18.999
		C888.682,258.096,890.356,247.125,892.592,241.216z"/>
	<path fill-rule="evenodd" clip-rule="evenodd" fill="#FFFFFF" d="M84.79,270.418c3.059,19.14-12.197,22.975-13.017,39.405
		c-5.23-0.632-9.071-2.656-13.371-4.222c-0.176-5.336,3.234-7.087,4.223-11.259c13.205,4.929,17.338-10.27,16.536-23.924
		C81.038,270.418,82.914,270.418,84.79,270.418z"/>
	<path fill-rule="evenodd" clip-rule="evenodd" fill="#FFFFFF" d="M111.178,277.807c-0.582,4.403-5.827,5.938-5.629,10.203
		c0.361,7.804,20.62,5.418,20.406-2.463c3.396,2.116,8.779,2.245,10.203,6.333c-3.57,0.404-9.091,1.302-11.961,3.519
		c-1.427,6.821,4.135,6.653,4.573,11.609c-13.83-3.747-28.868,0.657-32.367,11.611c-4.893-0.62-8.431-2.594-12.667-3.87
		c5.951-13.635,14.949-24.222,18.999-39.757C106.185,274.13,108.222,277.068,111.178,277.807z"/>
	<path fill-rule="evenodd" clip-rule="evenodd" fill="#FFFFFF" d="M934.811,323.192c-3.51,5.167-10.388,6.969-13.018,13.018
		c-1.056,7.977,4.627,9.213,4.575,16.184c-3.702,1.106-7.603,2.015-11.259,3.167c-0.883-0.644-0.09-2.96-1.759-2.814
		C919.548,343.535,918.031,316.988,934.811,323.192z"/>
	<path fill-rule="evenodd" clip-rule="evenodd" fill="#FFFFFF" d="M891.185,326.359c10.293,4.248,8.113,20.972,9.852,33.775
		c-7.131,0.798-10.552-2.115-12.665-6.333C894.229,348.182,889.735,335.448,891.185,326.359z"/>
	<path fill-rule="evenodd" clip-rule="evenodd" fill="#FFFFFF" d="M941.144,335.506c3.554,2.545,6.005,6.192,7.038,11.259
		c-3.878,1.282-7.305,3.016-12.666,2.815C937.979,345.476,942.063,342.993,941.144,335.506z"/>
	<path fill-rule="evenodd" clip-rule="evenodd" fill="#FFFFFF" d="M65.44,354.154c-3.152,6.448-10.056,12.558-19.703,10.203
		C50.15,358.802,56.835,355.517,65.44,354.154z"/>
	<path fill-rule="evenodd" clip-rule="evenodd" fill="#FFFFFF" d="M81.625,374.912c8.145,2.527,3.369,17.977,7.388,24.628
		c-5.832,0.672-8.223-2.097-13.722-1.759C80.675,393.431,78.033,381.054,81.625,374.912z"/>
	<path fill-rule="evenodd" clip-rule="evenodd" fill="#FFFFFF" d="M44.331,380.189c6.103,2.105,7.964,8.454,12.313,12.313
		C48.541,393.773,48.284,384.234,44.331,380.189z"/>
	<path fill-rule="evenodd" clip-rule="evenodd" fill="#FFFFFF" d="M960.143,390.744c-0.742,14.408,10.562,26.735,2.816,39.405
		c-3.317-1.412-0.235-7.046-2.11-9.851c-12.894-3.584-14.885,9.076-19.705,15.832c-9.575-7.217,5.56-13.691,5.63-20.054
		c0.033-2.965-4.286-7.673-5.981-10.204c-2.364-3.531-4.426-6.195-5.629-10.203C941.354,391.892,950.789,391.357,960.143,390.744z
		 M954.162,406.929c0.958-3.395,2.396-7.743,1.407-11.963C943.593,390.063,942.363,410.615,954.162,406.929z"/>
	<path fill-rule="evenodd" clip-rule="evenodd" d="M955.569,394.965c0.989,4.22-0.449,8.568-1.407,11.963
		C942.363,410.615,943.593,390.063,955.569,394.965z"/>
	<path fill-rule="evenodd" clip-rule="evenodd" fill="#FFFFFF" d="M917.924,397.076c1.646-0.815,4.805-0.121,7.037-0.351
		c7.047,8.225,9.324,34.146-8.093,32.368c3.28-3.333,7.303-6.233,8.093-11.962C926.094,408.898,921.698,401.574,917.924,397.076z"/>
	<path fill-rule="evenodd" clip-rule="evenodd" fill="#FFFFFF" d="M46.793,452.314c3.51,0.829,7.227,1.452,7.388,5.629
		C50.896,460.444,46.34,456.873,46.793,452.314z"/>
	<path fill-rule="evenodd" clip-rule="evenodd" fill="#FFFFFF" d="M48.903,478.701c-3.295-1.08-4.692-7.326-2.11-10.203
		C50.104,469.612,53.603,476.792,48.903,478.701z"/>
	<path fill-rule="evenodd" clip-rule="evenodd" fill="#FFFFFF" d="M936.571,480.109c4.826,19.333,31.211,17.107,32.368,40.109
		c-3.33-5.584-11.396-6.433-17.591-9.148c-4.286-12.954-12.862-21.617-23.573-28.146c-7.96,1.873-12.996,8.372-6.685,15.832
		c4.326,5.117,13.342,10.03,17.238,13.72c2.87-2.107,0.523-7.574,1.056-11.608c8.641,0.279,5.647,14.046,5.632,21.814
		c-11.629,0.134-12.122-10.867-19.703-14.777c-4.339,1.759-8.664,3.532-11.26,7.036c-7.339-7.69-2.394-24.721-0.703-34.832
		C921.091,480.109,928.83,480.109,936.571,480.109z"/>
	<path fill-rule="evenodd" clip-rule="evenodd" fill="#FFFFFF" d="M60.515,521.272c6.017,1.293,13.985,2.162,19.702,0
		c-1.276,7.638-6.708,11.119-7.037,19.703C69.002,534.362,65.444,527.134,60.515,521.272z"/>
	<path fill-rule="evenodd" clip-rule="evenodd" fill="#FFFFFF" d="M48.2,522.329c-7.29,16.628,10.379,19.636,22.166,22.165
		c-0.453,6.934-1.158,13.617-2.815,19.35c-10.833,3.329-14.979-5.176-22.516-7.388c6.102-10.308-4.459-20.366-1.407-33.072
		C43.581,521.463,46.659,522.664,48.2,522.329z"/>
	<path fill-rule="evenodd" clip-rule="evenodd" fill="#FFFFFF" d="M917.22,562.086c-1.709,2.775-1.709,7.779,0,10.553
		c4.533,0.781,5.697-1.808,7.741-3.517c-0.468-2.229-1.157-4.238-2.463-5.629c5.819-0.671,11.85,0.89,17.591,1.407
		c-0.039,1.729-1.788,2.469-2.463,4.222c-2.633,6.826,1.896,18.272-1.055,24.98c3.036,5.406,10.101,6.784,10.202,15.126
		c-4.45-0.473-7.593-2.255-13.018-1.758c1.39-4.189-2.642-5.41-4.926-7.036c-4.481,1.262-9.075,6.253-14.072,2.812
		c1.107-3.685,5.188-5.268,5.628-8.794c0.546-4.344-5.472-11.072-8.796-11.61c-7.688-1.242-9.587,7.888-11.609,14.073
		c-2.74-5.735,1.16-10.348,3.519-14.424c3.05-5.269,6.68-10.871,6.685-19.351c-0.099-0.569,0.334-0.606,0.352-1.056
		C912.764,562.086,914.991,562.086,917.22,562.086z M923.553,579.678c-2.451,5.048,2.695,10.799,8.796,9.146
		c0.965-3.885,1.376-11.764-0.353-15.127C932.039,577.728,925.12,576.451,923.553,579.678z"/>
	<path fill-rule="evenodd" clip-rule="evenodd" d="M931.996,573.696c1.729,3.363,1.317,11.242,0.353,15.127
		c-6.101,1.653-11.247-4.098-8.796-9.146C925.12,576.451,932.039,577.728,931.996,573.696z"/>
	<path fill-rule="evenodd" clip-rule="evenodd" fill="#FFFFFF" d="M46.793,621.192c9.224,3.262,17.75,26.731,3.166,30.259
		C55.701,641.227,48.074,630.883,46.793,621.192z"/>
	<path fill-rule="evenodd" clip-rule="evenodd" fill="#FFFFFF" d="M68.607,628.581c4.523,2.897,6.048,11.688,11.962,13.018
		c4.077,0.916,6.101-2.256,11.258-1.759c-4.037,4.172-11.317,5.103-18.647,5.982C71.521,640.496,65.244,635.581,68.607,628.581z"/>
	<path fill-rule="evenodd" clip-rule="evenodd" fill="#FFFFFF" d="M898.222,641.247c9.753,2.462,25.117,5.069,32.72,12.314
		c2.324,2.214,5.925,6.11,5.63,9.146c-0.237,2.441-4.012,4.669-5.63,6.685c-2.091,2.608-3.118,4.804-4.573,7.389
		c-3.65-2.151-1.268-9.404-4.575-11.257c-5.06-2.839-12.895,3.37-13.017,8.091c-0.17,6.649,8.032,5.168,7.389,11.963
		C895.102,685.882,901.123,659.104,898.222,641.247z M905.963,651.802c0.019,3.03-0.325,6.423,1.055,8.093
		c6.924,2.294,6.107-6.051,8.443-9.501C912.051,649.351,909.14,651.479,905.963,651.802z"/>
	<path fill-rule="evenodd" clip-rule="evenodd" d="M915.461,650.394c-2.336,3.45-1.52,11.795-8.443,9.501
		c-1.38-1.67-1.036-5.062-1.055-8.093C909.14,651.479,912.051,649.351,915.461,650.394z"/>
	<path fill-rule="evenodd" clip-rule="evenodd" fill="#FFFFFF" d="M92.178,724.983c10.909-0.473,21.184-6.357,27.795-13.37
		c1.763-1.87,5.548-5.437,5.981-7.389c0.867-3.917-2.852-5.972-2.814-9.852c8.3,1.316,9.461,9.772,14.073,14.777
		c-16.255,9.943-39.15,27.002-65.44,17.238c-1.701-5.805-4.339-10.672-7.389-15.128c2.27-5.856,11.714-9.261,7.741-16.185
		c-0.111-0.192-1.755-2.306-1.76-2.111c0.04-1.863,6.058-4.803,8.445-4.572c1.764,0.169,4.07,2.457,4.925,3.87
		C88.382,699.941,84.829,720.086,92.178,724.983z"/>
	<path fill-rule="evenodd" clip-rule="evenodd" fill="#FFFFFF" d="M877.814,738.352c2.697,4.406,8.896,0.121,14.427,1.057
		c0.259,1.627,0.689,4.928,1.405,4.924c-3.759,9.939-12.868,18.571-23.924,23.573c-3.641,1.646-8.76,4.18-11.961,3.87
		c-2.18-0.211-6.719-2.762-9.148-4.223c-2.76-1.658-5.182-4.102-5.63-7.387c10.335-2.078,15.67,3.765,21.462,7.387
		c5.504-2.662,9.369-5.439,13.369-10.202c1.143-1.358,3.507-3.332,3.167-5.98c-0.386-3.021-4.939-4.613-6.685-4.575
		c-4.797,0.108-4.493,8.924-8.795,8.798c-5.256-0.155-1.966-8.056-0.705-9.854c-6.983-2.663-20.035-1.029-17.591-11.961
		c3.426,0.613,6.369,2.538,9.853,3.871c3.1,1.185,8.235,3.129,11.609,2.109c4.117-1.245,6.626-11.243,9.146-14.775
		c-9.81-3.875-16.959,6.562-27.795,2.813c-0.956-3.042,1.821-3.891,1.76-7.037c5.285,1.625,14.907-0.427,22.518,0.353
		c3.27,0.334,10.604,3.141,10.906,5.276c0.11,0.776-3.127,4.712-3.869,5.98C879.825,734.949,879.16,736.511,877.814,738.352z"/>
	<path fill-rule="evenodd" clip-rule="evenodd" fill="#FFFFFF" d="M163.952,753.127c10.836,5.307,2.755,23.354-2.814,28.852
		c4.277,8.781,8.61,18.072,14.425,25.683c1.857,2.43,3.96,4.506,5.277,7.038c-15.251-2.181-18.485-21.175-25.332-32.017
		C160.621,775.13,163.592,765.435,163.952,753.127z"/>
	<path fill-rule="evenodd" clip-rule="evenodd" fill="#FFFFFF" d="M135.454,790.07c-0.136-5.341,5.431-4.85,5.278-9.499
		c-0.082-2.487-9.476-11.244-0.704-10.204C148.989,771.431,147.513,795.941,135.454,790.07z"/>
	<path fill-rule="evenodd" clip-rule="evenodd" fill="#FFFFFF" d="M165.36,812.94c0.763,6.701-0.582,14.141-7.389,14.425
		c-1.664-7.484-1.532-16.764-6.685-20.759C157.617,805.756,160.608,811.061,165.36,812.94z"/>
	<path fill-rule="evenodd" clip-rule="evenodd" fill="#FFFFFF" d="M811.671,815.402c-8.821,0.931-15.708,6.229-16.535,16.185
		c-0.255,3.066-0.745,7.819,0.702,10.905c2.232,4.756,13.282,5.336,17.592,1.76c-7.935-8.548,3.955-26.31,11.61-14.776
		c-1.79,1.491-4.67,1.896-7.388,2.462c-0.232,8.441,2.102,14.319,4.224,20.408c-5.978,0.591-5.605,7.53-11.963,7.738
		c-0.521-1.724,1.007-2.063,0.702-4.222c-0.491-3.51-5.256-6.16-9.498-4.924c-3.344,0.973-3.065,6.755-6.686,5.98
		c-0.5-18.148-25.318-11.977-24.98-30.962c-3.13-1.048-5.452,0.886-8.444,1.056c-0.343-3.633,2.029-7.556,5.981-8.796
		c5.317-1.668,12.613,1.213,20.759,0.702C798.233,818.266,803.971,808.777,811.671,815.402z M779.654,833.697
		c5.163,2.038,9.348-3.071,6.335-7.036C781.169,823.89,778.609,828.375,779.654,833.697z"/>
	<path fill-rule="evenodd" clip-rule="evenodd" fill="#FFFFFF" d="M785.989,826.661c3.013,3.965-1.172,9.074-6.335,7.036
		C778.609,828.375,781.169,823.89,785.989,826.661z"/>
	<path fill-rule="evenodd" clip-rule="evenodd" fill="#FFFFFF" d="M243.114,841.085c2.174,0.408,2.806,2.355,4.573,3.167
		c2.669,9.484-11.981,10.597-5.98,20.055c11.24,1.976,8.092-10.437,17.591-10.204c0.103,1.774-0.547,4.301,1.407,4.223
		c-3.521,10.635-25.038,17.115-32.016,5.279C232.797,855.398,240.406,850.693,243.114,841.085z"/>
	<path fill-rule="evenodd" clip-rule="evenodd" fill="#FFFFFF" d="M775.433,853.753c-2.76-0.14-4.825-1.121-5.276-2.814
		C768.178,843.537,779.352,847.997,775.433,853.753z"/>
	<path fill-rule="evenodd" clip-rule="evenodd" fill="#FFFFFF" d="M220.949,874.861c4.803,5.869,13.789,7.557,23.573,8.445
		c-4.805,5.734-8.001,19.442-18.648,14.774C230.657,888.046,217.932,884.216,220.949,874.861z"/>
	<path fill-rule="evenodd" clip-rule="evenodd" fill="#FFFFFF" d="M266.686,880.49c-1.709,7.12,2.356,12.967,7.037,13.02
		c8.083,0.09,11.027-13.743,19.702-13.02c0.181,1.51-1.034,3.159-1.759,4.574c-5.674,11.087-7.41,29.186-17.943,35.888
		c-1.5-6.519-4.645-13.12-13.018-11.61c-1.052-8.718,5.4-10.938,4.574-19c-0.559-5.454-8.198-5.016-8.795-9.147
		c-0.228-1.577,0.888-3.551,1.407-3.87C261.309,875.233,262.997,881.327,266.686,880.49z"/>
	<path fill-rule="evenodd" clip-rule="evenodd" fill="#FFFFFF" d="M693.104,878.028c8.337,8.903,10.136,24.344,15.833,35.887
		C694.056,911.631,691.706,895.481,693.104,878.028z"/>
	<path fill-rule="evenodd" clip-rule="evenodd" fill="#FFFFFF" d="M647.718,900.898c-3.235,12.587,10.511,13.731,10.555,25.329
		c-1.064,0.54-3.689-3.301-4.924-4.924c-6.767-5.55-13.105-11.522-14.426-22.518c0-0.235,0-0.47,0-0.705
		C642.948,896.567,645.363,899.584,647.718,900.898z"/>
	<path fill-rule="evenodd" clip-rule="evenodd" fill="#FFFFFF" d="M680.088,904.063c0.381,0.087,0.238,0.701,0.703,0.704
		c-1.421,2.919-3.499,5.178-8.093,4.925C671.944,904.599,679.388,907.703,680.088,904.063z"/>
	<path fill-rule="evenodd" clip-rule="evenodd" fill="#FFFFFF" d="M348.663,906.878c4.77,0.719,3.394,5.943,6.685,8.092
		c6.347,4.146,15.053-1.259,21.11-2.462c2.099,7.576-6.22,10.29-14.074,10.204c0.833,1.438,4.055,4.87,2.462,8.794
		c-4.703,0.704-6.129-3.819-10.203-2.812c-4.571,1.125-4.371,15.115,0.704,16.183c4.356,0.916,11.295-3.942,16.184-6.685
		c8.357-4.688,18.699-9.417,28.498-3.52c-0.885,10.609-2.577,20.41-4.221,30.258c-7.436-4.233-1.803-16.218-1.758-24.276
		c-6.667-6.248-18.318-2.25-24.629,2.814c-2.925,2.348-7.313,6.918-7.389,8.795c-0.332,8.202,18.729,7.018,19.351,14.074
		c-11.666-3.231-25.526-7.308-37.997-10.906c4.052-6.356,9.043-24.151,1.055-29.905C345.223,918.685,348.881,914.72,348.663,906.878
		z"/>
	<path fill-rule="evenodd" clip-rule="evenodd" fill="#FFFFFF" d="M587.908,927.635c3.144,14.527-0.156,33.934-10.556,39.055
		c-3.967,1.953-8.564,0.636-11.963-1.407c-2.24-1.35-4.068-4.082-5.98-4.222c-6.526-0.48-5.563,11.412-2.815,14.073
		c-4.313,0.143-6.51,2.403-11.257,2.11c3.028-12.691-5.356-18.361-4.575-30.961c2.14,0.681,4.575,0.009,4.575-2.463
		c-0.637-0.95-1.292,1.028-2.815,0.353c-4.576-4.184-3.496-14.525,2.463-15.479c6.918-1.111,9.963,5.179,14.776,7.388
		c1.927-2.467,4.543-5.025,4.223-8.796c-0.704-8.266-16.738-7.224-25.332-8.795c-0.586-0.88,0.866-1.929,1.408-2.466
		c13.194-13.04,33.641,3.871,31.663,22.519c-0.367,3.476-3.078,5.801-3.166,8.443c-0.16,4.889,5.538,6.032,8.796,3.519
		C583.092,946.078,581.653,930.694,587.908,927.635z"/>
	<path fill-rule="evenodd" clip-rule="evenodd" fill="#FFFFFF" d="M685.716,924.47c4.774,2.497,6.675,7.868,8.796,13.019
		C687.754,937.183,683.515,931.49,685.716,924.47z"/>
	<path fill-rule="evenodd" clip-rule="evenodd" fill="#FFFFFF" d="M477.433,937.839c-7.812,0.158-20.328-0.481-16.888,9.147
		c1.607,4.498,9.99,3.653,9.851,9.501c-7.171,0.92-11.809,4.372-14.425,9.85c-5.761-7.132-7.58-22.906-4.574-34.479
		C460.195,933.732,471.897,932.702,477.433,937.839z"/>
	<path fill-rule="evenodd" clip-rule="evenodd" d="M182.599,194.423c-6.652,5.661-13.106,11.521-21.461,15.481
		C166.486,204.728,170.69,191.896,182.599,194.423z"/>
	<path fill-rule="evenodd" clip-rule="evenodd" d="M450.342,22.73c-2.464,2.02-3.333,10.848-0.352,13.017
		c2.012-6.9,8.427-9.398,13.722-13.017C459.255,22.73,454.798,22.73,450.342,22.73z M539.354,75.504c2.933,0,5.865,0,8.797,0
		c2.823-11.971,21.963-15.621,34.128-9.851c3.061,7.105-2.245,13.852-0.704,21.461c10.591-7.001,9.914-27.144,9.851-43.626
		c-1.871,6.572-5.244,11.644-9.499,15.832c-0.467-2.576-4.907-1.025-7.036-1.055c-2.357-5.031-0.545-14.231-3.168-19
		c-1.429,1.553-6.808,1.758-7.388,4.574c-0.723,3.501,3.772,6.879,3.167,10.204c-0.707,3.881-6.922,6.476-9.852,7.74
		c-4.768,2.058-8.108,3.124-14.073,3.519c-2.465-14.779,9.326-15.301,14.425-22.517c-4.177-5.558-9.088-10.38-15.48-13.722
		C544.579,46.337,538.402,58.186,539.354,75.504z M449.99,47.71c0.138,3.731-0.634,8.375,1.407,10.203
		c6.679-0.124,14.163,0.559,14.425-5.982c-2.287-0.558-6.679,1.977-7.037-1.055c8.9-2.357,11.985-10.531,17.24-16.536
		c-2.232-0.114-2.3-2.391-4.223-2.815C466.293,38.278,462.869,50.647,449.99,47.71z M377.865,50.524
		c7.101-2.166,17.021-1.509,19-8.796c-5.873,0.108-8.07,3.893-14.778,3.167c-2.06-2.514-0.994-8.153-4.925-8.796
		c-0.235,0-0.469,0-0.704,0C376.215,41.619,376.73,46.381,377.865,50.524z M372.235,68.116c-4.219-0.232-7.337,0.637-8.796,3.166
		c1.927,2.53,6.045,2.868,8.796,4.574c-1.201,3.96-2.969,7.35-4.222,11.258c5-0.708,6.715,3.509,10.907,2.464
		c-1.109-3.776-4.861-7.519-3.167-12.667c2.304-6.999,13.424-8.775,22.869-8.795c0-1.876,0-3.753,0-5.629
		c-6.921-3.278-13.314,3.703-20.406,2.463c1.49-3.265,1.388-9.366,0-12.666c-11.132,4.287-19.997-2.617-23.925-9.852
		C352.172,57.722,369.08,56.938,372.235,68.116z M661.44,77.967c1.718-1.369,3.431-1.486,5.277-3.166
		c1.412-11.733-1.388-22.302-12.665-22.518c-0.974-0.151-0.331,1.312-1.055,1.408c1.29,6.345,8.598,6.94,8.09,14.073
		c-0.585,8.198-16.004,12.203-10.556,23.572C655.813,88.474,656.891,81.592,661.44,77.967z M464.766,74.097c2.347,0,4.692,0,7.037,0
		c0.76-11.438,7.797-16.597,17.24-19.351C473.699,50.042,468.391,63.651,464.766,74.097z M404.252,95.911
		c-0.278-3.146,1.364-6.967-0.704-8.796C399.545,87.034,401.167,96.394,404.252,95.911z M684.309,122.298
		c3.852,0.605,4.62,4.294,8.796,4.574c1.426-4.439,5.173-6.555,4.574-13.018C692.357,107.676,681.385,113.058,684.309,122.298z
		 M269.501,119.483c-0.324-3.545-1.299-6.441-5.63-5.981C263.709,117.467,265.713,120.577,269.501,119.483z M774.026,119.483
		c2.343,0,4.69,0,7.036,0c0.887-3.038-0.619-6.304-4.224-5.981C777.858,117.452,774.241,116.767,774.026,119.483z M278.296,139.89
		c4.456,0,8.914,0,13.37,0c0.006-6.283,7.679-8.408,4.926-15.129c-6.113,0.159-7.148,6.28-13.018,4.926
		c-4.004-0.924-3.901-7.191-9.5-7.037C273.657,130.222,276.005,135.027,278.296,139.89z M246.281,126.872
		c0.081,2.042,2.267,3.267,4.222,4.221C256.008,126.478,246.009,120.016,246.281,126.872z M234.318,132.853
		c-0.296,4.266,5.494,7.358,7.037,2.815C239.171,134.756,237.849,131.26,234.318,132.853z M760.656,138.834
		c-3.065,6.628,4.125,10.443,10.202,11.258C771.404,142.394,766.59,140.055,760.656,138.834z M756.081,146.222
		c-3.255,5.188-5.767,11.12-8.443,16.889c2.766,0.167,3.471,2.393,6.686,2.11C753.418,158.534,762.252,148.702,756.081,146.222z
		 M770.858,184.571c-2.587-9.459-0.424-18.937,5.98-21.46c9.343-3.683,18.157,3.75,18.648,12.314
		c0.231,4.015-1.205,11.405-4.926,13.72c-4.816,3-11.649-0.983-17.591,0.353c3.107,5.26,13.43,7.293,22.867,6.333
		c4.34-7.391,1.686-21.771,4.224-30.961c-3.73-7.763-13.3-9.687-24.277-10.203C770.081,159.966,762,178.595,770.858,184.571z
		 M132.288,197.238c7.683-0.07,9.855-9.945,16.887-8.796c2.035,0.333,4.504,3.402,6.333,4.926c2.201,1.833,4.452,3.365,5.629,5.628
		c-6.345,9.37-16.81,14.621-27.091,20.055c1.971,1.07-0.592,5.13,1.056,5.981c4.534-3.602,11.443-8.221,20.054-7.036
		c2.274,0.312,4.125,1.605,6.333,2.462c9.316-4.58,16.355-16.478,30.258-13.019c4.834-12.776-7.542-18.02-13.37-23.22
		c-0.987-0.882-1.524-2.756-2.815-2.111c-1.428,4.168-8.06,10.771-11.962,10.554c-1.733-0.096-5.156-2.901-6.685-4.222
		c-3.833-3.312-8.078-8.859-10.556-11.962c2.498-5.831,10.947-7.583,12.667-13.017C143.965,168.571,140.463,185.241,132.288,197.238
		z M810.968,185.275c2.564-0.367,2.879-2.984,3.869-4.925C812.579,175.271,808.659,181.987,810.968,185.275z M873.594,216.236
		c-0.416,6.856-7.103,7.44-13.018,8.795c0.908,6,6.938,2.48,9.501,7.038c2.337,4.159-3.465,15.364,2.462,16.184
		c2.495,0.345,5.735-2.697,6.333-4.574c1.685-5.306-3.266-9.745-3.871-15.48c-0.459-4.345,1.416-6.644,2.111-10.906
		C876.358,216.52,875.402,215.951,873.594,216.236z M840.171,242.975c4.314,2.645,11.599-7.183,13.018,0
		c1.197,6.067-9.647,13.612-0.353,15.481c3.361-2.384,3.08-8.413,8.795-8.444c6.585,9.016,12.792,18.406,19.351,27.444
		c-1.524-23.339-17.286-32.439-26.738-47.849C850.484,234.768,840.983,236.04,840.171,242.975z M895.407,260.215
		c-0.74-6.811,2.703-16.509-2.815-18.999C890.356,247.125,888.682,258.096,895.407,260.215z M79.161,270.418
		c0.802,13.654-3.331,28.853-16.536,23.924c-0.989,4.172-4.399,5.923-4.223,11.259c4.3,1.565,8.14,3.589,13.371,4.222
		c0.82-16.43,16.076-20.265,13.017-39.405C82.914,270.418,81.038,270.418,79.161,270.418z M102.734,274.992
		c-4.05,15.536-13.048,26.123-18.999,39.757c4.236,1.276,7.774,3.25,12.667,3.87c3.5-10.954,18.537-15.358,32.367-11.611
		c-0.438-4.956-6-4.788-4.573-11.609c2.871-2.216,8.391-3.114,11.961-3.519c-1.423-4.088-6.806-4.218-10.203-6.333
		c0.214,7.881-20.044,10.267-20.406,2.463c-0.198-4.264,5.047-5.8,5.629-10.203C108.222,277.068,106.185,274.13,102.734,274.992z
		 M913.351,352.747c1.669-0.146,0.876,2.171,1.759,2.814c3.656-1.152,7.557-2.061,11.259-3.167
		c0.052-6.971-5.631-8.207-4.575-16.184c2.63-6.049,9.508-7.851,13.018-13.018C918.031,316.988,919.548,343.535,913.351,352.747z
		 M888.371,353.802c2.113,4.217,5.534,7.131,12.665,6.333c-1.738-12.803,0.441-29.527-9.852-33.775
		C889.735,335.448,894.229,348.182,888.371,353.802z M935.516,349.58c5.361,0.201,8.788-1.533,12.666-2.815
		c-1.033-5.066-3.484-8.714-7.038-11.259C942.063,342.993,937.979,345.476,935.516,349.58z M45.737,364.356
		c9.647,2.355,16.551-3.755,19.703-10.203C56.835,355.517,50.15,358.802,45.737,364.356z M75.291,397.781
		c5.5-0.338,7.89,2.431,13.722,1.759c-4.02-6.651,0.757-22.101-7.388-24.628C78.033,381.054,80.675,393.431,75.291,397.781z
		 M56.644,392.502c-4.349-3.859-6.21-10.208-12.313-12.313C48.284,384.234,48.541,393.773,56.644,392.502z M935.163,395.669
		c1.203,4.008,3.265,6.671,5.629,10.203c1.695,2.531,6.015,7.239,5.981,10.204c-0.07,6.363-15.205,12.837-5.63,20.054
		c4.82-6.756,6.812-19.417,19.705-15.832c1.875,2.804-1.207,8.438,2.11,9.851c7.746-12.67-3.559-24.997-2.816-39.405
		C950.789,391.357,941.354,391.892,935.163,395.669z M924.961,417.131c-0.79,5.729-4.812,8.629-8.093,11.962
		c17.417,1.777,15.14-24.143,8.093-32.368c-2.232,0.229-5.392-0.464-7.037,0.351C921.698,401.574,926.094,408.898,924.961,417.131z
		 M54.181,457.943c-0.162-4.177-3.878-4.8-7.388-5.629C46.34,456.873,50.896,460.444,54.181,457.943z M46.793,468.499
		c-2.582,2.877-1.185,9.123,2.11,10.203C53.603,476.792,50.104,469.612,46.793,468.499z M913.351,480.109
		c-1.69,10.11-6.636,27.141,0.703,34.832c2.596-3.504,6.921-5.277,11.26-7.036c7.581,3.91,8.074,14.911,19.703,14.777
		c0.016-7.769,3.009-21.535-5.632-21.814c-0.532,4.034,1.814,9.501-1.056,11.608c-3.896-3.69-12.912-8.604-17.238-13.72
		c-6.312-7.46-1.275-13.959,6.685-15.832c10.711,6.529,19.287,15.192,23.573,28.146c6.195,2.716,14.261,3.564,17.591,9.148
		c-1.157-23.002-27.542-20.775-32.368-40.109C928.83,480.109,921.091,480.109,913.351,480.109z M73.18,540.976
		c0.329-8.584,5.76-12.065,7.037-19.703c-5.717,2.162-13.685,1.293-19.702,0C65.444,527.134,69.002,534.362,73.18,540.976z
		 M43.627,523.384c-3.052,12.706,7.509,22.765,1.407,33.072c7.537,2.212,11.683,10.717,22.516,7.388
		c1.657-5.732,2.362-12.416,2.815-19.35c-11.786-2.529-29.456-5.537-22.166-22.165C46.659,522.664,43.581,521.463,43.627,523.384z
		 M910.535,562.086c-0.018,0.449-0.45,0.486-0.352,1.056c-0.005,8.479-3.635,14.082-6.685,19.351
		c-2.358,4.076-6.259,8.688-3.519,14.424c2.022-6.186,3.921-15.315,11.609-14.073c3.324,0.538,9.342,7.267,8.796,11.61
		c-0.439,3.526-4.521,5.109-5.628,8.794c4.997,3.44,9.591-1.551,14.072-2.812c2.284,1.626,6.315,2.847,4.926,7.036
		c5.425-0.497,8.567,1.285,13.018,1.758c-0.102-8.342-7.166-9.72-10.202-15.126c2.95-6.708-1.578-18.154,1.055-24.98
		c0.675-1.753,2.424-2.492,2.463-4.222c-5.741-0.518-11.771-2.078-17.591-1.407c1.306,1.391,1.995,3.399,2.463,5.629
		c-2.044,1.709-3.208,4.298-7.741,3.517c-1.709-2.773-1.709-7.777,0-10.553C914.991,562.086,912.764,562.086,910.535,562.086z
		 M49.959,651.451c14.584-3.527,6.058-26.997-3.166-30.259C48.074,630.883,55.701,641.227,49.959,651.451z M73.18,645.822
		c7.33-0.88,14.61-1.811,18.647-5.982c-5.158-0.497-7.181,2.675-11.258,1.759c-5.914-1.33-7.439-10.12-11.962-13.018
		C65.244,635.581,71.521,640.496,73.18,645.822z M916.165,685.577c0.644-6.795-7.559-5.313-7.389-11.963
		c0.122-4.721,7.957-10.93,13.017-8.091c3.308,1.853,0.925,9.105,4.575,11.257c1.455-2.585,2.482-4.78,4.573-7.389
		c1.618-2.016,5.393-4.243,5.63-6.685c0.295-3.035-3.306-6.932-5.63-9.146c-7.603-7.245-22.967-9.853-32.72-12.314
		C901.123,659.104,895.102,685.882,916.165,685.577z M83.735,692.263c-0.855-1.413-3.161-3.701-4.925-3.87
		c-2.387-0.23-8.405,2.709-8.445,4.572c0.004-0.194,1.649,1.919,1.76,2.111c3.973,6.924-5.472,10.328-7.741,16.185
		c3.05,4.456,5.688,9.323,7.389,15.128c26.291,9.764,49.186-7.295,65.44-17.238c-4.612-5.005-5.773-13.461-14.073-14.777
		c-0.037,3.88,3.682,5.935,2.814,9.852c-0.433,1.952-4.218,5.519-5.981,7.389c-6.611,7.013-16.886,12.897-27.795,13.37
		C84.829,720.086,88.382,699.941,83.735,692.263z M881.334,732.369c0.742-1.269,3.979-5.204,3.869-5.98
		c-0.302-2.136-7.637-4.942-10.906-5.276c-7.61-0.779-17.232,1.272-22.518-0.353c0.062,3.146-2.716,3.995-1.76,7.037
		c10.836,3.748,17.985-6.688,27.795-2.813c-2.521,3.532-5.029,13.53-9.146,14.775c-3.374,1.02-8.51-0.925-11.609-2.109
		c-3.483-1.333-6.427-3.258-9.853-3.871c-2.444,10.932,10.607,9.298,17.591,11.961c-1.261,1.798-4.551,9.698,0.705,9.854
		c4.302,0.126,3.998-8.689,8.795-8.798c1.745-0.038,6.299,1.555,6.685,4.575c0.34,2.648-2.024,4.622-3.167,5.98
		c-4,4.763-7.865,7.54-13.369,10.202c-5.792-3.622-11.127-9.465-21.462-7.387c0.448,3.285,2.87,5.729,5.63,7.387
		c2.43,1.461,6.969,4.012,9.148,4.223c3.201,0.31,8.32-2.225,11.961-3.87c11.056-5.002,20.165-13.634,23.924-23.573
		c-0.716,0.004-1.146-3.297-1.405-4.924c-5.53-0.936-11.729,3.35-14.427-1.057C879.16,736.511,879.825,734.949,881.334,732.369z
		 M155.508,782.683c6.847,10.842,10.081,29.836,25.332,32.017c-1.317-2.532-3.42-4.608-5.277-7.038
		c-5.815-7.61-10.148-16.901-14.425-25.683c5.569-5.498,13.65-23.545,2.814-28.852C163.592,765.435,160.621,775.13,155.508,782.683z
		 M140.027,770.367c-8.772-1.04,0.623,7.717,0.704,10.204c0.153,4.649-5.414,4.158-5.278,9.499
		C147.513,795.941,148.989,771.431,140.027,770.367z M151.287,806.606c5.153,3.995,5.021,13.274,6.685,20.759
		c6.807-0.284,8.151-7.724,7.389-14.425C160.608,811.061,157.617,805.756,151.287,806.606z M787.747,818.919
		c-8.146,0.511-15.441-2.37-20.759-0.702c-3.952,1.24-6.324,5.163-5.981,8.796c2.992-0.17,5.314-2.104,8.444-1.056
		c-0.338,18.985,24.48,12.813,24.98,30.962c3.62,0.774,3.342-5.008,6.686-5.98c4.242-1.236,9.007,1.414,9.498,4.924
		c0.305,2.158-1.224,2.498-0.702,4.222c6.357-0.208,5.985-7.147,11.963-7.738c-2.122-6.089-4.456-11.967-4.224-20.408
		c2.718-0.566,5.598-0.971,7.388-2.462c-7.655-11.533-19.545,6.229-11.61,14.776c-4.31,3.576-15.359,2.996-17.592-1.76
		c-1.447-3.086-0.957-7.839-0.702-10.905c0.827-9.956,7.714-15.254,16.535-16.185C803.971,808.777,798.233,818.266,787.747,818.919z
		 M228.689,863.604c6.978,11.836,28.496,5.355,32.016-5.279c-1.955,0.078-1.304-2.448-1.407-4.223
		c-9.499-0.232-6.351,12.18-17.591,10.204c-6.001-9.458,8.65-10.57,5.98-20.055c-1.767-0.812-2.399-2.759-4.573-3.167
		C240.406,850.693,232.797,855.398,228.689,863.604z M770.156,850.938c0.451,1.693,2.517,2.675,5.276,2.814
		C779.352,847.997,768.178,843.537,770.156,850.938z M225.874,898.081c10.646,4.668,13.843-9.04,18.648-14.774
		c-9.784-0.889-18.77-2.576-23.573-8.445C217.932,884.216,230.657,888.046,225.874,898.081z M257.891,877.324
		c-0.52,0.319-1.635,2.293-1.407,3.87c0.597,4.132,8.237,3.693,8.795,9.147c0.827,8.062-5.625,10.282-4.574,19
		c8.373-1.51,11.518,5.092,13.018,11.61c10.533-6.702,12.269-24.801,17.943-35.888c0.726-1.415,1.94-3.064,1.759-4.574
		c-8.675-0.724-11.619,13.109-19.702,13.02c-4.681-0.053-8.747-5.899-7.037-13.02C262.997,881.327,261.309,875.233,257.891,877.324z
		 M708.938,913.915c-5.697-11.543-7.496-26.983-15.833-35.887C691.706,895.481,694.056,911.631,708.938,913.915z M638.923,898.081
		c0,0.235,0,0.47,0,0.705c1.32,10.995,7.659,16.968,14.426,22.518c1.234,1.623,3.859,5.464,4.924,4.924
		c-0.044-11.598-13.79-12.742-10.555-25.329C645.363,899.584,642.948,896.567,638.923,898.081z M672.698,909.692
		c4.594,0.253,6.672-2.006,8.093-4.925c-0.465-0.003-0.322-0.617-0.703-0.704C679.388,907.703,671.944,904.599,672.698,909.692z
		 M344.441,925.525c7.988,5.754,2.997,23.549-1.055,29.905c12.471,3.599,26.331,7.675,37.997,10.906
		c-0.621-7.057-19.682-5.872-19.351-14.074c0.076-1.877,4.464-6.447,7.389-8.795c6.311-5.064,17.961-9.062,24.629-2.814
		c-0.045,8.059-5.677,20.043,1.758,24.276c1.645-9.848,3.336-19.648,4.221-30.258c-9.799-5.897-20.14-1.168-28.498,3.52
		c-4.889,2.742-11.828,7.601-16.184,6.685c-5.074-1.067-5.274-15.058-0.704-16.183c4.073-1.007,5.5,3.517,10.203,2.812
		c1.592-3.924-1.629-7.356-2.462-8.794c7.854,0.086,16.173-2.628,14.074-10.204c-6.058,1.203-14.764,6.608-21.11,2.462
		c-3.291-2.148-1.916-7.373-6.685-8.092C348.881,914.72,345.223,918.685,344.441,925.525z M577.353,950.505
		c-3.258,2.514-8.956,1.37-8.796-3.519c0.088-2.643,2.799-4.968,3.166-8.443c1.978-18.647-18.469-35.559-31.663-22.519
		c-0.542,0.537-1.994,1.586-1.408,2.466c8.594,1.571,24.628,0.529,25.332,8.795c0.32,3.771-2.296,6.329-4.223,8.796
		c-4.813-2.209-7.858-8.499-14.776-7.388c-5.959,0.954-7.039,11.296-2.463,15.479c1.523,0.676,2.179-1.303,2.815-0.353
		c0,2.472-2.436,3.144-4.575,2.463c-0.781,12.6,7.604,18.27,4.575,30.961c4.747,0.293,6.943-1.968,11.257-2.11
		c-2.748-2.661-3.711-14.554,2.815-14.073c1.912,0.14,3.74,2.872,5.98,4.222c3.398,2.043,7.996,3.36,11.963,1.407
		c10.399-5.121,13.699-24.527,10.556-39.055C581.653,930.694,583.092,946.078,577.353,950.505z M694.512,937.488
		c-2.121-5.15-4.021-10.521-8.796-13.019C683.515,931.49,687.754,937.183,694.512,937.488z M451.397,931.857
		c-3.006,11.573-1.188,27.348,4.574,34.479c2.616-5.478,7.254-8.93,14.425-9.85c0.139-5.848-8.244-5.003-9.851-9.501
		c-3.44-9.629,9.076-8.989,16.888-9.147C471.897,932.702,460.195,933.732,451.397,931.857z"/>
</g>
<g>
	<path fill="none" stroke="#000000" stroke-width="4" d="M736.258,501.222c0,174.704-141.626,316.329-316.329,316.329
		S103.601,675.926,103.601,501.222"/>
	<circle fill="none" stroke="#000000" stroke-width="4" cx="500" cy="499.767" r="396.399"/>
	<path fill="none" stroke="#000000" stroke-width="4" d="M263.742,509.624c0-174.703,141.625-316.328,316.328-316.328
		c174.703,0,316.329,141.625,316.329,316.328"/>
	<circle fill="none" stroke="#000000" stroke-width="4" cx="500.494" cy="501.222" r="235.764"/>
	<path fill="none" stroke="#000000" stroke-width="4" d="M503.707,737.479c-174.704,0-316.329-141.624-316.329-316.328
		c0-177.337,141.624-316.328,316.329-316.328"/>
	<path fill="none" stroke="#000000" stroke-width="4" d="M498.27,263.976c174.703,0,316.329,141.625,316.329,316.328
		S672.973,896.633,498.27,896.633"/>
</g>
<circle fill-rule="evenodd" clip-rule="evenodd" fill="none" stroke="#000000" stroke-width="4" cx="500" cy="500" r="497.833"/>
</svg>
