<?xml version="1.0" encoding="utf-8"?>
<!-- Generator: Adobe Illustrator 14.0.0, SVG Export Plug-In . SVG Version: 6.00 Build 43363)  -->
<!DOCTYPE svg PUBLIC "-//W3C//DTD SVG 1.1//EN" "http://www.w3.org/Graphics/SVG/1.1/DTD/svg11.dtd">
<svg version="1.1" id="Layer_1" xmlns="http://www.w3.org/2000/svg" xmlns:xlink="http://www.w3.org/1999/xlink" x="0px" y="0px"
	 width="1000px" height="1000px" viewBox="0 0 1000 1000" enable-background="new 0 0 1000 1000" xml:space="preserve">
<g id="XMLID_2_">
	<g>
		<path d="M398.266,938.204c-0.185-5.078,6.785-6.103,10.242-8.876c2.375,6.686-6.913,12.006-2.39,18.776
			C404.197,947.493,398.379,941.49,398.266,938.204z"/>
		<path d="M131.979,679.429c-9.545-6.031-19.929,2.987-17.07,14.68c8.194,0.684,12.291-2.73,17.07-5.462
			C131.979,685.574,131.979,682.501,131.979,679.429z M105.351,695.815c4.225-4.225,3.101-12.403,0-17.069
			c1.735-0.085,4.239-1.209,5.462-0.683c1.238,0.241,1.224,1.735,1.366,3.072c5.989-5.277,15.263-10.228,24.239-13.655
			c2.461,7.667,0.256,20,8.193,22.19c-6.913,4.95-6.999,33.414-20.825,25.945c4.125-5.206,13.172-5.49,11.266-16.728
			c-0.911-1.707-3.77-1.466-4.78-3.073c-5.633,1.536-9.929,4.41-10.924,10.583C115.792,701.762,113.302,696.058,105.351,695.815z"/>
		<path d="M271.609,111.011c4.922,4.41,7.88,10.782,13.997,13.997c-3.556,6.913-10.355,10.583-15.704,15.704
			c-1.622,5.434-1.437,12.674-8.193,12.973c-0.128-8.449-2.532-17.126-10.242-15.704c-3.542,0.654-5.775,8.407-9.218,6.145
			c-2.148-1.408,0.029-6.159,1.024-7.51c1.522-2.063,10.185-9.346,14.68-8.876c2.802,0.285,4.111,4.154,6.145,4.438
			c5.107,0.711,7.269-5.092,11.607-5.462C275.009,120.655,257.299,113.884,271.609,111.011z"/>
		<path d="M95.109,623.44c8.649,2.361,3.983,11.835,0,16.046c-10.014,0.042-23.869-8.962-28.335,3.072
			c-3.158-13.187,16.145-11.92,26.97-11.266C95.764,630.24,94.953,626.356,95.109,623.44z"/>
		<path d="M105.351,319.943c4.68-10.512,13.03-23.286,8.535-38.578c7.966,7.283,11.01,22.447,22.532,27.312
			c5.946-2.361,4.922-11.693,5.462-19.459c4.21,0.683,6.771,5.534,5.804,11.266c-1.053,6.23-6.629,17.368-10.583,18.094
			c-1.124,0.199-2.874-0.313-3.755-0.683c-5.804-2.461-7.881-11.124-10.925-16.387c-6.102,4.367-7.411,13.528-11.607,19.801
			C109.434,320.412,107.414,320.156,105.351,319.943z"/>
		<path d="M101.937,472.204c2.333,9.403-10.185,6.871-18.094,7.169c-7.184-6.33-2.646-20.569,4.097-23.897
			c1.963,0.085,2.006,2.091,3.755,2.39c-7.027,1.821-10.598,20.868,1.024,19.118C96.731,476.386,96.261,471.749,101.937,472.204z"/>
		<path d="M42.535,522.047c0.455-3.158,5.633-0.726,9.559-1.365c0.498,2.361-2.333,6.045-1.024,9.218
			c-1.351,0.44-3.286-1.338-4.779-3.073C45.522,525.931,42.492,522.389,42.535,522.047z"/>
		<path d="M184.554,199.09c5.192-1.408,5.704-7.497,11.266-8.535c4.253,2.888,5.548,11.294,3.073,17.069
			c-3.627-1.408-4.723-6.671-4.097-11.266c-3.357,0.854-4.068,4.353-8.535,4.097c1.01,3.77,1.665,7.895,1.366,12.973
			c-1.821,1.024-3.656,2.034-5.121,3.414c1.181-13.144-0.924-28.265-14.338-29.019C172.932,179.887,183.458,192.917,184.554,199.09z
			"/>
		<path fill="#050505" d="M928.789,430.895c4.055,0,7.824,1.864,7.17,5.462c-1.607,0.555-4.325,0-5.121,1.366
			C929.43,436.173,928.462,434.181,928.789,430.895z"/>
		<path d="M503.073,957.322c0.711,1.224,0.171,3.698,0.341,5.462c-5.291-0.412-11.294,1.152-16.728,1.707
			C488.877,958.83,496.103,958.204,503.073,957.322z"/>
		<path fill="#050505" d="M905.916,342.816c-4.424-2.062-1.778-7.752,0-10.924c2.532,1.821,4.48,5.96,4.097,9.559
			C908.292,341.55,905.845,340.924,905.916,342.816z"/>
		<path fill="#050505" d="M942.786,581.791c0.754-5.078-2.574-8.479-8.534-8.535c-0.455,7.439-4.638,12.831-3.073,21.166
			C933,590.254,941.947,587.381,942.786,581.791z M945.859,563.697c10.099,4.011,1.251,26.97,12.631,29.701
			c-0.654,5.035-1.621,9.758-3.072,13.997c-10.312-2.319-19.985-5.277-32.091-5.804c3.243-7.568,3.713-17.909,4.097-28.336
			C932.26,568.761,944.948,572.118,945.859,563.697z"/>
		<path d="M558.72,936.156c0.769,10.568,14.879,12.631,11.267,24.238c-9.83,0.726-12.532-5.676-19.801-7.511
			c0.057-11.664-3.329-19.886-4.097-30.725c7.468,3.328,18.463,4.623,28.335,2.73C571.878,931.334,562.518,930.964,558.72,936.156z"
			/>
		<path d="M902.844,645.631c-1.963-1.38,2.176-4.125,0.341-6.486c3.314-1.607,5.775,2.404,8.877,1.024
			C911.293,642.942,903.299,641.421,902.844,645.631z"/>
		<path d="M654.31,95.648c5.918-7.283,9.772-16.629,13.997-25.604c3.784,2.816,7.682,5.519,12.974,6.828
			c-1.38,5.59-5.406,15.533,1.023,18.435c9.246-3.983,20.91-17.71,33.115-8.535c-1.978,15.647-12.83,34.765-30.726,25.946
			c10.029-0.598,21.309-4.14,24.922-11.607c2.049-4.225,0.882-10.384-3.072-12.973c-12.162-2.916-12.66,13.144-19.801,14.338
			c-8.165,1.366-11.664-9.488-18.436-9.9C662.546,92.22,659.9,100.769,654.31,95.648z"/>
		<path fill="#050505" d="M866.314,266.344c-0.071,8.72,1.764,15.533,10.925,15.021
			C876.557,273.399,874.323,266.984,866.314,266.344z M847.538,239.033c5.562-5.334,19.132-8.776,26.97-3.072
			c-0.981,17.709,3.471,29.985,7.169,43.015c-2.56,4.154-10,5.249-12.973,7.852c-5.875-2.561-6.103-14.139-12.631-15.021
			c-5.093-0.683-4.766,3.968-9.9,4.097c-1.181-9.488,8.733-7.881,12.631-12.291C855.148,256.686,848.335,249.958,847.538,239.033z
			 M856.414,241.422c2.361,2.589,5.903,7.312,3.072,11.949c6.401,2.205,10.654-0.996,10.925-6.145
			C870.881,238.35,861.748,234.168,856.414,241.422z"/>
		<path fill="#050505" d="M927.082,398.463c4.651,2.632,2.931,13.457,5.463,17.07c-0.896,2.176-3.371,2.774-6.486,2.731
			C925.873,411.407,921.336,402.432,927.082,398.463z"/>
		<path fill="#050505" d="M941.421,478.007c-4.225,10.341-0.085,22.902,5.462,28.677c-2.66,4.964-1.977,13.271-8.876,13.997
			c-1.835-1.352-0.427-5.946-1.365-8.193c-9.744-0.896-13.072,10.54-24.58,6.827c9.771-4.907,17.78-11.578,25.263-18.776
			c-1.209-6.871-6.401-9.758-11.266-12.973C928.135,481.336,933.512,478.406,941.421,478.007z"/>
		<path fill="#050505" d="M894.65,402.56c4.736-0.839,8.848-2.304,13.997-2.731c-1.863,6.444-11.252,5.363-11.267,13.656
			C895.077,411.237,895.418,406.343,894.65,402.56z"/>
		<path d="M910.354,667.139c-0.058-5.747-5.505-6.103-11.607-5.804c-0.583,3.599,0.583,8.08,3.414,8.876
			C905.318,671.107,907.495,667.992,910.354,667.139z M934.593,645.973c7.895,11.209-5.59,18.891-15.021,23.556
			c-7.78,3.841-16.073,7.027-22.531,8.876c-2.931-2.076-3.343-6.686-6.486-8.534c2.446-5.86,6.97-9.645,8.193-16.729
			c4.466,6.529,26.813,8.336,25.604-3.414c-0.257-2.461-2.305-3.755-2.39-5.804C926.215,642.26,929.174,646.655,934.593,645.973z"/>
		<path d="M159.291,207.966c-0.455-4.424-3.997-11.692,4.097-10.242c3.115,3.201,3.712,12.447,1.365,17.07
			c-5.306,2.162-15.376,2.503-18.435-2.048C147.684,208.194,155.365,209.958,159.291,207.966z"/>
		<path fill="#050505" d="M795.305,183.044c3.4-3.584,10.342-1.536,12.29,2.048c3.414-0.868,6.729-3.841,5.804-7.852
			c-0.512-2.248-2.73-2.062-3.755-4.097c6.302-3.144,9.402,4.011,15.021,4.779c-2.902,4.95-8.08,7.625-11.267,12.291
			C808.292,186.899,798.719,188.051,795.305,183.044z"/>
		<path d="M105.351,373.2c1.764,1.124,4.95,2.746,5.121,5.121c0.128,1.835-3.172,6.686-4.779,9.218
			c-3.115,4.936-6.885,9.943-12.29,10.583c-1.665-4.466,2.475-6.785,4.779-9.218c3.385-3.584,7.212-7.582,7.169-14.68
			C105.351,373.883,105.351,373.542,105.351,373.2z"/>
		<path d="M411.58,79.944c1.493,6.828,3.115,10.071-1.707,15.021c-9.303,9.559-34.31,10.469-37.212-5.462
			c-6.003-0.355-8.947,3.912-13.997,3.414c-0.484-10.029,8.151-12.916,15.704-17.411c7.468-4.438,14.666-10.341,8.535-18.777
			c2.688-8.193,18.521-13.343,25.263-5.462C408.607,61.878,409.56,70.755,411.58,79.944z M391.096,83.358
			c-0.64,1.294-3.684,0.185-4.779,1.024c-1.109,4.239,5.391,2.774,6.486,2.39c7.482-2.674,8.777-17.724,15.363-21.508
			c-3.001-6.928-10.74-18.265-20.142-11.266c0.597,5.206,3.485,8.122,4.438,12.973c-2.062,4.765-9.573,5.889-8.876,12.29
			C385.463,77.483,391.978,78.365,391.096,83.358z"/>
		<path d="M488.052,902.699c1.039-1.01,3.485-0.611,5.462-0.683c2.446,5.064,2.432,12.589,4.097,18.436
			c2.148,0.213,3.784-0.086,4.78-1.024c2.603,6.003-0.029,14.723,1.023,21.85c-3.371-5.121-9.943-6.729-15.362-2.049
			c-5.562,4.794-10.156,14.879-15.704,18.094c-2.589-11.166,9.844-13.115,12.631-21.166c-4.58,0.028-9.544,0.44-11.266-2.39
			c0.27-1.778,1.223-2.874,1.365-4.78c5.135-0.981,12.447,3.613,17.07,0c-0.1-13.541-23.727-11.223-26.97-2.048
			c-6.43-12.19,13.599-13.656,24.921-12.29c0.811-1.579,0.796-5.69,0-8.193C489.474,904.521,488.379,903.852,488.052,902.699z"/>
		<path d="M867.68,742.245c-5.248-3.3-1.593-12.29,1.366-15.362c-1.722,0.1-4.168-0.526-4.097,1.365
			c-1.65-2.604,0.312-6.458,2.048-7.852c8.635-1.579,15.42,4.921,23.897,2.39c-0.071,2.773-4.225,4.424-4.779,7.852
			c-2.76-1.337-8.051-0.143-9.9-2.39C873.057,732.601,869.501,736.556,867.68,742.245z"/>
		<path d="M191.723,808.134c-1.266-8.705-9.9-14.324-19.801-10.242c0-2.275,0-4.552,0-6.827c5.704-0.114,12.461,0.854,11.607-5.804
			c13.329,1.294,25.007-10.299,35.164-1.707c-11.778,14.281-25.989,26.131-38.578,39.602
			C179.291,814.748,188.11,813.227,191.723,808.134z"/>
		<path d="M134.028,220.256c11.963-1.039,13.826,8.022,20.483,12.29c1.537,0.17,2.561-0.171,3.755-0.341
			c1.465,1.493,2.447,3.485,2.39,6.486C150.187,234.14,140.372,228.933,134.028,220.256z"/>
		<path d="M41.511,446.941c5.96-4.282,11.834-8.649,19.459-11.266C59.334,443.911,51.51,450.354,41.511,446.941z"/>
		<path fill="#050505" d="M913.085,482.445c2.262,0.583,3.471,2.219,5.804,2.731c0.242,5.363-5.932,4.31-7.169,8.193
			C908.292,490.426,914.337,487.495,913.085,482.445z"/>
		<path d="M378.465,920.452c5.391-5.533,3.869-17.98,4.097-28.677c-11.28-10.47-27.895,10.298-14.68,17.41
			c-1.437,0.157-3.713-0.525-3.755,1.024C365.99,916.384,369.333,922.657,378.465,920.452z M365.492,881.875
			c9.872-3.059,14.666,3.57,18.777,9.559c1.309,1.906,6.458,7.027,6.486,7.511c0.042,0.697-3.784,4.153-4.097,6.145
			c-1.394,8.977,10.939,16.316,5.804,26.629c-10.526-3.698-19.346-9.104-32.774-9.9
			C358.493,906.568,360.499,892.031,365.492,881.875z"/>
		<path d="M96.475,366.713c-13.926,2.688-16.458,16.771-28.335,21.508c-0.484,2.077,0.597,4.396,0.683,4.779
			c-5.547,2.66-12.233-0.768-17.411-1.707c3.513-8.094,6.017-17.198,8.193-26.629c3.072,2.845,4.025,7.81,5.462,12.29
			c5.889,1.01,11.224-1.109,11.607-5.462c0.512-5.69-5.576-8.563-8.193-11.949c7.212-5.676,21.223,10.555,20.825-2.048
			C95.521,355.376,92.776,365.177,96.475,366.713z"/>
		<path d="M86.574,600.567c1.224-0.711,3.699-0.171,5.462-0.342c1.323,3.983-1.053,7.112-1.366,10.583
			C88.452,608.249,87.015,604.906,86.574,600.567z"/>
		<path fill="#050505" d="M872.118,331.208c0.312-2.532,4.566-1.124,5.121-3.414c2.916,2.091,2.93,7.083,5.462,9.559
			c0.825,0.882,2.902,0.512,3.072,2.048c-2.489,1.579-6.628,0.128-9.9,0.342C875.262,336.258,874.778,332.646,872.118,331.208z"/>
		<path d="M898.747,661.335c6.103-0.299,11.55,0.057,11.607,5.804c-2.859,0.854-5.036,3.969-8.193,3.072
			C899.33,669.415,898.164,664.934,898.747,661.335z"/>
		<path d="M71.211,561.99c-2.29-4.097,1.835-6.501,3.755-8.535C78.836,555.574,76.432,564.109,71.211,561.99z"/>
		<path fill="#050505" d="M897.381,415.533c9.73,7.226,21.295,12.617,29.36,21.508c-6.473,3.2-17.653,1.692-25.264,3.755
			c-0.113-3.3,3.656-2.717,5.804-3.755C908.747,426.628,894.465,427.396,897.381,415.533z"/>
		<path fill="#050505" d="M764.921,149.247c-1.621-8.99,5.206-12.262,7.853-18.094c6.558-0.057,8.648,12.589,15.021,12.631
			c4.453,0.028,7.71-8.862,12.632-3.072c-5.106,13.883-23.129,3.086-29.359-2.731c-6.373,11.195,7.652,16.942,6.827,26.97
			c16.813,2.361,21.893-9.958,34.822-12.632c1.479,0.797,2.177,2.376,3.414,3.414c-0.854,0.811-1.138-0.868-2.39-0.683
			c-8.862,7.667-21.75,16.017-38.236,16.045c-1.593,0-3.514-0.697-5.121-0.341c-6.643,1.465-6.885,17.226-16.387,11.607
			c2.333-4.723,9.246-4.865,8.193-12.973c-5.604-4.865-13.599,1.579-16.728,3.414c1.764-9.388,13.2-9.104,19.801-13.656
			c1.408-4.182-5.264-3.599-5.804-6.486C758.975,150.057,762.104,146.8,764.921,149.247z"/>
		<path d="M591.494,92.575c3.371,2.945-1.722,8.791-0.342,12.973c-2.518,1.607-5.292-1.209-9.218-0.341
			C584.097,99.972,589.787,98.265,591.494,92.575z"/>
		<path d="M663.869,890.751c0-4.168-3.115-8.449-7.17-8.876c-5.945-0.626-7.908,5.59-13.997,4.438
			c0.441-6.529,4.837-8.947,9.9-11.948c2.361-1.395,7.426-4.865,9.218-5.121c5.647-0.811,9.189,6.188,14.68,4.097
			c3.442-1.309,1.309-7.866,1.707-11.266c2.404,0.341,5.548-0.356,6.146-0.684c2.788,1.992,3.286,6.273,5.121,9.218
			c3.77,0.939,6.87-0.854,10.241-1.365c3.429,15.917,12.845,25.846,15.363,42.674c-24.111,2.39-11.75-34.992-33.798-31.408
			c-8.393,1.366-6.871,10.156-3.414,16.046c1.508,2.561,4.637,5.96,4.779,8.193c0.512,7.795-14.353,11.038-15.704,16.387
			c-0.726-6.842,7.197-6.672,7.169-11.949c-0.014-1.835-2.318-4.082-4.097-4.438c-6.586-1.337-13.328,5.661-19.801,5.804
			c-1.863-2.461-2.091-6.558-3.072-9.9C655.817,903.396,663.869,897.863,663.869,890.751z"/>
		<path d="M352.519,72.433c1.081-7.34,3.584-13.257,12.631-12.631C361.025,64.098,359.574,71.068,352.519,72.433z"/>
		<path d="M72.918,472.204c3.442,9.431-12.745,4.979-20.483,5.462c0.981-7.724-5.917-9.289-4.438-16.387
			c15.59,0.228,24.694-6.031,27.312-18.777c0.228,0,0.455,0,0.683,0c4.893,3.4,2.105,8.891-0.683,12.291
			c-3.357,4.097-10.896,7.311-11.607,10.924c-0.797,4.054,2.859,3.698,3.072,8.193C69.547,474.067,70.102,472.004,72.918,472.204z"
			/>
		<path d="M775.163,840.566c2.347,9.545-2.461,16.842-1.707,26.97c-6.942-2.376-1.28-20.726-8.193-22.532
			c-2.675-0.696-4.41,0.84-7.17,1.024c3.557-11.124,20.441-8.919,24.581-19.459c2.958,0.355-1.408,5.945,2.048,5.804
			C782.545,836.114,779.359,838.845,775.163,840.566z"/>
		<path d="M466.544,44.439c1.935-1.01,4.125,0.341,5.462,1.024C472.689,51.395,463.998,50.058,466.544,44.439z"/>
		<path d="M84.526,376.955c2.703-0.199,2.39,2.632,4.438,3.073c-2.674,6.088-0.284,17.24-9.217,17.07
			C78.95,389.345,82.065,382.588,84.526,376.955z"/>
		<path d="M89.306,288.535c0.17-3.584,3.229-4.282,3.072-8.193c11.579,4.083,15.391,22.446,11.266,36.87
			c-3.57,0.854-7.141-0.668-9.9-1.707c0.413-4.139,5.775-3.328,7.169-6.486C99.747,299.488,98.666,289.872,89.306,288.535z"/>
		<path d="M853.683,704.692c-2.39,5.334-7.013,5.248-6.145,13.655c0.995,9.687,9.701,18.648,8.876,28.336
			c-0.569,6.686-6.757,5.434-7.511,12.631c-7.752-5.903-19.246-9.886-23.556-18.094c7.269,2.105,16.558,14.438,23.556,4.438
			c-0.299-10.512,0.427-22.049-10.925-21.508c2.974-8.293,9.588-12.944,13.997-19.801
			C852.943,704.066,852.858,704.834,853.683,704.692z"/>
		<path d="M466.544,44.439c-2.546,5.619,6.145,6.956,5.462,1.024C470.669,44.78,468.479,43.429,466.544,44.439z M473.372,36.928
			c1.75,13.386,1.323,28.947,1.365,44.04c-7.326-1.096-3.897-11.735-6.486-17.411c-1.024-2.233-3.144-2.532-4.779-4.097
			c-1.906-0.74-2.39,1.693-3.073,1.024c-3.841-5.917-2.105-17.24-1.024-24.921C464.667,35.392,469.56,35.62,473.372,36.928z"/>
		<path d="M574.766,74.14c-3.386,8.378-11.237,13.983-8.876,26.97c-6.529-0.526-10.812-3.3-15.363-5.804
			c6.558-9.289-4.822-15.548-3.414-24.922c4.311,2.305,6.146,10,11.607,12.29c9.659-1.152,11.479-14.054,8.876-24.239
			c6.473-1.351,8.422,8.919,5.463,13.997c5.263-0.427,9.502-1.877,15.704-1.365c-1.395-5.662-7.439-6.671-7.169-13.997
			c7.937,3.784,13.257,10.185,13.997,21.166C588.72,76.8,581.224,75.989,574.766,74.14z"/>
		<path d="M460.74,78.578c6.501,2.006,3.016,11.423,2.731,17.752C459.545,93.429,461.039,85.107,460.74,78.578z"/>
		<path d="M395.876,906.796c3.243,0.981,2.475,5.946,6.145,6.486c-0.285,0.854-1.195,1.082-1.707,1.707
			C397.611,913.681,396.203,909.356,395.876,906.796z"/>
		<path d="M73.943,520.682c0,2.731,0,5.462,0,8.193c-5.164,2.674-9.033-2.774-7.169-8.193
			C69.163,520.682,71.553,520.682,73.943,520.682z"/>
		<path d="M300.286,122.276c-2.703-0.057-5.064,2.788-5.462,4.78c-1.38,6.885,6.6,12.105,5.121,17.411
			c-1.394,0.541-4.381-1.935-5.462-3.073c-7.155-7.567-5.775-23.727,4.438-27.312c5.363,1.807,5.69,8.649,7.852,13.656
			C303.6,126.615,303.813,122.348,300.286,122.276z"/>
		<path d="M791.208,820.083c0.939-4.453,7.81-7.027,13.656-6.487c-0.783,4.097-3.03,5.975-6.486,8.535
			c-0.925,0.683-4.752,4.097-4.78,4.097C791.834,826.214,790.838,821.818,791.208,820.083z"/>
		<path d="M78.381,519.315c6.686,0.427,13.642-1.408,18.094,1.366c0.654,10.44-7.354,12.219-9.9,19.459
			c-8.208-6.401-14.196,4.709-22.532,3.414C70.785,537.822,83.943,533.015,78.381,519.315z"/>
		<path d="M286.972,864.805c2.874-11.764-10.598-16.372-16.387-9.9c-2.688,3.016-2.404,8.279-0.683,12.632
			C274.909,865.943,282.59,867.024,286.972,864.805z M289.703,911.917c-11.764-0.726-6.131-15.377-8.535-24.238
			c-1.877-6.928-10.796-15.747-15.704-20.484c-6.387-6.145-13.215-10.981-21.167-15.021c0.626-3.812,4.311-4.566,4.438-8.877
			c3.94,0.043,3.727,4.239,6.145,5.804c11.792,1.38,7.738-14.409,2.39-17.069c5.064-15.035,16.387,3.912,25.946,3.072
			c0.512,14.51,6.729,23.314,15.363,29.701c-1.195,3.713-4.936,4.467-5.462,8.193c-0.981,6.984,7.71,8.108,8.193,13.656
			c-4.31,2.119-4.779-2.916-8.535-3.072c-8.165-0.327-11.266,19.402,1.707,16.728C293.387,904.677,291.68,908.432,289.703,911.917z"
			/>
		<path d="M858.804,751.121c6.444,2.461,0.199,10.327,0,15.363C853.811,764.223,855.831,754.065,858.804,751.121z"/>
		<path fill="#050505" d="M889.529,364.324c1.194-3.698,5.135-7.61,10.241-8.535c-0.839,2.233-1.138,5.021-2.39,6.828
			C893.811,362.233,891.876,363.484,889.529,364.324z"/>
		<path d="M172.264,749.756c3.343-2.461,2.802,10.398,2.39,12.632c-5.135,4.353-19.289-0.896-22.873,4.438
			c-4.822,7.169,2.546,18.407,12.631,15.704c-5.576,4.894-15.32,5.619-23.214,8.193c-3.129-4.04-5.975-8.364-8.876-12.631
			c0.868-4.239,7.724-4.723,9.9-1.366C146.603,764.749,162.491,756.968,172.264,749.756z"/>
		<path fill="#050505" d="M837.638,246.202c1.252,0,1.536,0.967,2.39,1.365c-0.455,1.821-1.337,3.215-1.024,5.804
			c-2.205-0.299-3.129-1.877-5.804-1.707C832.403,247.567,836.997,248.862,837.638,246.202z"/>
	</g>
	<g>
		<path fill="none" stroke="#000000" d="M408.507,929.328c2.375,6.686-6.913,12.006-2.39,18.776c-1.92-0.611-7.738-6.614-7.852-9.9
			C398.081,933.126,405.051,932.102,408.507,929.328z"/>
		<path fill="none" stroke="#000000" d="M113.886,281.365c7.966,7.283,11.01,22.447,22.532,27.312
			c5.946-2.361,4.922-11.693,5.462-19.459c4.21,0.683,6.771,5.534,5.804,11.266c-1.053,6.23-6.629,17.368-10.583,18.094
			c-1.124,0.199-2.874-0.313-3.755-0.683c-5.804-2.461-7.881-11.124-10.925-16.387c-6.102,4.367-7.411,13.528-11.607,19.801
			c-1.379-0.896-3.399-1.152-5.462-1.365C110.031,309.431,118.381,296.657,113.886,281.365z"/>
		<path fill="none" stroke="#000000" d="M503.073,957.322c0.711,1.224,0.171,3.698,0.341,5.462
			c-5.291-0.412-11.294,1.152-16.728,1.707C488.877,958.83,496.103,958.204,503.073,957.322z"/>
		<path fill="none" stroke="#000000" d="M546.089,922.159c7.468,3.328,18.463,4.623,28.335,2.73
			c-2.546,6.444-11.906,6.074-15.704,11.267c0.769,10.568,14.879,12.631,11.267,24.238c-9.83,0.726-12.532-5.676-19.801-7.511
			C550.242,941.22,546.856,932.998,546.089,922.159z"/>
		<path fill="none" stroke="#000000" d="M395.876,906.796c3.243,0.981,2.475,5.946,6.145,6.486
			c-0.285,0.854-1.195,1.082-1.707,1.707C397.611,913.681,396.203,909.356,395.876,906.796z"/>
		<path fill="none" stroke="#000000" d="M493.514,902.017c2.446,5.064,2.432,12.589,4.097,18.436
			c2.148,0.213,3.784-0.086,4.78-1.024c2.603,6.003-0.029,14.723,1.023,21.85c-3.371-5.121-9.943-6.729-15.362-2.049
			c-5.562,4.794-10.156,14.879-15.704,18.094c-2.589-11.166,9.844-13.115,12.631-21.166c-4.58,0.028-9.544,0.44-11.266-2.39
			c0.27-1.778,1.223-2.874,1.365-4.78c5.135-0.981,12.447,3.613,17.07,0c-0.1-13.541-23.727-11.223-26.97-2.048
			c-6.43-12.19,13.599-13.656,24.921-12.29c0.811-1.579,0.796-5.69,0-8.193c-0.626-1.935-1.721-2.604-2.048-3.756
			C489.09,901.689,491.537,902.088,493.514,902.017z"/>
		<path fill="none" stroke="#000000" d="M382.562,891.775c-0.228,10.696,1.294,23.144-4.097,28.677
			c-9.132,2.205-12.475-4.068-14.338-10.242c0.042-1.55,2.318-0.867,3.755-1.024C354.667,902.073,371.281,881.306,382.562,891.775z"
			/>
		<path fill="none" stroke="#000000" d="M392.462,931.718c-10.526-3.698-19.346-9.104-32.774-9.9
			c-1.195-15.249,0.811-29.786,5.804-39.942c9.872-3.059,14.666,3.57,18.777,9.559c1.309,1.906,6.458,7.027,6.486,7.511
			c0.042,0.697-3.784,4.153-4.097,6.145C385.264,914.065,397.597,921.405,392.462,931.718z"/>
		<path fill="none" stroke="#000000" d="M689.474,870.608c3.77,0.939,6.87-0.854,10.241-1.365
			c3.429,15.917,12.845,25.846,15.363,42.674c-24.111,2.39-11.75-34.992-33.798-31.408c-8.393,1.366-6.871,10.156-3.414,16.046
			c1.508,2.561,4.637,5.96,4.779,8.193c0.512,7.795-14.353,11.038-15.704,16.387c-0.726-6.842,7.197-6.672,7.169-11.949
			c-0.014-1.835-2.318-4.082-4.097-4.438c-6.586-1.337-13.328,5.661-19.801,5.804c-1.863-2.461-2.091-6.558-3.072-9.9
			c8.677,2.745,16.729-2.788,16.729-9.9c0-4.168-3.115-8.449-7.17-8.876c-5.945-0.626-7.908,5.59-13.997,4.438
			c0.441-6.529,4.837-8.947,9.9-11.948c2.361-1.395,7.426-4.865,9.218-5.121c5.647-0.811,9.189,6.188,14.68,4.097
			c3.442-1.309,1.309-7.866,1.707-11.266c2.404,0.341,5.548-0.356,6.146-0.684C687.141,863.383,687.639,867.664,689.474,870.608z"/>
		<path fill="none" stroke="#000000" d="M286.972,864.805c-4.381,2.22-12.062,1.139-17.07,2.731
			c-1.721-4.353-2.005-9.616,0.683-12.632C276.374,848.433,289.845,853.041,286.972,864.805z"/>
		<path fill="none" stroke="#000000" d="M782.674,826.569c2.958,0.355-1.408,5.945,2.048,5.804
			c-2.177,3.741-5.362,6.472-9.559,8.193c2.347,9.545-2.461,16.842-1.707,26.97c-6.942-2.376-1.28-20.726-8.193-22.532
			c-2.675-0.696-4.41,0.84-7.17,1.024C761.649,834.904,778.534,837.109,782.674,826.569z"/>
		<path fill="none" stroke="#000000" d="M283.216,835.104c0.512,14.51,6.729,23.314,15.363,29.701
			c-1.195,3.713-4.936,4.467-5.462,8.193c-0.981,6.984,7.71,8.108,8.193,13.656c-4.31,2.119-4.779-2.916-8.535-3.072
			c-8.165-0.327-11.266,19.402,1.707,16.728c-1.095,4.367-2.802,8.122-4.78,11.607c-11.764-0.726-6.131-15.377-8.535-24.238
			c-1.877-6.928-10.796-15.747-15.704-20.484c-6.387-6.145-13.215-10.981-21.167-15.021c0.626-3.812,4.311-4.566,4.438-8.877
			c3.94,0.043,3.727,4.239,6.145,5.804c11.792,1.38,7.738-14.409,2.39-17.069C262.334,816.996,273.657,835.943,283.216,835.104z"/>
		<path fill="none" stroke="#000000" d="M804.864,813.596c-0.783,4.097-3.03,5.975-6.486,8.535c-0.925,0.683-4.752,4.097-4.78,4.097
			c-1.764-0.014-2.76-4.409-2.39-6.145C792.147,815.63,799.018,813.056,804.864,813.596z"/>
		<path fill="none" stroke="#000000" d="M218.693,783.554c-11.778,14.281-25.989,26.131-38.578,39.602
			c-0.825-8.407,7.994-9.929,11.607-15.021c-1.266-8.705-9.9-14.324-19.801-10.242c0-2.275,0-4.552,0-6.827
			c5.704-0.114,12.461,0.854,11.607-5.804C196.858,786.555,208.537,774.962,218.693,783.554z"/>
		<path fill="none" stroke="#000000" d="M858.804,766.484c-4.993-2.262-2.973-12.419,0-15.363
			C865.248,753.582,859.003,761.448,858.804,766.484z"/>
		<path fill="none" stroke="#000000" d="M174.653,762.388c-5.135,4.353-19.289-0.896-22.873,4.438
			c-4.822,7.169,2.546,18.407,12.631,15.704c-5.576,4.894-15.32,5.619-23.214,8.193c-3.129-4.04-5.975-8.364-8.876-12.631
			c0.868-4.239,7.724-4.723,9.9-1.366c4.381-11.977,20.27-19.758,30.042-26.97C175.606,747.295,175.066,760.154,174.653,762.388z"/>
		<path fill="none" stroke="#000000" d="M890.895,722.786c-0.071,2.773-4.225,4.424-4.779,7.852c-2.76-1.337-8.051-0.143-9.9-2.39
			c-3.158,4.353-6.714,8.308-8.535,13.997c-5.248-3.3-1.593-12.29,1.366-15.362c-1.722,0.1-4.168-0.526-4.097,1.365
			c-1.65-2.604,0.312-6.458,2.048-7.852C875.632,718.817,882.417,725.317,890.895,722.786z"/>
		<path fill="none" stroke="#000000" d="M853.683,704.692c-2.39,5.334-7.013,5.248-6.145,13.655
			c0.995,9.687,9.701,18.648,8.876,28.336c-0.569,6.686-6.757,5.434-7.511,12.631c-7.752-5.903-19.246-9.886-23.556-18.094
			c7.269,2.105,16.558,14.438,23.556,4.438c-0.299-10.512,0.427-22.049-10.925-21.508c2.974-8.293,9.588-12.944,13.997-19.801
			C852.943,704.066,852.858,704.834,853.683,704.692z"/>
		<path fill="none" stroke="#000000" d="M131.979,679.429c0,3.072,0,6.146,0,9.218c-4.779,2.731-8.876,6.146-17.07,5.462
			C112.051,682.416,122.435,673.397,131.979,679.429z"/>
		<path fill="none" stroke="#000000" d="M136.417,667.48c2.461,7.667,0.256,20,8.193,22.19c-6.913,4.95-6.999,33.414-20.825,25.945
			c4.125-5.206,13.172-5.49,11.266-16.728c-0.911-1.707-3.77-1.466-4.78-3.073c-5.633,1.536-9.929,4.41-10.924,10.583
			c-3.556-4.637-6.046-10.341-13.997-10.583c4.225-4.225,3.101-12.403,0-17.069c1.735-0.085,4.239-1.209,5.462-0.683
			c1.238,0.241,1.224,1.735,1.366,3.072C118.167,675.858,127.442,670.908,136.417,667.48z"/>
		<path fill="none" stroke="#000000" d="M910.354,667.139c-2.859,0.854-5.036,3.969-8.193,3.072
			c-2.831-0.796-3.997-5.277-3.414-8.876C904.85,661.036,910.297,661.392,910.354,667.139z"/>
		<path fill="none" stroke="#000000" d="M934.593,645.973c7.895,11.209-5.59,18.891-15.021,23.556
			c-7.78,3.841-16.073,7.027-22.531,8.876c-2.931-2.076-3.343-6.686-6.486-8.534c2.446-5.86,6.97-9.645,8.193-16.729
			c4.466,6.529,26.813,8.336,25.604-3.414c-0.257-2.461-2.305-3.755-2.39-5.804C926.215,642.26,929.174,646.655,934.593,645.973z"/>
		<path fill="none" stroke="#000000" d="M903.185,639.145c3.314-1.607,5.775,2.404,8.877,1.024
			c-0.769,2.773-8.763,1.252-9.218,5.462C900.881,644.251,905.02,641.506,903.185,639.145z"/>
		<path fill="none" stroke="#000000" d="M95.109,623.44c8.649,2.361,3.983,11.835,0,16.046c-10.014,0.042-23.869-8.962-28.335,3.072
			c-3.158-13.187,16.145-11.92,26.97-11.266C95.764,630.24,94.953,626.356,95.109,623.44z"/>
		<path fill="none" stroke="#000000" d="M92.037,600.226c1.323,3.983-1.053,7.112-1.366,10.583
			c-2.219-2.56-3.656-5.902-4.097-10.241C87.798,599.856,90.273,600.396,92.037,600.226z"/>
		<path fill="none" stroke="#000000" d="M934.252,573.256c5.96,0.057,9.288,3.457,8.534,8.535
			c-0.839,5.59-9.786,8.463-11.607,12.631C929.614,586.087,933.797,580.695,934.252,573.256z"/>
		<path fill="none" stroke="#000000" d="M945.859,563.697c10.099,4.011,1.251,26.97,12.631,29.701
			c-0.654,5.035-1.621,9.758-3.072,13.997c-10.312-2.319-19.985-5.277-32.091-5.804c3.243-7.568,3.713-17.909,4.097-28.336
			C932.26,568.761,944.948,572.118,945.859,563.697z"/>
		<path fill="none" stroke="#000000" d="M71.211,561.99c-2.29-4.097,1.835-6.501,3.755-8.535
			C78.836,555.574,76.432,564.109,71.211,561.99z"/>
		<path fill="none" stroke="#000000" d="M73.943,520.682c0,2.731,0,5.462,0,8.193c-5.164,2.674-9.033-2.774-7.169-8.193
			C69.163,520.682,71.553,520.682,73.943,520.682z"/>
		<path fill="none" stroke="#000000" d="M52.094,520.682c0.498,2.361-2.333,6.045-1.024,9.218c-1.351,0.44-3.286-1.338-4.779-3.073
			c-0.768-0.896-3.798-4.438-3.755-4.779C42.99,518.889,48.167,521.321,52.094,520.682z"/>
		<path fill="none" stroke="#000000" d="M96.475,520.682c0.654,10.44-7.354,12.219-9.9,19.459
			c-8.208-6.401-14.196,4.709-22.532,3.414c6.742-5.732,19.9-10.54,14.338-24.239C85.066,519.742,92.022,517.907,96.475,520.682z"/>
		<path fill="none" stroke="#000000" d="M913.085,482.445c2.262,0.583,3.471,2.219,5.804,2.731c0.242,5.363-5.932,4.31-7.169,8.193
			C908.292,490.426,914.337,487.495,913.085,482.445z"/>
		<path fill="none" stroke="#000000" d="M941.421,478.007c-4.225,10.341-0.085,22.902,5.462,28.677
			c-2.66,4.964-1.977,13.271-8.876,13.997c-1.835-1.352-0.427-5.946-1.365-8.193c-9.744-0.896-13.072,10.54-24.58,6.827
			c9.771-4.907,17.78-11.578,25.263-18.776c-1.209-6.871-6.401-9.758-11.266-12.973
			C928.135,481.336,933.512,478.406,941.421,478.007z"/>
		<path fill="none" stroke="#000000" d="M91.695,457.865c-7.027,1.821-10.598,20.868,1.024,19.118
			c4.012-0.598,3.542-5.235,9.218-4.78c2.333,9.403-10.185,6.871-18.094,7.169c-7.184-6.33-2.646-20.569,4.097-23.897
			C89.903,455.561,89.946,457.566,91.695,457.865z"/>
		<path fill="none" stroke="#000000" d="M75.991,442.502c4.893,3.4,2.105,8.891-0.683,12.291
			c-3.357,4.097-10.896,7.311-11.607,10.924c-0.797,4.054,2.859,3.698,3.072,8.193c2.774,0.157,3.329-1.906,6.145-1.707
			c3.442,9.431-12.745,4.979-20.483,5.462c0.981-7.724-5.917-9.289-4.438-16.387c15.59,0.228,24.694-6.031,27.312-18.777
			C75.536,442.502,75.764,442.502,75.991,442.502z"/>
		<path fill="none" stroke="#000000" d="M60.97,435.675c-1.636,8.236-9.459,14.68-19.459,11.266
			C47.471,442.659,53.345,438.292,60.97,435.675z"/>
		<path fill="none" stroke="#000000" d="M928.789,430.895c4.055,0,7.824,1.864,7.17,5.462c-1.607,0.555-4.325,0-5.121,1.366
			C929.43,436.173,928.462,434.181,928.789,430.895z"/>
		<path fill="none" stroke="#000000" d="M897.381,415.533c9.73,7.226,21.295,12.617,29.36,21.508
			c-6.473,3.2-17.653,1.692-25.264,3.755c-0.113-3.3,3.656-2.717,5.804-3.755C908.747,426.628,894.465,427.396,897.381,415.533z"/>
		<path fill="none" stroke="#000000" d="M908.647,399.829c-1.863,6.444-11.252,5.363-11.267,13.656
			c-2.304-2.248-1.963-7.141-2.73-10.925C899.387,401.72,903.498,400.255,908.647,399.829z"/>
		<path fill="none" stroke="#000000" d="M932.545,415.533c-0.896,2.176-3.371,2.774-6.486,2.731
			c-0.186-6.856-4.723-15.832,1.023-19.801C931.733,401.095,930.013,411.919,932.545,415.533z"/>
		<path fill="none" stroke="#000000" d="M88.964,380.028c-2.674,6.088-0.284,17.24-9.217,17.07
			c-0.797-7.753,2.318-14.509,4.779-20.143C87.229,376.756,86.916,379.587,88.964,380.028z"/>
		<path fill="none" stroke="#000000" d="M105.351,373.2c1.764,1.124,4.95,2.746,5.121,5.121c0.128,1.835-3.172,6.686-4.779,9.218
			c-3.115,4.936-6.885,9.943-12.29,10.583c-1.665-4.466,2.475-6.785,4.779-9.218c3.385-3.584,7.212-7.582,7.169-14.68
			C105.351,373.883,105.351,373.542,105.351,373.2z"/>
		<path fill="none" stroke="#000000" d="M89.306,357.496c6.216-2.12,3.471,7.681,7.169,9.217
			c-13.926,2.688-16.458,16.771-28.335,21.508c-0.484,2.077,0.597,4.396,0.683,4.779c-5.547,2.66-12.233-0.768-17.411-1.707
			c3.513-8.094,6.017-17.198,8.193-26.629c3.072,2.845,4.025,7.81,5.462,12.29c5.889,1.01,11.224-1.109,11.607-5.462
			c0.512-5.69-5.576-8.563-8.193-11.949C75.692,353.869,89.704,370.099,89.306,357.496z"/>
		<path fill="none" stroke="#000000" d="M899.771,355.789c-0.839,2.233-1.138,5.021-2.39,6.828c-3.57-0.384-5.505,0.868-7.852,1.707
			C890.724,360.625,894.664,356.713,899.771,355.789z"/>
		<path fill="none" stroke="#000000" d="M905.916,331.892c2.532,1.821,4.48,5.96,4.097,9.559c-1.721,0.099-4.168-0.526-4.097,1.365
			C901.492,340.753,904.138,335.063,905.916,331.892z"/>
		<path fill="none" stroke="#000000" d="M877.239,327.795c2.916,2.091,2.93,7.083,5.462,9.559c0.825,0.882,2.902,0.512,3.072,2.048
			c-2.489,1.579-6.628,0.128-9.9,0.342c-0.611-3.485-1.095-7.098-3.755-8.535C872.431,328.677,876.685,330.085,877.239,327.795z"/>
		<path fill="none" stroke="#000000" d="M92.378,280.341c11.579,4.083,15.391,22.446,11.266,36.87
			c-3.57,0.854-7.141-0.668-9.9-1.707c0.413-4.139,5.775-3.328,7.169-6.486c-1.166-9.53-2.247-19.146-11.607-20.483
			C89.476,284.95,92.535,284.253,92.378,280.341z"/>
		<path fill="none" stroke="#000000" d="M866.314,266.344c8.009,0.64,10.242,7.055,10.925,15.021
			C868.078,281.877,866.243,275.064,866.314,266.344z"/>
		<path fill="none" stroke="#000000" d="M837.638,246.202c1.252,0,1.536,0.967,2.39,1.365c-0.455,1.821-1.337,3.215-1.024,5.804
			c-2.205-0.299-3.129-1.877-5.804-1.707C832.403,247.567,836.997,248.862,837.638,246.202z"/>
		<path fill="none" stroke="#000000" d="M859.486,253.371c2.831-4.637-0.711-9.36-3.072-11.949
			c5.334-7.254,14.467-3.072,13.997,5.804C870.141,252.375,865.888,255.576,859.486,253.371z"/>
		<path fill="none" stroke="#000000" d="M874.508,235.96c-0.981,17.709,3.471,29.985,7.169,43.015
			c-2.56,4.154-10,5.249-12.973,7.852c-5.875-2.561-6.103-14.139-12.631-15.021c-5.093-0.683-4.766,3.968-9.9,4.097
			c-1.181-9.488,8.733-7.881,12.631-12.291c-3.655-6.927-10.469-13.655-11.266-24.58C853.1,233.698,866.67,230.256,874.508,235.96z"
			/>
		<path fill="none" stroke="#000000" d="M134.028,220.256c11.963-1.039,13.826,8.022,20.483,12.29
			c1.537,0.17,2.561-0.171,3.755-0.341c1.465,1.493,2.447,3.485,2.39,6.486C150.187,234.14,140.372,228.933,134.028,220.256z"/>
		<path fill="none" stroke="#000000" d="M163.388,197.724c3.115,3.201,3.712,12.447,1.365,17.07
			c-5.306,2.162-15.376,2.503-18.435-2.048c1.366-4.552,9.047-2.788,12.973-4.78C158.836,203.542,155.294,196.273,163.388,197.724z"
			/>
		<path fill="none" stroke="#000000" d="M184.554,199.09c5.192-1.408,5.704-7.497,11.266-8.535
			c4.253,2.888,5.548,11.294,3.073,17.069c-3.627-1.408-4.723-6.671-4.097-11.266c-3.357,0.854-4.068,4.353-8.535,4.097
			c1.01,3.77,1.665,7.895,1.366,12.973c-1.821,1.024-3.656,2.034-5.121,3.414c1.181-13.144-0.924-28.265-14.338-29.019
			C172.932,179.887,183.458,192.917,184.554,199.09z"/>
		<path fill="none" stroke="#000000" d="M824.665,177.923c-2.902,4.95-8.08,7.625-11.267,12.291
			c-5.106-3.314-14.68-2.163-18.094-7.169c3.4-3.584,10.342-1.536,12.29,2.048c3.414-0.868,6.729-3.841,5.804-7.852
			c-0.512-2.248-2.73-2.062-3.755-4.097C815.945,170,819.046,177.155,824.665,177.923z"/>
		<path fill="none" stroke="#000000" d="M800.426,140.712c-5.106,13.883-23.129,3.086-29.359-2.731
			c-6.373,11.195,7.652,16.942,6.827,26.97c16.813,2.361,21.893-9.958,34.822-12.632c1.479,0.797,2.177,2.376,3.414,3.414
			c-0.854,0.811-1.138-0.868-2.39-0.683c-8.862,7.667-21.75,16.017-38.236,16.045c-1.593,0-3.514-0.697-5.121-0.341
			c-6.643,1.465-6.885,17.226-16.387,11.607c2.333-4.723,9.246-4.865,8.193-12.973c-5.604-4.865-13.599,1.579-16.728,3.414
			c1.764-9.388,13.2-9.104,19.801-13.656c1.408-4.182-5.264-3.599-5.804-6.486c-0.484-2.604,2.646-5.861,5.462-3.414
			c-1.621-8.99,5.206-12.262,7.853-18.094c6.558-0.057,8.648,12.589,15.021,12.631C792.247,143.812,795.504,134.922,800.426,140.712
			z"/>
		<path fill="none" stroke="#000000" d="M306.772,127.739c-3.172-1.124-2.959-5.391-6.486-5.462
			c-2.703-0.057-5.064,2.788-5.462,4.78c-1.38,6.885,6.6,12.105,5.121,17.411c-1.394,0.541-4.381-1.935-5.462-3.073
			c-7.155-7.567-5.775-23.727,4.438-27.312C304.283,115.89,304.61,122.732,306.772,127.739z"/>
		<path fill="none" stroke="#000000" d="M285.606,125.008c-3.556,6.913-10.355,10.583-15.704,15.704
			c-1.622,5.434-1.437,12.674-8.193,12.973c-0.128-8.449-2.532-17.126-10.242-15.704c-3.542,0.654-5.775,8.407-9.218,6.145
			c-2.148-1.408,0.029-6.159,1.024-7.51c1.522-2.063,10.185-9.346,14.68-8.876c2.802,0.285,4.111,4.154,6.145,4.438
			c5.107,0.711,7.269-5.092,11.607-5.462c-0.697-6.06-18.407-12.831-4.097-15.704C276.531,115.42,279.489,121.793,285.606,125.008z"
			/>
		<path fill="none" stroke="#000000" d="M591.494,92.575c3.371,2.945-1.722,8.791-0.342,12.973
			c-2.518,1.607-5.292-1.209-9.218-0.341C584.097,99.972,589.787,98.265,591.494,92.575z"/>
		<path fill="none" stroke="#000000" d="M460.74,78.578c6.501,2.006,3.016,11.423,2.731,17.752
			C459.545,93.429,461.039,85.107,460.74,78.578z"/>
		<path fill="none" stroke="#000000" d="M681.28,76.872c-1.38,5.59-5.406,15.533,1.023,18.435c9.246-3.983,20.91-17.71,33.115-8.535
			c-1.978,15.647-12.83,34.765-30.726,25.946c10.029-0.598,21.309-4.14,24.922-11.607c2.049-4.225,0.882-10.384-3.072-12.973
			c-12.162-2.916-12.66,13.144-19.801,14.338c-8.165,1.366-11.664-9.488-18.436-9.9c-5.761-0.355-8.406,8.194-13.997,3.073
			c5.918-7.283,9.772-16.629,13.997-25.604C672.091,72.86,675.988,75.562,681.28,76.872z"/>
		<path fill="none" stroke="#000000" d="M365.15,59.802c-4.125,4.296-5.576,11.266-12.631,12.631
			C353.6,65.093,356.104,59.176,365.15,59.802z"/>
		<path fill="none" stroke="#000000" d="M581.594,57.071c7.937,3.784,13.257,10.185,13.997,21.166
			c-6.871-1.437-14.367-2.248-20.825-4.097c-3.386,8.378-11.237,13.983-8.876,26.97c-6.529-0.526-10.812-3.3-15.363-5.804
			c6.558-9.289-4.822-15.548-3.414-24.922c4.311,2.305,6.146,10,11.607,12.29c9.659-1.152,11.479-14.054,8.876-24.239
			c6.473-1.351,8.422,8.919,5.463,13.997c5.263-0.427,9.502-1.877,15.704-1.365C587.368,65.406,581.323,64.396,581.594,57.071z"/>
		<path fill="none" stroke="#000000" d="M408.166,65.264c-6.586,3.784-7.88,18.833-15.363,21.508
			c-1.095,0.384-7.596,1.849-6.486-2.39c1.095-0.839,4.139,0.271,4.779-1.024c0.882-4.993-5.633-5.875-7.511-4.097
			c-0.697-6.401,6.814-7.525,8.876-12.29c-0.953-4.851-3.841-7.767-4.438-12.973C397.426,47,405.165,58.336,408.166,65.264z"/>
		<path fill="none" stroke="#000000" d="M408.166,51.267c0.441,10.611,1.394,19.488,3.414,28.677
			c1.493,6.828,3.115,10.071-1.707,15.021c-9.303,9.559-34.31,10.469-37.212-5.462c-6.003-0.355-8.947,3.912-13.997,3.414
			c-0.484-10.029,8.151-12.916,15.704-17.411c7.468-4.438,14.666-10.341,8.535-18.777C385.591,48.536,401.423,43.386,408.166,51.267
			z"/>
		<path fill="none" stroke="#000000" d="M472.006,45.463c0.683,5.932-8.008,4.594-5.462-1.024
			C468.479,43.429,470.669,44.78,472.006,45.463z"/>
		<path fill="none" stroke="#000000" d="M473.372,36.928c1.75,13.386,1.323,28.947,1.365,44.04
			c-7.326-1.096-3.897-11.735-6.486-17.411c-1.024-2.233-3.144-2.532-4.779-4.097c-1.906-0.74-2.39,1.693-3.073,1.024
			c-3.841-5.917-2.105-17.24-1.024-24.921C464.667,35.392,469.56,35.62,473.372,36.928z"/>
	</g>
</g>
<circle fill="none" stroke="#000000" stroke-width="4" cx="500" cy="500" r="500"/>
<circle fill="none" stroke="#000000" stroke-width="4" cx="500" cy="500" r="474.854"/>
<circle fill="none" stroke="#000000" stroke-width="4" cx="500" cy="500" r="388.103"/>
<circle fill="none" stroke="#000000" stroke-width="4" cx="500" cy="500.001" r="368.584"/>
<polygon fill="none" stroke="#000000" stroke-width="4" points="370.513,812.604 187.394,629.486 187.394,370.514 370.513,187.396 
	629.484,187.396 812.606,370.514 812.606,629.486 629.484,812.604 "/>
<polygon fill="none" stroke="#000000" stroke-width="4" points="500.001,349.389 615.278,221.707 606.5,393.501 778.292,384.727 
	650.613,500 778.292,615.273 606.5,606.498 615.278,778.293 500.001,650.608 384.728,778.293 393.502,606.498 221.708,615.273 
	349.39,500 221.708,384.727 393.502,393.501 384.728,221.707 "/>
</svg>
