<?xml version="1.0" encoding="utf-8"?>
<!-- Generator: Adobe Illustrator 14.0.0, SVG Export Plug-In . SVG Version: 6.00 Build 43363)  -->
<!DOCTYPE svg PUBLIC "-//W3C//DTD SVG 1.1//EN" "http://www.w3.org/Graphics/SVG/1.1/DTD/svg11.dtd">
<svg version="1.1" id="Layer_1" xmlns="http://www.w3.org/2000/svg" xmlns:xlink="http://www.w3.org/1999/xlink" x="0px" y="0px"
	 width="1000px" height="1000px" viewBox="0 0 1000 1000" enable-background="new 0 0 1000 1000" xml:space="preserve">
<ellipse fill-rule="evenodd" clip-rule="evenodd" fill="#FFFFFF" stroke="#000000" stroke-width="4" cx="500" cy="499.999" rx="482.062" ry="465.781"/>
<circle fill-rule="evenodd" clip-rule="evenodd" fill="#FFFFFF" stroke="#000000" stroke-width="4" cx="500" cy="499.999" r="380.817"/>
<g>
	<path fill-rule="evenodd" clip-rule="evenodd" d="M576.168,52.851c0.104,2.787,1.956,3.826,2.003,6.67
		c5.324-2.235,13.066-2.052,17.342-5.336C592.423,46.348,583.819,54.279,576.168,52.851z M381.726,62.189
		c5.988,2.242,10.35,11.785,5.67,18.677c1.372,1.186,5.219-0.104,5.336,2.334c-2.285-0.061-4.265,0.182-4.335,2.335
		c3.414,0.397,4.037,4.88,8.338,3.335c-1.427-9.987,4.527-12.593,12.673-13.007c-0.802-1.334,0.778-4.668-0.333-6.337
		c-1.83-0.447-2.078,0.953-4.002,1c-5.147,0.125-7.659-5.833-9.673-9.672c1.5-2.074,5.013-4.881,3.336-8.004
		C392.911,55.809,382.942,54.623,381.726,62.189z M569.165,74.864c-3.429-0.669-4.762-4.427-5.67-8.338
		c-4.206,0.884-7.295,4.141-6.67,8.338c0.434,2.917,7.679,5.265,6.67,11.339c-0.197,1.188-1.698,4.463-5.003,4.002
		c-2.083-0.291-4.019-4.074-5.67-6.003c-1.051-1.227-3.932-5.426-6.67-5.003c-2.172,0.334-2.584,2.903-3.336,5.336
		c3.548,2.074,8.77,4.423,8.338,8.671c-0.529,5.21-9.726,2.978-9.672,9.339c6.829-0.381,10.675,2.222,15.343,4.002
		c0-3.224,0-6.448,0-9.672c15.672-4.562,14.048-26.418,35.686-25.014c-0.567-3.347,1.875-3.683,1.668-6.67
		C582.778,62.817,579.025,76.785,569.165,74.864z M458.77,77.198c6.851-1.487,16.934,0.257,17.343-7.671
		C469.861,71.614,463.319,73.41,458.77,77.198z M544.15,77.531c2.335,0,4.67,0,7.004,0c0.476-5.033-2.978-6.138-7.004-6.67
		C544.15,73.085,544.15,75.308,544.15,77.531z M573.834,108.215c14.48-0.417,15.988-13.806,16.343-28.349
		c-0.073-0.26-0.28-0.388-0.666-0.334C584.065,88.875,584.225,103.82,573.834,108.215z M358.046,93.207
		c1.653,7.616,6.893,18.276,12.674,23.347c3.766,3.303,10.191,5.043,12.674,0c-3.604,0.177-5.696-2.629-4.336-6.337
		c2.618-2.112,8.897,1.831,9.672-2.334c1.035-5.555-13.062-3.111-15.008-6.337c-3.559-5.897,8.051-12.446,7.004-15.675
		C371.566,86.27,367.779,99.677,358.046,93.207z M674.891,94.208c-1.676,4.414-2.145,9.042-6.004,10.673
		c-9.08,3.837-11.767-9.609-20.345-9.339c4.553,16.895,28.128,13.305,48.36,14.007C695.902,98.098,685.831,95.718,674.891,94.208z
		 M677.559,113.885c0,1.334,0,2.668,0,4.002c4.575,1.996,10.776,4.106,17.344,3.002c-1.331-2.119-4.405-5.377-6.004-8.338
		C685.025,112.213,679.762,111.646,677.559,113.885z M276.333,117.888c3.488,2.849,12.04,0.634,17.677,1.334
		c5.174,7.789,5.718,23.542,19.01,21.012c-3.311-5.918-7.126-14.219-9.339-22.346C296.396,115.873,282.415,112.225,276.333,117.888z
		 M263.66,146.904c5.43-1.78,10.947-5.373,15.008-8.671c1.219-0.99,3.779-1.929,3.001-3.669
		C272.563,135.573,264.295,137.422,263.66,146.904z M751.267,157.911c5.941-3.378,15.518-9.172,11.006-18.678
		C758.991,145.846,753.491,150.239,751.267,157.911z M292.342,161.913c7.047-2.515,12.363-6.76,18.011-10.673
		c-8.85-1.157-11.372-8.64-20.345-9.672C291.316,147.838,298.699,156.048,292.342,161.913z M779.283,217.276
		c-4.329-3.667-8.15-8.659-7.005-15.007c0.374-2.064,2.077-5.14,3.669-6.671c7.035-6.767,15.479,0.088,17.343,7.338
		c5.751-1.81,7.665-7.454,12.341-10.339c-3.313-5.165-5.939-14.103-14.008-12.341c1.385,0.921,5.52,6.518,2.002,9.339
		c-6.39,0.229-15.849-1.331-17.344-7.004c-1.155-4.381,0.82-8.923,1.334-13.341c-10.362-2.644-26.631,0.616-29.351-9.672
		c-0.558,2.777-3.208,3.461-2.668,7.337c18.6,2.524,21.008,21.239,22.013,41.357C772.971,209.802,775.047,214.62,779.283,217.276z
		 M188.951,185.592c-0.902,4.596,2.515,7.695,7.671,7.337C195.412,189.266,193.38,184.96,188.951,185.592z M181.614,210.939
		c-3.318-3.129-1.758-11.137-7.004-12.34c-4.353,2.556-1.255,11.354-6.337,12.34c-3.326,0.646-10.498-4.887-11.673,0.667
		c-1.414,6.681,10.593,5.663,13.674,9.005c-2.863,6.698-7.004,12.118-9.338,19.344c3.515-0.51,3.301,4.102,6.337,3.001
		c5.003-12.146,13.232-26.208,29.35-26.681c6.853-0.201,11.676,2.131,17.009,4.335c2.884-3.752,4.965-12.552-1.668-13.674
		c-1.116,1.663-1.285,4.274-3.001,5.335c-6.304,1.038-11.239-2.071-13.675-6.003c1.468-3.988,9.059-5.007,7.004-10.339
		C190.785,194.986,190.341,207.994,181.614,210.939z M139.924,226.282c3.486-1.146,3.113,3.327,5.336,2.335
		c-1.348-2.799,1.364-4.413,1.334-7.004c-0.663-0.004-0.424-0.909-1.334-0.667C145.209,224.452,139.955,222.755,139.924,226.282z
		 M182.281,230.951c-4.624,4.496-2.564,14.504-9.005,17.677c4.033,4.628,16.754,8.715,19.011-0.333
		c-4.772-1.411-8.901-2.493-8.005-7.337c2.04-11.022,35.706-1.674,27.682-15.676C206.802,235.743,189.488,223.944,182.281,230.951z
		 M842.984,237.622c-0.52,17.014-16.242,23.516-11.339,42.69c7.848-2.061,16.669,3.226,14.342,11.34
		c4.136-0.978,7.751-2.476,12.34-3.002c0.625-6.518-1.386-10.397-1.334-16.342c2.073,2.3,3.668-1.285,5.67-2.001
		c0.637-3.861-2.801-3.647-3.002-6.67c7.449-2.351,16.565-14.779,25.014-7.337c0.572-8.243-6.022-9.319-7.003-16.009
		c-3.335,0-6.671,0-10.006,0c-3.616-3.276-2.704-11.083-9.339-11.34C858.686,237.332,851.062,238.686,842.984,237.622z
		 M106.571,270.64c-5.276,2.969-9.801,13.25-9.338,23.013c0.223,4.703,2.009,10.817,5.336,11.673
		c4.46,1.149,10.862-4.284,11.006-7.671c0.247-5.814-7.928-5.286-8.338-10.339c6.382-2.401,11.711-5.853,13.674-12.673
		C113.622,274.484,111.33,271.329,106.571,270.64z M114.91,318c10.461,0.233,7.353-13.103,14.007-16.676
		c6.61,5.641,29.392,3.333,24.014-7.671c-2.357,4.22-10.506,9.572-17.343,7.004c-7.877-2.959-1.289-11.936,1.333-16.009
		c-3.015-0.987-5.228-2.776-8.004-4.002C126.934,295.783,116.997,302.966,114.91,318z M909.689,319.334
		c-2.401,4.587-6.053,14.024-12.674,12.674c-3.414-0.697-4.181-5.918-5.337-9.672c-2.949-0.842-7.056-0.842-10.006,0
		c-1.23,9.716,8.818,10.307,10.006,17.676c1.36,8.427-5.182,13.242-5.335,21.346c9.1,1.651,4.455-10.442,8.337-14.008
		c3.038,2.521,1.346,9.772,5.671,11.006c1.154-0.736,2.607-1.17,3.668-2.001c-0.365-7.75-5.559-10.672-5.336-19.011
		c8.969,0.707,18.376,6.948,14.008,16.676c7.055-0.172,12.11-2.342,17.676-4.002c-0.246-4.979-1.836-8.613-3.669-12.007
		c-1.804,1.752-3.698,3.416-7.003,3.669c-3.389-3.115-9.598-3.859-10.006-8.671c-0.397-4.689,4.823-6.18,4.002-12.007
		C912.266,320.538,911.669,319.244,909.689,319.334z M127.25,326.338c2.455-0.232,3.88,0.567,5.67,1
		c0.417-2.363,2.67-2.889,2.668-5.67C133.137,321.066,128.256,323.322,127.25,326.338z M80.557,370.696
		c-3.221,8.157-11.168-3.169-15.676-4.001c0.002,11.004,9.469,12.543,18.01,15.008c3.517-8.783,3.891-26.852-6.003-29.017
		c-0.223,0-0.444,0-0.667,0C77.362,357.615,82.989,364.539,80.557,370.696z M73.553,393.375c7.07,2.708,12.556-2.37,20.344-2.001
		c-0.128-2.798-0.031-5.368,1.334-6.67C84.615,381.977,79.964,389.804,73.553,393.375z M925.698,393.375
		c-6.823,2.596-20.914,1.153-24.013,7.004c2.704,0.743,3.571,3.321,6.67,3.669c-0.274-1.903,0.321-3.087,1.334-3.669
		c4.824-2.771,11.059,7.38,11.006,12.007c-2.142,2.791-9.505,3.018-6.67,8.671c4.691,0.578,6.575-1.652,10.672-1.668
		c6.296,3.967,1.211,11.798-2.334,15.342c9.934-0.293,19.476-0.98,27.683-3.002c0.685-12.136-3.102-19.8-7.005-27.348
		c-5.923,2.383-19.729,1.667-19.344-4.669c0.192-3.167,4.099-2.888,5.003-6.003C927.583,393.317,926.592,393.036,925.698,393.375z
		 M59.545,470.419c2.134,1.565,2.341,4.613,5.003,5.002c5.399,0.792,4.817-8.22,10.005-8.671c0,2.779,0,5.559,0,8.338
		c4.963,2.263,6.87-2.432,8.338-5.67c-0.339,3.678,0.847,7.599,4.002,6.671c-5.023-14.499-1.852-35.894,13.341-37.354
		c-8.81-6.695-14.733,9.365-22.346,7.003c-4.529-1.405-1.218-9.134,0-11.006c-5.685,1.348-9.637-1.923-15.675-1.334
		C65.319,444.401,65.258,462.454,59.545,470.419z M109.24,460.747c-0.192-5.032-1.779-9.914-0.334-14.675
		c-2.301-0.812-2.723-3.503-5.003-4.336C102.956,449.475,103.687,458.399,109.24,460.747z M921.697,484.761
		c-8.128-3.324-19.553-5.13-27.351-7.672c2.906,9.372-2.512,20.397,0,28.683c1.521,5.012,6.984,7.712,12.009,8.005
		c8.458,0.493,19.356-3.866,25.346,2.334c-2.343-14.443-1.578-31.995-9.672-40.689C921.81,478.425,922.472,482.312,921.697,484.761z
		 M49.873,518.112c8.783-1.778,3.646,10.361,7.337,13.676c2.72-1.507,2.962-5.488,7.338-5.338c2.663,2.896,4.776,6.342,8.671,8.006
		c0.74-8.188-4.924-9.974-4.669-17.676C62.751,517.784,54.166,514.771,49.873,518.112z M75.887,529.452c0,2.225,0,4.447,0,6.672
		c4.352,2.885,8.004-5.603,4.003-8.006C79.733,529.741,77.599,529.386,75.887,529.452z M59.211,554.467
		c-0.257,1.604-2.452,3.093-1.667,4.003c9.574-0.601,15.399-6.534,26.681-4.336c4.286-17.832-21.106-7.066-28.016-14.676
		C53.683,544.769,60.041,549.279,59.211,554.467z M892.347,554.8c-1.7,0.859,1.048,1.722,0.333,3.67
		c-1.419,2.915-4.803,3.868-5.336,7.67c4.006,4.716,11.688,12.812,19.678,7.338C906.612,562.988,902.74,554.194,892.347,554.8z
		 M921.697,571.143c0.093-5.244,1.681-8.991,2-14.008c-2.392,0.168-4.014-0.434-5.67-1.001
		C916.805,561.032,912.944,571.766,921.697,571.143z M934.369,565.473c1.874-1.147,8.685-3.31,8.672-5.336
		c-0.019-3.491-5.883-0.953-8.338-1.667c-7.902,5.66-12.071,15.054-21.012,19.677c-0.882,6.759-4.296,18.248,4.003,19.344
		C916.318,582.119,924.031,571.802,934.369,565.473z M89.229,605.162c-2.131,0.025-6.329-1.047-6.67-3.002
		c-0.404-2.315,1.973-2.489,2.668-4.336c-9.027-0.46-18.11,1.896-26.015,3.669c0.601,2.401,0.831,5.173,2.334,6.671
		c2.94-1.73,5.45-3.89,10.006-4.002c5.772,11.738,18.156,9.034,27.683,3.334c3.773-2.259,8.648-7.691,12.673-7.336
		c3.617,0.317,3.63,4.858,7.004,5.336c-0.521-5.607,1.564-11.777-1.667-14.676C104.619,587.51,100.066,605.036,89.229,605.162z
		 M89.562,621.171c-1.788,11.44-18.768,7.691-19.345,20.346c13.272-4.073,20.405-14.283,30.017-22.012
		C95.639,619.021,93.646,621.143,89.562,621.171z M118.244,624.84c2.392-1.277,7.272-0.066,8.672-2.335
		c-3.706,0.593-4.102-2.124-7.671-1.667C119.061,622.109,118.019,624.267,118.244,624.84z M908.021,649.52
		c-3.114-11.796-21.314-3.545-13.675,6.671c-2.071,4.464-10.509,6.463-7.337,13.008C894.12,664.295,903.537,657.048,908.021,649.52z
		 M150.93,674.201c-6.598-15.327-34.048-8.576-34.353,7.004c4.074-0.488,5.357-4.053,9.338-3.335
		c5.884,1.06,7.043,11.698,9.672,16.676c-2.65,3.587-8.462,5.753-8.004,11.339c5.391-0.882,11.017-7.035,16.342-2
		C142.312,691.362,151.958,687.245,150.93,674.201z M844.653,705.219c-1.954,1.713-4.595,5.42-7.004,8.004
		c-1.789,1.918-7.34,5.651-7.671,7.337c-0.911,4.625,6.997,5.636,6.003,11.008c-0.771,4.164-7.135,5.926-11.006,7.337
		c5.369,8.272,16.342,13.283,25.014,19.011c1.823,1.204,7.033,6.44,8.338,6.336c0.639-0.05,3.486-3.42,4.336-4.002
		c5.485-3.756,12.102-5.203,15.009-10.339c-11.584-1.356-15.031,5.426-23.681,7.004c-1.445-3.684-3.553-8.431-2.334-13.676
		c16.142-1.312,21.604-13.305,27.682-24.68c5.664,2.303,10.997,7.873,9.673,15.01c2.226-3.325,4.524-8.628,2.667-14.009
		c-9.526-3.592-17.812-8.424-26.682-12.674c-4.165,7.315-11.93,14.487-23.346,12.341c1.455-8.217,10.343-9.002,12.006-17.01
		C850.61,700.413,846.717,703.407,844.653,705.219z M144.259,764.251c5.043,0.263,7.721-1.839,9.005-5.336
		c-0.687-0.091-0.079-1.477-1-1.334C150.769,760.978,145.743,760.843,144.259,764.251z M773.613,792.601
		c-6.731,3.875-10.767-7.541-14.343-0.334c0.62,6.362,10.012,4.486,12.343,10.006c3.404,8.071-1.61,19.183-8.006,23.015
		c9.825,1.37-0.702,19.584-6.671,19.677c0.996,0.227,1.119,1.328,1.001,2.668c18.395-6.731,14.684-35.568,35.021-40.356
		c3.961,2.255,10.199,11.678,15.341,5.337c-5.481-1.854-8.069-6.606-12.34-9.673c2.631,0.189,8.447-8.238,4.002-9.338
		c-3.32-0.823-5.027,5.514-8.005,6.337c-2.701,0.746-5.686-0.47-7.337-2.002c-4.866-4.515-3.63-15.923-5.336-24.013
		C772.695,777.569,778.918,789.547,773.613,792.601z M186.95,786.931c0.273,2.84,2.438,3.787,4.335,5.003
		c1.65-2.573,4.982-3.468,8.338-4.335c0.597-4.601-2.41-5.595-5.67-6.338C194.864,786.395,188.141,783.897,186.95,786.931z
		 M260.992,821.616c0.801,5.657,4.5,14.08,2.335,21.679c-5.451-1.246-6.582-8.499-13.675-7.002
		c3.343,9.554,12.225,13.566,20.678,18.009c0.704-7.411,11.272-4.959,16.343-8.004c-4.292-8.604-0.999-24.794-10.673-28.017
		C275.259,824.534,265.626,820.692,260.992,821.616z M684.896,843.629c-8.646,5.253-20.782,8.79-24.68,17.678
		c2.438-1.485,6.358-1.253,7.67,1.334c1.225,2.413,1.118,5.773,2.335,8.671c4.391,10.455,15.033,24.244,5.669,36.021
		c-12.222,1.551-6.063-15.282-11.006-21.011c-9.301,0.836-20.124,1.525-25.015-3.67c-0.341,12.698,13.579,12.857,13.009,24.681
		c15.463,6.189,34.023-0.381,46.36-5.337c-7.301-7.598,8.001-9.316,5.002-16.677c-5.355,2.705-9.407,15.015-18.345,13.009
		c-2.898-0.651-3.933-3.832-5.669-6.337c1.439-13.412-7.46-34.21,12.34-32.018C690.697,853.839,688.412,848.119,684.896,843.629z
		 M255.322,864.307c5.536,0.803,9.388,3.287,16.343,2.67c0.443-5.447-2.951-7.056-4.002-11.007
		C260.795,855.995,256.65,858.743,255.322,864.307z M635.868,866.977c0.652,5.462,1.291,10.938,4.337,14.007
		c4.158-7.959,15.178-9.058,16.676-19.677C649.979,863.039,644.82,870.459,635.868,866.977z M291.342,866.977
		c0.418,1.618,2.504,2.758,5.337,2.668c-0.218-2.441,1.722-2.725,2.668-4.004C296.669,863,289.832,861.118,291.342,866.977z
		 M398.736,884.987c-3.037-0.173-7.548-4.76-11.006-7.338c-5.807-4.33-11.523-8.195-21.012-6.671
		c-4.308,14.182-11.917,26.723-10.339,45.692c6.065-2.314-0.13-15.039,8.338-13.675c4.497,0.726,2.315,7.552,8.671,7.005
		c2.216-10.287-5.356-13.495-10.005-18.011c1.736-2.488,2.969-5.481,7.003-5.669c2.192,6.115,5.547,10.71,12.341,11.338
		c9.571,0.886,21.671-4.912,30.684-2.001c-2.81-4.306-6.473-7.758-9.005-12.34C402.111,883.293,400.91,885.108,398.736,884.987z
		 M290.008,886.652c-0.03-6.11,7.52-3.815,8.338,0c-0.341-3.563,2.113-4.334,2.668-7.003
		C296.746,875,286.461,881.459,290.008,886.652z M557.492,884.987c-6.142,3.793-9.424,11.728-13.008,17.676
		c-0.57,0.945-1.519,2.263-1.334,3.334c3.784-1.345,7.533-4.492,12.006-7.336c3.768-2.396,9.88-6.052,14.343-5.004
		c3.48,0.818,5.247,5.336,5.002,10.673c-16.837,4.18-12.994,27.306-20.679,39.355c-1.053,1.652-2.616,3.041-2.334,4.001
		c6.333-0.172,9.421-3.914,14.674-4.001c1.832-0.03,4.094,1.509,6.338,1.334c13.368-1.04,1.206-33.693,17.343-32.019
		c0.352-0.018,0.263-0.428-0.332-0.332c-10.346,0.005-6.134-14.546-10.34-20.679c9.366-5.71,7.398,6.718,8.672,13.674
		c0.298,1.631,1.05,4.055,3.334,3.335c-1.021-6.871-2.474-16.201-3.669-24.012C578.137,886.37,566.423,887.756,557.492,884.987z
		 M487.118,889.655c-0.29,3.489,0.782,8.341-1,10.34c-6.476,1.757-8.493-3.701-15.342-2.668c-2.432,4.406-2.033,13.443-0.334,18.342
		c-4.782,0.226-8.909-0.205-12.34-1.334c0.183,11.746-0.127,22.997-1.334,33.352c5.022,1.717,13.947,2.614,18.677,0
		c-12.996-0.344-10.998-15.683-13.341-26.68c11.971,2.371,28.908-0.225,39.022,4.002c0-10.006,0-20.012,0-30.018
		C493.098,898.131,493.14,887.385,487.118,889.655z M548.486,930.679c1.055-1.613,1.541-3.797,1.334-6.672
		c-1.89,0.224-2.585-0.749-4.002-1C546.733,925.538,546.084,929.634,548.486,930.679z"/>
	<path fill-rule="evenodd" clip-rule="evenodd" d="M595.513,54.186c-4.275,3.284-12.018,3.101-17.342,5.336
		c-0.047-2.844-1.899-3.883-2.003-6.67C583.819,54.279,592.423,46.348,595.513,54.186z"/>
	<path fill-rule="evenodd" clip-rule="evenodd" d="M398.736,52.851c1.677,3.124-1.835,5.931-3.336,8.004
		c2.014,3.839,4.525,9.797,9.673,9.672c1.924-0.047,2.172-1.448,4.002-1c1.112,1.668-0.468,5.003,0.333,6.337
		c-8.146,0.414-14.101,3.02-12.673,13.007c-4.301,1.545-4.924-2.938-8.338-3.335c0.07-2.153,2.05-2.396,4.335-2.335
		c-0.117-2.439-3.964-1.149-5.336-2.334c4.68-6.893,0.318-16.436-5.67-18.677C382.942,54.623,392.911,55.809,398.736,52.851z"/>
	<path fill-rule="evenodd" clip-rule="evenodd" d="M594.179,65.191c0.207,2.987-2.235,3.323-1.668,6.67
		c-21.638-1.404-20.014,20.452-35.686,25.014c0,3.225,0,6.448,0,9.672c-4.668-1.781-8.514-4.384-15.343-4.002
		c-0.054-6.361,9.143-4.128,9.672-9.339c0.432-4.248-4.79-6.597-8.338-8.671c0.752-2.433,1.164-5.002,3.336-5.336
		c2.738-0.423,5.619,3.776,6.67,5.003c1.651,1.929,3.587,5.712,5.67,6.003c3.305,0.46,4.806-2.814,5.003-4.002
		c1.009-6.075-6.236-8.422-6.67-11.339c-0.625-4.198,2.464-7.454,6.67-8.338c0.908,3.912,2.241,7.669,5.67,8.338
		C579.025,76.785,582.778,62.817,594.179,65.191z"/>
	<path fill-rule="evenodd" clip-rule="evenodd" d="M476.112,69.527c-0.409,7.928-10.492,6.184-17.343,7.671
		C463.319,73.41,469.861,71.614,476.112,69.527z"/>
	<path fill-rule="evenodd" clip-rule="evenodd" d="M544.15,70.861c4.026,0.532,7.479,1.637,7.004,6.67c-2.334,0-4.669,0-7.004,0
		C544.15,75.308,544.15,73.085,544.15,70.861z"/>
	<path fill-rule="evenodd" clip-rule="evenodd" d="M589.511,79.533c0.386-0.054,0.593,0.074,0.666,0.334
		c-0.354,14.542-1.862,27.932-16.343,28.349C584.225,103.82,584.065,88.875,589.511,79.533z"/>
	<path fill-rule="evenodd" clip-rule="evenodd" d="M380.726,85.87c1.046,3.229-10.563,9.778-7.004,15.675
		c1.946,3.226,16.043,0.782,15.008,6.337c-0.775,4.166-7.055,0.223-9.672,2.334c-1.36,3.708,0.733,6.515,4.336,6.337
		c-2.483,5.043-8.908,3.303-12.674,0c-5.782-5.071-11.021-15.731-12.674-23.347C367.779,99.677,371.566,86.27,380.726,85.87z"/>
	<path fill-rule="evenodd" clip-rule="evenodd" d="M696.902,109.549c-20.232-0.702-43.808,2.887-48.36-14.007
		c8.578-0.27,11.265,13.176,20.345,9.339c3.859-1.631,4.328-6.259,6.004-10.673C685.831,95.718,695.902,98.098,696.902,109.549z"/>
	<path fill-rule="evenodd" clip-rule="evenodd" d="M688.898,112.551c1.599,2.961,4.673,6.22,6.004,8.338
		c-6.567,1.104-12.769-1.006-17.344-3.002c0-1.334,0-2.668,0-4.002C679.762,111.646,685.025,112.213,688.898,112.551z"/>
	<path fill-rule="evenodd" clip-rule="evenodd" d="M303.682,117.888c2.213,8.127,6.028,16.428,9.339,22.346
		c-13.292,2.53-13.836-13.224-19.01-21.012c-5.637-0.7-14.189,1.515-17.677-1.334C282.415,112.225,296.396,115.873,303.682,117.888z
		"/>
	<path fill-rule="evenodd" clip-rule="evenodd" d="M281.669,134.563c0.778,1.74-1.782,2.679-3.001,3.669
		c-4.061,3.299-9.579,6.892-15.008,8.671C264.295,137.422,272.563,135.573,281.669,134.563z"/>
	<path fill-rule="evenodd" clip-rule="evenodd" d="M762.272,139.232c4.512,9.506-5.064,15.3-11.006,18.678
		C753.491,150.239,758.991,145.846,762.272,139.232z"/>
	<path fill-rule="evenodd" clip-rule="evenodd" d="M290.008,141.568c8.974,1.032,11.496,8.515,20.345,9.672
		c-5.648,3.913-10.964,8.158-18.011,10.673C298.699,156.048,291.316,147.838,290.008,141.568z"/>
	<path fill-rule="evenodd" clip-rule="evenodd" d="M196.623,192.93c-5.157,0.357-8.573-2.742-7.671-7.337
		C193.38,184.96,195.412,189.266,196.623,192.93z"/>
	<path fill-rule="evenodd" clip-rule="evenodd" d="M202.292,195.932c2.055,5.332-5.537,6.351-7.004,10.339
		c2.436,3.932,7.371,7.041,13.675,6.003c1.717-1.062,1.886-3.672,3.001-5.335c6.633,1.122,4.552,9.922,1.668,13.674
		c-5.333-2.204-10.156-4.537-17.009-4.335c-16.118,0.473-24.347,14.536-29.35,26.681c-3.036,1.101-2.822-3.512-6.337-3.001
		c2.334-7.226,6.475-12.646,9.338-19.344c-3.081-3.343-15.087-2.324-13.674-9.005c1.175-5.554,8.347-0.021,11.673-0.667
		c5.082-0.986,1.984-9.784,6.337-12.34c5.246,1.203,3.686,9.21,7.004,12.34C190.341,207.994,190.785,194.986,202.292,195.932z"/>
	<path fill-rule="evenodd" clip-rule="evenodd" d="M145.26,220.946c0.91-0.243,0.671,0.663,1.334,0.667
		c0.03,2.592-2.682,4.205-1.334,7.004c-2.223,0.992-1.85-3.481-5.336-2.335C139.955,222.755,145.209,224.452,145.26,220.946z"/>
	<path fill-rule="evenodd" clip-rule="evenodd" d="M211.964,225.281c8.024,14.002-25.643,4.654-27.682,15.676
		c-0.896,4.844,3.232,5.926,8.005,7.337c-2.257,9.049-14.979,4.962-19.011,0.333c6.441-3.173,4.382-13.182,9.005-17.677
		C189.488,223.944,206.802,235.743,211.964,225.281z"/>
	<path fill-rule="evenodd" clip-rule="evenodd" d="M858.327,228.95c6.635,0.257,5.723,8.064,9.339,11.34c3.335,0,6.671,0,10.006,0
		c0.98,6.69,7.575,7.766,7.003,16.009c-8.448-7.441-17.564,4.987-25.014,7.337c0.201,3.023,3.639,2.81,3.002,6.67
		c-2.002,0.716-3.597,4.301-5.67,2.001c-0.052,5.945,1.959,9.825,1.334,16.342c-4.589,0.526-8.204,2.024-12.34,3.002
		c2.327-8.114-6.494-13.401-14.342-11.34c-4.903-19.174,10.819-25.677,11.339-42.69C851.062,238.686,858.686,237.332,858.327,228.95
		z M858.327,260.968c1.557-2.89,4.608-4.285,5.336-8.004c-5.034-3.524-7.568-11.33-16.676-9.672
		C848.635,251.316,854.285,255.338,858.327,260.968z M834.647,269.306c0.234,2.771,6.408,7.347,9.006,8.338
		c7.252,2.766,10.539-3.532,9.671-10.339c-0.86-6.752-7.195-12.217-10.34-16.009C844.86,260.067,834.177,263.754,834.647,269.306z"
		/>
	<path fill-rule="evenodd" clip-rule="evenodd" fill="#FFFFFF" d="M846.987,243.292c9.107-1.658,11.642,6.147,16.676,9.672
		c-0.728,3.72-3.779,5.114-5.336,8.004C854.285,255.338,848.635,251.316,846.987,243.292z"/>
	<path fill-rule="evenodd" clip-rule="evenodd" fill="#FFFFFF" d="M842.984,251.296c3.145,3.792,9.479,9.257,10.34,16.009
		c0.868,6.807-2.419,13.105-9.671,10.339c-2.598-0.991-8.771-5.567-9.006-8.338C834.177,263.754,844.86,260.067,842.984,251.296z"/>
	<path fill-rule="evenodd" clip-rule="evenodd" d="M118.911,274.643c-1.962,6.82-7.292,10.271-13.674,12.673
		c0.41,5.053,8.585,4.525,8.338,10.339c-0.144,3.387-6.546,8.82-11.006,7.671c-3.328-0.856-5.114-6.971-5.336-11.673
		c-0.463-9.763,4.062-20.044,9.338-23.013C111.33,271.329,113.622,274.484,118.911,274.643z"/>
	<path fill-rule="evenodd" clip-rule="evenodd" d="M128.917,280.646c2.776,1.226,4.99,3.015,8.004,4.002
		c-2.622,4.073-9.21,13.05-1.333,16.009c6.837,2.568,14.985-2.785,17.343-7.004c5.378,11.005-17.404,13.312-24.014,7.671
		c-6.655,3.573-3.546,16.909-14.007,16.676C116.997,302.966,126.934,295.783,128.917,280.646z"/>
	<path fill-rule="evenodd" clip-rule="evenodd" d="M913.691,321.002c0.821,5.827-4.399,7.317-4.002,12.007
		c0.408,4.812,6.617,5.556,10.006,8.671c3.305-0.253,5.199-1.917,7.003-3.669c1.833,3.394,3.423,7.028,3.669,12.007
		c-5.565,1.66-10.621,3.83-17.676,4.002c4.368-9.728-5.039-15.969-14.008-16.676c-0.223,8.339,4.971,11.261,5.336,19.011
		c-1.061,0.831-2.514,1.265-3.668,2.001c-4.325-1.233-2.633-8.484-5.671-11.006c-3.882,3.566,0.763,15.66-8.337,14.008
		c0.153-8.104,6.695-12.919,5.335-21.346c-1.188-7.369-11.236-7.96-10.006-17.676c2.95-0.842,7.057-0.842,10.006,0
		c1.156,3.754,1.923,8.976,5.337,9.672c6.621,1.35,10.272-8.087,12.674-12.674C911.669,319.244,912.266,320.538,913.691,321.002z"/>
	<path fill-rule="evenodd" clip-rule="evenodd" d="M135.588,321.669c0.001,2.781-2.251,3.307-2.668,5.67
		c-1.79-0.434-3.215-1.232-5.67-1C128.256,323.322,133.137,321.066,135.588,321.669z"/>
	<path fill-rule="evenodd" clip-rule="evenodd" d="M76.221,352.686c0.223,0,0.444,0,0.667,0c9.894,2.165,9.52,20.233,6.003,29.017
		c-8.541-2.465-18.008-4.004-18.01-15.008c4.507,0.833,12.455,12.159,15.676,4.001C82.989,364.539,77.362,357.615,76.221,352.686z"
		/>
	<path fill-rule="evenodd" clip-rule="evenodd" d="M95.231,384.704c-1.365,1.302-1.463,3.873-1.334,6.67
		c-7.788-0.369-13.273,4.708-20.344,2.001C79.964,389.804,84.615,381.977,95.231,384.704z"/>
	<path fill-rule="evenodd" clip-rule="evenodd" d="M928.7,393.709c-0.904,3.116-4.811,2.837-5.003,6.003
		c-0.385,6.336,13.421,7.053,19.344,4.669c3.903,7.548,7.689,15.212,7.005,27.348c-8.207,2.021-17.749,2.708-27.683,3.002
		c3.545-3.544,8.63-11.375,2.334-15.342c-4.097,0.016-5.98,2.246-10.672,1.668c-2.835-5.653,4.528-5.88,6.67-8.671
		c0.053-4.627-6.182-14.779-11.006-12.007c-1.013,0.582-1.608,1.766-1.334,3.669c-3.099-0.348-3.966-2.926-6.67-3.669
		c3.099-5.851,17.189-4.408,24.013-7.004C926.592,393.036,927.583,393.317,928.7,393.709z M940.373,427.728
		c6.217-0.029,5.08-15.136-3.001-12.34C934.682,418.97,935.985,427.749,940.373,427.728z"/>
	<path fill-rule="evenodd" clip-rule="evenodd" fill="#FFFFFF" d="M937.372,415.388c8.081-2.796,9.218,12.311,3.001,12.34
		C935.985,427.749,934.682,418.97,937.372,415.388z"/>
	<path fill-rule="evenodd" clip-rule="evenodd" d="M62.213,433.398c6.038-0.589,9.991,2.682,15.675,1.334
		c-1.218,1.872-4.529,9.601,0,11.006c7.613,2.362,13.537-13.699,22.346-7.003c-15.192,1.461-18.364,22.855-13.341,37.354
		c-3.155,0.928-4.341-2.993-4.002-6.671c-1.468,3.238-3.375,7.933-8.338,5.67c0-2.779,0-5.559,0-8.338
		c-5.188,0.452-4.606,9.463-10.005,8.671c-2.662-0.39-2.869-3.437-5.003-5.002C65.258,462.454,65.319,444.401,62.213,433.398z"/>
	<path fill-rule="evenodd" clip-rule="evenodd" d="M103.903,441.736c2.28,0.833,2.702,3.524,5.003,4.336
		c-1.445,4.761,0.142,9.643,0.334,14.675C103.687,458.399,102.956,449.475,103.903,441.736z"/>
	<path fill-rule="evenodd" clip-rule="evenodd" d="M922.029,475.422c8.094,8.695,7.329,26.246,9.672,40.689
		c-5.989-6.2-16.888-1.841-25.346-2.334c-5.024-0.293-10.487-2.993-12.009-8.005c-2.512-8.286,2.906-19.311,0-28.683
		c7.798,2.542,19.223,4.348,27.351,7.672C922.472,482.312,921.81,478.425,922.029,475.422z M909.689,488.763
		c0,1.556,0,3.112,0,4.668c2.036,1.167,5.554,1.561,8.338,1.001c-0.279-2.17,1.122-2.658,1.334-4.336
		C917.382,488.149,912.368,486.133,909.689,488.763z"/>
	<path fill-rule="evenodd" clip-rule="evenodd" fill="#FFFFFF" d="M919.361,490.097c-0.212,1.678-1.613,2.166-1.334,4.336
		c-2.784,0.56-6.302,0.166-8.338-1.001c0-1.557,0-3.113,0-4.668C912.368,486.133,917.382,488.149,919.361,490.097z"/>
	<path fill-rule="evenodd" clip-rule="evenodd" d="M68.55,516.78c-0.255,7.702,5.409,9.487,4.669,17.676
		c-3.895-1.664-6.009-5.109-8.671-8.006c-4.376-0.15-4.618,3.831-7.338,5.338c-3.69-3.314,1.446-15.454-7.337-13.676
		C54.166,514.771,62.751,517.784,68.55,516.78z"/>
	<path fill-rule="evenodd" clip-rule="evenodd" d="M79.89,528.118c4.001,2.403,0.349,10.891-4.003,8.006c0-2.225,0-4.447,0-6.672
		C77.599,529.386,79.733,529.741,79.89,528.118z"/>
	<path fill-rule="evenodd" clip-rule="evenodd" d="M56.21,539.458c6.91,7.609,32.301-3.156,28.016,14.676
		c-11.282-2.198-17.107,3.735-26.681,4.336c-0.785-0.91,1.41-2.398,1.667-4.003C60.041,549.279,53.683,544.769,56.21,539.458z"/>
	<path fill-rule="evenodd" clip-rule="evenodd" d="M907.021,573.478c-7.99,5.475-15.672-2.622-19.678-7.338
		c0.533-3.802,3.917-4.755,5.336-7.67c0.715-1.948-2.033-2.811-0.333-3.67C902.74,554.194,906.612,562.988,907.021,573.478z"/>
	<path fill-rule="evenodd" clip-rule="evenodd" d="M918.027,556.134c1.656,0.567,3.278,1.169,5.67,1.001
		c-0.319,5.017-1.907,8.764-2,14.008C912.944,571.766,916.805,561.032,918.027,556.134z"/>
	<path fill-rule="evenodd" clip-rule="evenodd" d="M917.694,597.49c-8.299-1.096-4.885-12.585-4.003-19.344
		c8.94-4.623,13.109-14.017,21.012-19.677c2.455,0.714,8.319-1.824,8.338,1.667c0.013,2.026-6.798,4.188-8.672,5.336
		C924.031,571.802,916.318,582.119,917.694,597.49z"/>
	<path fill-rule="evenodd" clip-rule="evenodd" d="M117.244,590.82c3.231,2.898,1.146,9.068,1.667,14.676
		c-3.374-0.478-3.387-5.019-7.004-5.336c-4.024-0.355-8.899,5.077-12.673,7.336c-9.527,5.7-21.911,8.404-27.683-3.334
		c-4.556,0.112-7.066,2.271-10.006,4.002c-1.504-1.498-1.733-4.27-2.334-6.671c7.905-1.773,16.987-4.129,26.015-3.669
		c-0.695,1.847-3.072,2.021-2.668,4.336c0.342,1.955,4.54,3.027,6.67,3.002C100.066,605.036,104.619,587.51,117.244,590.82z"/>
	<path fill-rule="evenodd" clip-rule="evenodd" d="M100.234,619.505c-9.612,7.729-16.745,17.938-30.017,22.012
		c0.577-12.654,17.557-8.905,19.345-20.346C93.646,621.143,95.639,619.021,100.234,619.505z"/>
	<path fill-rule="evenodd" clip-rule="evenodd" d="M887.01,669.198c-3.172-6.545,5.266-8.544,7.337-13.008
		c-7.64-10.216,10.561-18.467,13.675-6.671C903.537,657.048,894.12,664.295,887.01,669.198z"/>
	<path fill-rule="evenodd" clip-rule="evenodd" d="M143.925,703.885c-5.325-5.035-10.951,1.118-16.342,2
		c-0.458-5.586,5.354-7.752,8.004-11.339c-2.629-4.978-3.789-15.616-9.672-16.676c-3.981-0.718-5.264,2.847-9.338,3.335
		c0.304-15.58,27.754-22.331,34.353-7.004C151.958,687.245,142.312,691.362,143.925,703.885z M136.921,676.535
		c-1.643,3.843-0.365,9.108,4.67,8.338c1.823-1.289,2.571-3.654,2.334-7.003C142.418,676.597,139.854,676.382,136.921,676.535z"/>
	<path fill-rule="evenodd" clip-rule="evenodd" fill="#FFFFFF" d="M143.925,677.87c0.237,3.349-0.511,5.714-2.334,7.003
		c-5.035,0.771-6.312-4.495-4.67-8.338C139.854,676.382,142.418,676.597,143.925,677.87z"/>
	<path fill-rule="evenodd" clip-rule="evenodd" d="M853.657,702.217c-1.663,8.008-10.551,8.793-12.006,17.01
		c11.416,2.146,19.181-5.025,23.346-12.341c8.869,4.25,17.155,9.082,26.682,12.674c1.857,5.381-0.441,10.684-2.667,14.009
		c1.324-7.137-4.009-12.707-9.673-15.01c-6.078,11.375-11.54,23.368-27.682,24.68c-1.219,5.245,0.889,9.992,2.334,13.676
		c8.649-1.578,12.097-8.36,23.681-7.004c-2.907,5.136-9.523,6.583-15.009,10.339c-0.85,0.582-3.697,3.952-4.336,4.002
		c-1.305,0.104-6.515-5.132-8.338-6.336c-8.672-5.728-19.645-10.738-25.014-19.011c3.871-1.411,10.235-3.173,11.006-7.337
		c0.994-5.372-6.914-6.383-6.003-11.008c0.331-1.686,5.882-5.419,7.671-7.337c2.409-2.584,5.05-6.291,7.004-8.004
		C846.717,703.407,850.61,700.413,853.657,702.217z M860.995,723.896c-1.358-0.977-0.898-3.77-2.668-4.336
		c-5.117,2.037-15.597,14.838-4.67,17.01c11.546,2.295,24.017-12.494,11.34-18.011C864.13,720.803,863.66,723.448,860.995,723.896z"
		/>
	<path fill-rule="evenodd" clip-rule="evenodd" fill="#FFFFFF" d="M864.997,718.559c12.677,5.517,0.206,20.306-11.34,18.011
		c-10.927-2.172-0.447-14.973,4.67-17.01c1.77,0.566,1.31,3.359,2.668,4.336C863.66,723.448,864.13,720.803,864.997,718.559z"/>
	<path fill-rule="evenodd" clip-rule="evenodd" d="M152.264,757.581c0.921-0.143,0.313,1.243,1,1.334
		c-1.284,3.497-3.961,5.599-9.005,5.336C145.743,760.843,150.769,760.978,152.264,757.581z"/>
	<path fill-rule="evenodd" clip-rule="evenodd" d="M779.283,773.924c1.706,8.09,0.47,19.498,5.336,24.013
		c1.651,1.532,4.636,2.748,7.337,2.002c2.978-0.823,4.685-7.16,8.005-6.337c4.445,1.1-1.371,9.527-4.002,9.338
		c4.271,3.066,6.858,7.818,12.34,9.673c-5.142,6.341-11.38-3.082-15.341-5.337c-20.337,4.788-16.626,33.625-35.021,40.356
		c0.118-1.34-0.005-2.441-1.001-2.668c5.969-0.093,16.496-18.307,6.671-19.677c6.396-3.832,11.41-14.943,8.006-23.015
		c-2.331-5.52-11.723-3.644-12.343-10.006c3.576-7.207,7.611,4.209,14.343,0.334C778.918,789.547,772.695,777.569,779.283,773.924z
		 M778.615,812.278c2.452-3.439,6.738-5.047,8.338-9.339C781.539,798.362,774.985,806.749,778.615,812.278z"/>
	<path fill-rule="evenodd" clip-rule="evenodd" d="M193.954,781.261c3.26,0.743,6.267,1.737,5.67,6.338
		c-3.356,0.867-6.688,1.762-8.338,4.335c-1.897-1.216-4.062-2.163-4.335-5.003C188.141,783.897,194.864,786.395,193.954,781.261z"/>
	<path fill-rule="evenodd" clip-rule="evenodd" d="M786.953,802.939c-1.6,4.292-5.886,5.899-8.338,9.339
		C774.985,806.749,781.539,798.362,786.953,802.939z"/>
	<path fill-rule="evenodd" clip-rule="evenodd" d="M276,818.281c9.674,3.223,6.381,19.412,10.673,28.017
		c-5.071,3.045-15.639,0.593-16.343,8.004c-8.454-4.442-17.335-8.455-20.678-18.009c7.093-1.497,8.224,5.756,13.675,7.002
		c2.166-7.599-1.534-16.021-2.335-21.679C265.626,820.692,275.259,824.534,276,818.281z M270.664,830.955
		c-1.792,2.543-1.738,6.934-1.667,11.34c3.25,1.618,9.111,1.737,12.34,0C281.373,836.242,278.729,830.015,270.664,830.955z"/>
	<path fill-rule="evenodd" clip-rule="evenodd" fill="#FFFFFF" d="M281.336,842.295c-3.229,1.737-9.09,1.618-12.34,0
		c-0.071-4.406-0.125-8.797,1.667-11.34C278.729,830.015,281.373,836.242,281.336,842.295z"/>
	<path fill-rule="evenodd" clip-rule="evenodd" d="M692.567,859.973c-19.8-2.192-10.9,18.605-12.34,32.018
		c1.736,2.505,2.771,5.686,5.669,6.337c8.938,2.006,12.989-10.304,18.345-13.009c2.999,7.36-12.303,9.079-5.002,16.677
		c-12.337,4.956-30.897,11.526-46.36,5.337c0.57-11.823-13.35-11.982-13.009-24.681c4.891,5.195,15.714,4.506,25.015,3.67
		c4.942,5.729-1.216,22.562,11.006,21.011c9.364-11.776-1.278-25.565-5.669-36.021c-1.217-2.897-1.11-6.258-2.335-8.671
		c-1.312-2.587-5.231-2.819-7.67-1.334c3.897-8.888,16.034-12.425,24.68-17.678C688.412,848.119,690.697,853.839,692.567,859.973z"
		/>
	<path fill-rule="evenodd" clip-rule="evenodd" d="M267.662,855.97c1.052,3.951,4.446,5.56,4.002,11.007
		c-6.955,0.617-10.807-1.867-16.343-2.67C256.65,858.743,260.795,855.995,267.662,855.97z"/>
	<path fill-rule="evenodd" clip-rule="evenodd" d="M656.881,861.307c-1.498,10.619-12.518,11.718-16.676,19.677
		c-3.046-3.068-3.685-8.545-4.337-14.007C644.82,870.459,649.979,863.039,656.881,861.307z"/>
	<path fill-rule="evenodd" clip-rule="evenodd" d="M299.347,865.641c-0.946,1.279-2.886,1.562-2.668,4.004
		c-2.833,0.09-4.919-1.05-5.337-2.668C289.832,861.118,296.669,863,299.347,865.641z"/>
	<path fill-rule="evenodd" clip-rule="evenodd" d="M404.406,883.318c2.532,4.582,6.195,8.034,9.005,12.34
		c-9.012-2.911-21.113,2.887-30.684,2.001c-6.794-0.628-10.149-5.223-12.341-11.338c-4.034,0.188-5.267,3.181-7.003,5.669
		c4.649,4.516,12.222,7.724,10.005,18.011c-6.355,0.547-4.174-6.279-8.671-7.005c-8.469-1.364-2.273,11.36-8.338,13.675
		c-1.578-18.97,6.031-31.511,10.339-45.692c9.489-1.524,15.206,2.341,21.012,6.671c3.458,2.578,7.969,7.165,11.006,7.338
		C400.91,885.108,402.111,883.293,404.406,883.318z M388.397,883.318c-1.742-1.741-9.925-5.601-11.674-3.002
		c-0.7,1.042-0.576,4.434-0.333,5.671c1.061,5.401,8.97,10.374,15.008,6.003C390.976,887.858,390.396,885.317,388.397,883.318z"/>
	<path fill-rule="evenodd" clip-rule="evenodd" d="M301.014,879.649c-0.555,2.669-3.009,3.439-2.668,7.003
		c-0.818-3.815-8.368-6.11-8.338,0C286.461,881.459,296.746,875,301.014,879.649z"/>
	<path fill-rule="evenodd" clip-rule="evenodd" fill="#FFFFFF" d="M391.398,891.99c-6.039,4.371-13.947-0.602-15.008-6.003
		c-0.243-1.237-0.367-4.629,0.333-5.671c1.749-2.599,9.932,1.261,11.674,3.002C390.396,885.317,390.976,887.858,391.398,891.99z"/>
	<path fill-rule="evenodd" clip-rule="evenodd" d="M587.508,884.987c1.195,7.811,2.647,17.141,3.669,24.012
		c-2.284,0.72-3.036-1.704-3.334-3.335c-1.273-6.956,0.694-19.384-8.672-13.674c4.206,6.133-0.006,20.684,10.34,20.679
		c0.595-0.096,0.684,0.314,0.332,0.332c-16.137-1.675-3.975,30.979-17.343,32.019c-2.244,0.175-4.506-1.364-6.338-1.334
		c-5.253,0.087-8.341,3.829-14.674,4.001c-0.282-0.96,1.281-2.349,2.334-4.001c7.685-12.05,3.842-35.176,20.679-39.355
		c0.245-5.337-1.521-9.854-5.002-10.673c-4.463-1.048-10.575,2.607-14.343,5.004c-4.473,2.844-8.222,5.991-12.006,7.336
		c-0.185-1.071,0.764-2.389,1.334-3.334c3.584-5.948,6.866-13.883,13.008-17.676C566.423,887.756,578.137,886.37,587.508,884.987z
		 M571.833,922.341c3.557-0.112,5.601-1.736,5.335-5.67C573.381,914.421,569.634,918.603,571.833,922.341z"/>
	<path fill-rule="evenodd" clip-rule="evenodd" d="M501.126,894.991c0,10.006,0,20.012,0,30.018
		c-10.114-4.227-27.051-1.631-39.022-4.002c2.344,10.997,0.346,26.336,13.341,26.68c-4.73,2.614-13.655,1.717-18.677,0
		c1.207-10.354,1.518-21.605,1.334-33.352c3.431,1.129,7.558,1.56,12.34,1.334c-1.699-4.898-2.098-13.936,0.334-18.342
		c6.849-1.033,8.866,4.425,15.342,2.668c1.782-1.999,0.71-6.851,1-10.34C493.14,887.385,493.098,898.131,501.126,894.991z"/>
	<path fill-rule="evenodd" clip-rule="evenodd" fill="#FFFFFF" d="M577.168,916.671c0.266,3.934-1.778,5.558-5.335,5.67
		C569.634,918.603,573.381,914.421,577.168,916.671z"/>
	<path fill-rule="evenodd" clip-rule="evenodd" d="M545.818,923.007c1.417,0.251,2.112,1.224,4.002,1
		c0.207,2.875-0.279,5.059-1.334,6.672C546.084,929.634,546.733,925.538,545.818,923.007z"/>
	<path fill-rule="evenodd" clip-rule="evenodd" d="M767.609,208.272c-1.005-20.119-3.413-38.833-22.013-41.357
		c-0.54-3.875,2.11-4.56,2.668-7.337c2.72,10.288,18.988,7.028,29.351,9.672c-0.514,4.418-2.489,8.96-1.334,13.341
		c1.495,5.673,10.954,7.232,17.344,7.004c3.518-2.821-0.617-8.418-2.002-9.339c8.068-1.762,10.694,7.176,14.008,12.341
		c-4.676,2.885-6.59,8.529-12.341,10.339c-1.863-7.25-10.308-14.105-17.343-7.338c-1.592,1.532-3.295,4.607-3.669,6.671
		c-1.146,6.349,2.676,11.34,7.005,15.007C775.047,214.62,772.971,209.802,767.609,208.272z"/>
	<path fill-rule="evenodd" clip-rule="evenodd" d="M119.246,620.838c3.569-0.457,3.965,2.26,7.671,1.667
		c-1.4,2.269-6.28,1.058-8.672,2.335C118.019,624.267,119.061,622.109,119.246,620.838z"/>
</g>
<path fill="none" stroke="#000000" stroke-width="4" d="M844.047,663.462"/>
<path fill="none" stroke="#000000" stroke-width="4" d="M844.047,337.686"/>
<g>
	<line fill="none" stroke="#000000" stroke-width="4" x1="471.969" y1="156.183" x2="471.969" y2="820.817"/>
	<line fill="none" stroke="#000000" stroke-width="4" x1="396.753" y1="193.005" x2="396.753" y2="819.64"/>
	<line fill="none" stroke="#000000" stroke-width="4" x1="547.185" y1="166.005" x2="547.185" y2="820.074"/>
	<line fill="none" stroke="#000000" stroke-width="4" x1="321.538" y1="228.911" x2="321.538" y2="789.554"/>
	<line fill="none" stroke="#000000" stroke-width="4" x1="622.4" y1="201.74" x2="622.4" y2="820.291"/>
	<line fill="none" stroke="#000000" stroke-width="4" x1="697.615" y1="238.883" x2="697.615" y2="765.934"/>
	<line fill="none" stroke="#000000" stroke-width="4" x1="246.322" y1="264.281" x2="246.322" y2="695.579"/>
	<line fill="none" stroke="#000000" stroke-width="4" x1="171.107" y1="497.339" x2="171.107" y2="601.721"/>
	<line fill="none" stroke="#000000" stroke-width="4" x1="772.831" y1="273.804" x2="772.831" y2="670.81"/>
	<polygon fill="none" stroke="#000000" stroke-width="4" points="335.887,840.5 131.309,583.964 204.319,264.068 499.949,121.7 
		795.581,264.068 868.599,583.964 664.013,840.5 	"/>
	<polygon fill="none" stroke="#000000" stroke-width="4" points="345.339,820.281 152.547,578.525 221.352,277.06 499.949,142.893 
		778.549,277.06 847.359,578.525 654.561,820.281 	"/>
</g>
</svg>
