<?xml version="1.0" encoding="utf-8"?>
<!-- Generator: Adobe Illustrator 14.0.0, SVG Export Plug-In . SVG Version: 6.00 Build 43363)  -->
<!DOCTYPE svg PUBLIC "-//W3C//DTD SVG 1.1//EN" "http://www.w3.org/Graphics/SVG/1.1/DTD/svg11.dtd">
<svg version="1.1" id="Layer_1" xmlns="http://www.w3.org/2000/svg" xmlns:xlink="http://www.w3.org/1999/xlink" x="0px" y="0px"
	 width="1000px" height="1000px" viewBox="0 0 1000 1000" enable-background="new 0 0 1000 1000" xml:space="preserve">
<g>
	<path fill-rule="evenodd" clip-rule="evenodd" d="M504.295,34.337c-1.864,10.977,0.508,22.571,0,34.362
		c-9.392,5.965-35.963-6.421-37.111,8.247c-0.338,4.315,2.995,12.261,7.904,12.715c3.174,0.293,3.718-2.416,5.841-1.375
		c-0.301,4.968-3.15,7.388-5.498,10.309c-8.99-1.996-13.454-11.031-14.775-21.991c-0.436-3.609-1.324-8.303-0.688-11.34
		c0.66-3.149,5.661-8.708,8.591-10.996c1.379-1.077,4.228-2.704,5.841-2.749c5.735-0.162,21.414,12.141,19.588-3.093
		c-1.55-2.116-6.181-1.15-9.622-1.375C485.203,37.224,493.434,33,504.295,34.337z"/>
	<path fill-rule="evenodd" clip-rule="evenodd" d="M577.488,43.272c-1.152,4.625-5.398,6.906-9.621,6.871
		c-5.211-0.043-7.836-5.047-11.684-5.842c-3.566,6.247-5.725,17.818,3.436,19.243c11.293,1.758,30.285-4.748,38.83,0.688
		c-11.359,2.729-28.141,0.037-33.332,8.935c-6.395,0.771-9.711-2.943-15.119-2.062c-2.412-11.059,0.127-24.092,2.062-34.019
		C563.088,36.314,565.85,48.971,577.488,43.272z"/>
	<path fill-rule="evenodd" clip-rule="evenodd" d="M389.868,62.858c1.041,7.118-8.17,7.397-7.216,13.4
		c0.596,3.75,5.698,3.36,7.56,6.529c4.701-0.699,4.254-8.963,8.591-9.965c3.349-0.773,5.012,2.159,8.247,3.093
		c-1.225,5.877-5.633,8.57-9.966,11.339c1.512,8.225,10.192,9.28,17.869,11.34c-19.267,6.214-40.086-8.544-40.204-28.177
		c-0.027-4.449,2.023-8.992-3.093-10.309C377.517,55.529,383.85,62.225,389.868,62.858z"/>
	<path fill-rule="evenodd" clip-rule="evenodd" d="M356.537,81.414c-5.044-1.825,1.832-11.675-3.78-13.059
		c0.452-3.098,5.232-1.869,5.498-5.153C367.796,65.4,362.271,78.945,356.537,81.414z"/>
	<path fill-rule="evenodd" clip-rule="evenodd" d="M597.418,72.823c0,1.947,0,3.895,0,5.842c-5.088,1.521-4.463-4.984-8.246-5.842
		C590.451,69.751,595.311,71.816,597.418,72.823z"/>
	<path fill-rule="evenodd" clip-rule="evenodd" d="M704.973,79.009c0.084,12.73-20.227,7.402-18.9-2.75
		C692.525,74.156,697.742,80.745,704.973,79.009z"/>
	<path fill-rule="evenodd" clip-rule="evenodd" d="M286.781,87.6c9.766,2.031,0.554,23.041,12.714,22.679
		c-1.205,5.73-8.972,5.049-14.089,6.872c-2.098,0.748-3.112,2.209-4.811,2.405c-3.509-7.486-6.47-15.522-9.277-23.71
		c5.903-1.018,6.338,6.139,10.995,5.842C286.927,101.394,286.924,94.263,286.781,87.6z"/>
	<path fill-rule="evenodd" clip-rule="evenodd" d="M717.342,91.723c-3.398,7.137-6.15,14.924-9.275,22.336
		c-3.57-1.035-9.975-1.908-13.059-0.688c-7.006,2.771-0.68,18.514-10.309,18.212c-0.305-14.193,3.49-27.185,17.182-28.521
		c0.18-4.171-0.73-9.435,1.719-11.34C708.18,91.723,712.76,91.723,717.342,91.723z"/>
	<path fill-rule="evenodd" clip-rule="evenodd" d="M367.876,94.128c3.96-0.065,8.054-0.266,9.966,1.718
		C374.977,97.459,369.809,95.71,367.876,94.128z"/>
	<path fill-rule="evenodd" clip-rule="evenodd" d="M669.236,94.815c1.459,0.259,2.176,1.261,4.123,1.03
		c1.213,13.501-13.01,13.293-10.309,27.146c-0.949,0.835-3.158-2.69-3.436-4.123C657.744,109.219,670.127,104.578,669.236,94.815z"
		/>
	<path fill-rule="evenodd" clip-rule="evenodd" d="M282.313,141.548c10.1-0.324,20.539-0.308,30.239-1.03
		c-1.07,0.534,1.062,2.13,1.031,2.405c-0.49,4.356-16.365,1.934-20.962,2.405c-8.671,0.889-12.493,9.784-3.436,12.026
		c-6.869,7.45-15.558,13.079-25.772,17.182c-6.466-3.5-9.403-12.359-13.058-17.525c6.821-0.737,4.758,10.354,10.309,12.027
		c5.515-1.157,11.041-4.073,10.309-9.622c-0.665-5.045-9.629-10.807-13.745-13.744c-6.2-4.425-11.571-7.848-17.524-9.621
		c1.803-7.023,8.627-0.823,13.401,3.093c5.501,4.51,15.292,11.324,19.587,1.03c0.555-4.679-1.35-6.897-1.719-10.652
		c1.104-1.416,4.3-0.74,4.124-3.437C280.81,127.933,279.181,137.122,282.313,141.548z"/>
	<path fill-rule="evenodd" clip-rule="evenodd" d="M778.166,165.945c9.719,7.804,10.24,27.785,24.74,31.958
		c-13.455,3.226-27.111-2.47-32.988-8.935c5.156-0.117,10.17-0.091,13.744,1.374c3.111-9.688-3.75-15.196-8.934-19.587
		c-1.559-1.319-4.607-4.574-5.842-4.811c-7.438-1.423-7.047,9.312-14.775,7.561c1.609-3.498,3.855-7.479,5.498-12.028
		c1.602-4.431,2.633-9.228,4.811-13.058c2.195-0.132,1.59,2.534,2.748,3.438c7.822-0.197,9.875-6.162,13.746-10.31
		c5.246-1.012,12.975-3.187,18.555-0.343c4.693,2.391,9.375,10.065,13.059,14.775c5.941,7.597,14.664,18.023,6.873,28.521
		c-25.117,2.323-15.775-29.812-27.146-41.235c-9.029,0.019-11.549,6.548-15.807,11.339c6.344,12.097,21.832,15.05,27.145,28.178
		C790.684,184.321,787.771,169.991,778.166,165.945z M802.219,161.478c-1.299,9.44,3.314,15.302,13.402,14.434
		C822.125,167.563,811.816,155.815,802.219,161.478z"/>
	<path fill-rule="evenodd" clip-rule="evenodd" d="M815.621,175.911c-10.088,0.868-14.701-4.993-13.402-14.434
		C811.816,155.815,822.125,167.563,815.621,175.911z"/>
	<path fill-rule="evenodd" clip-rule="evenodd" d="M179.227,178.659c0.292-0.062,0.324,0.135,0.343,0.345
		c6.388,3.654,12.501,9.406,19.587,16.493c5.432,5.432,16.048,12.727,16.838,18.899c0.303,2.368-0.916,6.045-2.062,6.186
		c-2.319,0.284-4.604-9.777-9.965-6.873c-3.205,2.369-0.481,8.649-1.719,12.715c-6.196,0.012-5.191-7.179-8.591-9.965
		c-6.205,0.896-5.195,9.007-14.089,7.216c2.709-7.263,5.529-17.376,15.12-18.899c-2.383-4.372-8.289-2.763-11.684-0.344
		c-2.496,1.779-3.721,4.716-5.842,5.842c-1.042-3.157,2.757-4.307,3.437-6.873c-7.081,2.495-14.737-3.827-21.305-2.748
		c-2.849,0.468-4.588,2.999-4.123,6.185c0.437,2.994,5.759,8.356,8.246,10.652c3.61,3.332,7.078,5.452,11.684,6.872
		c-5.489,11.439-11.847-6.71-20.274-5.154c-6.666,1.23-2.266,13.259-9.965,14.089c-0.032-6.025,3.56-12.644,0-17.182
		c-5.92-0.651-6.24,4.298-11.34,4.468c-0.356-14.561,19.493-8.914,17.182-25.429c6.449-4.317,8.354-13.181,18.899-13.401
		c-1.396,4.109-6.057,5.349-5.842,10.31c0.298,6.846,11.527,8.298,16.838,4.123C181.876,189.935,178.046,184.869,179.227,178.659z"
		/>
	<path fill-rule="evenodd" clip-rule="evenodd" d="M878.16,221.957c1.791,0.499,2.074,2.508,4.123,2.748
		c-1.41,2.891-6.223,3.213-9.965,2.749C872.936,224.292,877.754,225.331,878.16,221.957z"/>
	<path fill-rule="evenodd" clip-rule="evenodd" d="M863.041,233.296c1.92,1.075,2.094,3.275,4.123,4.811
		c5.404,4.091,15.416,5.44,20.961,1.031c15.707,8.861,9.953,49.749-12.713,42.953c-4.027,5.208-9.842,13.229-19.244,12.027
		c-1.775-0.228-6.754-2.28-6.873-3.437c-0.197-1.926,6.834-4.173,7.217-7.216c0.957-7.62-10.279-8.219-13.059-12.715
		c3.787-7.209,5.496-16.495,15.463-17.524c-1.494-4.004-6.668-7.306-8.246-12.37C855.062,238.604,857.986,234.886,863.041,233.296z
		 M889.498,263.191c0-4.238,0-8.476,0-12.714c-7.189-6.211-23.875-4.759-30.924-9.965
		C865.346,251.421,870.547,265.592,889.498,263.191z M870.943,272.813c1.359-5.164-7.15-12.02-12.027-9.622
		c-2.066,1.017-2.838,4.485-2.061,8.591C858.293,275.6,869.68,277.613,870.943,272.813z"/>
	<path fill-rule="evenodd" clip-rule="evenodd" d="M840.705,247.385c0.494,0.192,0.838,0.536,1.029,1.03
		c-1.082,3.728-5.447,4.175-6.527,7.904C830.174,252.143,839.283,250.471,840.705,247.385z"/>
	<path fill-rule="evenodd" clip-rule="evenodd" fill="none" d="M856.855,271.782c-0.777-4.105-0.006-7.574,2.061-8.591
		c4.877-2.397,13.387,4.458,12.027,9.622C869.68,277.613,858.293,275.6,856.855,271.782z"/>
	<path fill-rule="evenodd" clip-rule="evenodd" d="M105.003,273.5c3.709-0.388,4.151,2.493,7.217,2.749
		c-1.378,5.638,1.359,10.078,1.374,15.463c-5.214-3.377-16.892-0.29-19.931-5.842C96.905,281.209,106.607,283.008,105.003,273.5z"/>
	<path fill-rule="evenodd" clip-rule="evenodd" d="M932.451,356.313c-6.58,0.979-12.26,2.858-18.211,4.468
		c-1.885-6.42-4.283-12.573-6.871-18.556c-2.51-5.792-5.906-11.757-5.5-18.213c2.9-1.214,4.291,1.524,6.186,2.406
		c1.539-5.174,4.809-10.459,11.34-9.966c5.975,0.451,14.799,7.633,15.807,12.714c0.662,3.348,0.02,10.301,0,14.433
		C935.18,348.213,933.832,352.762,932.451,356.313z M913.553,320.921c-2.412,9.515,11.049,8.02,7.561-0.345
		C918.67,320.769,915.436,320.169,913.553,320.921z M918.02,354.939c17.197-4.592-0.926-24.561-9.965-25.428
		C912.322,337.042,916,345.163,918.02,354.939z"/>
	<path fill-rule="evenodd" clip-rule="evenodd" d="M136.273,325.044c-5.258,1.952-14.597,5.26-19.931,1.03
		C116.145,314.733,134.597,316.506,136.273,325.044z"/>
	<path fill-rule="evenodd" clip-rule="evenodd" fill="none" d="M921.113,320.576c3.488,8.364-9.973,9.859-7.561,0.345
		C915.436,320.169,918.67,320.769,921.113,320.576z"/>
	<path fill-rule="evenodd" clip-rule="evenodd" fill="none" d="M908.055,329.512c9.039,0.867,27.162,20.836,9.965,25.428
		C916,345.163,912.322,337.042,908.055,329.512z"/>
	<path fill-rule="evenodd" clip-rule="evenodd" d="M882.283,329.512c10.613,7.482,20.371,15.824,20.273,34.018
		c-4.127,0.134-8.965,4.528-14.088,3.78c-1.475-0.215-4.846-2.333-4.467-4.811c0.727-4.757,11.092-2.147,12.713-6.872
		C896.271,342.554,881.824,343.486,882.283,329.512z"/>
	<path fill-rule="evenodd" clip-rule="evenodd" d="M80.605,356.313c-11.178,3.963-11.478,25.284-3.093,32.645
		c2.988-7.463,12.756-22.47,6.186-29.896c14.194-0.334,21.565,6.154,34.362,7.217c-1.615,5.142-8.125,5.39-8.59,11.684
		c-1.096-1.18-1.569-3.042-2.405-4.468c-2.136-3.642-7.458-9.077-11.684-8.247c-3.832,0.753-5.326,9.533-6.529,14.089
		c-1.547,5.857-3.267,10.801-5.154,15.119c1.344,3.696,8.85,1.23,8.591,6.529c-5.138,0.413-7.864-1.28-10.996-3.437
		c-2.656-1.829-6.021-5.246-8.934-5.154c-4.455,0.14-6.215,7.402-13.402,4.467c-6.591-5.423,4.156-16.367-2.404-21.648
		c-1.744-0.598-0.8,1.492-2.062,1.375c-0.149-1.176-0.782-3.092,0-4.123c1.367-0.58,3.625-0.271,5.498-0.345
		c5.249-4.257,7.325-11.688,10.996-17.524C74.848,354.533,76.797,357.364,80.605,356.313z"/>
	<path fill-rule="evenodd" clip-rule="evenodd" d="M936.92,423.664c2.332,8.808,15.145,13.452,25.428,8.935
		c-2.014,9.67-18.941,4.427-27.146,7.903c-4.449-8.838-13.238-13.335-20.273-19.587c-4.953,0.774-5.539,5.916-10.309,6.873
		c-0.557-1.146,0.164-4.748,0-6.529c-0.521-5.672-4.309-10.76-5.154-15.807c3.291-2.138,8.256-2.424,13.059-3.093
		c4.672-0.651,9.057-1.927,12.369-2.748c1.549,1.478-0.113,4.036,0.344,6.528c1.584-0.919,6.184-8.333,8.592-2.405
		c2.363-5.54,9.143-6.662,15.119-8.591C956.168,403.531,949.578,426.495,936.92,423.664z"/>
	<path fill-rule="evenodd" clip-rule="evenodd" d="M61.02,439.472c0.229,0,0.458,0,0.687,0c-1.979,9.175,0.959,18.202,11.34,17.181
		c-1.236,5.99-0.764,16.641-1.375,24.397c-2.72,0.781-4.297-1.649-6.872-2.062c-2.729-5.749,4.038-5.698,4.468-9.966
		c0.245-2.438-0.974-6.069-3.093-7.903c-2.424-2.097-8.063-4.909-10.309-4.467c-4.414,0.87-3.315,11.65,1.374,12.026
		c-3.429,2.453-9.024,0.154-10.996-2.062C48.682,455.081,47.748,440.174,61.02,439.472z"/>
	<path fill-rule="evenodd" clip-rule="evenodd" d="M956.506,481.05c-1.865,3.062-7.029,2.82-9.621,5.154
		c-1.76,4.351,3.693,10.521-1.719,11.683c-1.453-8.079-10.248-16.002-18.557-9.965C927.172,477.971,946.953,482.052,956.506,481.05z
		"/>
	<path fill-rule="evenodd" clip-rule="evenodd" d="M916.646,501.324c8.553,8.514,27.176,6.956,32.645,18.556
		c-16.223,1.264-21.664-11.048-35.395-13.402C913.115,503.062,916.652,503.965,916.646,501.324z"/>
	<path fill-rule="evenodd" clip-rule="evenodd" d="M100.536,525.033c-2.275,2.881-8.457,1.852-11.34,4.124
		c0.351,6.063,3.773,9.056,4.124,15.12c-1.09,0.671-3.025-2.039-4.812-2.406c-8.219-1.689-13.138,6.914-19.587,7.904
		c-2.389,7.776,5.453,9.463,4.812,15.463c-12.009-4.601-5.101-28.117-8.935-40.892c1.723-0.797,4.922-0.118,7.216-0.344
		c1.246,4.992-2.862,12.312,1.031,15.807c6.956-3.695,13.888-7.417,14.776-17.181C92.708,522.434,98.595,521.498,100.536,525.033z"
		/>
	<path fill-rule="evenodd" clip-rule="evenodd" d="M37.652,524.003c7.266,3.501,12.24,9.294,14.089,18.212
		C44.129,539.061,37.901,534.522,37.652,524.003z"/>
	<path fill-rule="evenodd" clip-rule="evenodd" d="M954.1,582.763c0.551-8.225-4.762-10.584-5.84-17.181
		c18.668,5.209,9.936,37.396-2.75,42.609c-9.266-2.991-18.438-6.074-20.273-16.493c7.949,2.09,25.52,19.104,28.863,0.686
		c-2.66-4.971-12.152-1.751-18.555-2.404c-3.521-14.577-25.174-11.021-30.238-24.054C926.641,553.193,930.262,598.817,954.1,582.763
		z"/>
	<path fill-rule="evenodd" clip-rule="evenodd" d="M106.378,601.318c1.394,4.94-3.235,8.195-2.749,12.714
		c0.491,4.573,6.132,7.47,11.684,4.812c1.812,5.106,9.258,13.465,3.779,19.242c-2.119-3.378-2.303-8.692-5.498-10.995
		c-9.305,1.966-12.893-4.43-17.181-8.591c-4.215,0.832-8.733,1.729-9.622,5.154c-2.317,8.932,10.356,15.222,17.524,16.15
		c-15.33,6.361-28.025-9.601-22.335-25.428c-6.369-1.214-11.493,1.792-14.433,5.154c-4.527-2.116-6.552-6.735-12.026-7.903
		c9.784-1.717,26.047-11.327,32.301-0.344C97.512,611.645,96.269,599.413,106.378,601.318z"/>
	<path fill-rule="evenodd" clip-rule="evenodd" d="M924.893,650.114c-5.945,4.169-14.822-1.266-21.992-0.345
		c-9.648,1.24-12.672,14.473-24.74,11.684c3.326-6.813,14.43-6.347,13.057-15.463c-0.58-3.864-7.279-4.982-4.811-8.591
		C897.76,641.741,916.402,641.765,924.893,650.114z"/>
	<path fill-rule="evenodd" clip-rule="evenodd" d="M78.887,647.021c-1.244,2.731-6.913,3.043-9.62,1.374
		c-0.98-2.466,0.432-4.905,1.03-6.873C74.426,642.089,75.72,645.49,78.887,647.021z"/>
	<path fill-rule="evenodd" clip-rule="evenodd" d="M913.896,664.201c-1.107,5.826-10.133,12.573-4.467,18.556
		c-2.494,3.425-6.916-0.692-9.621-1.374C903.816,675.331,902.912,661.021,913.896,664.201z"/>
	<path fill-rule="evenodd" clip-rule="evenodd" d="M139.709,687.225c1.053,4.603-3.023,4.077-4.467,6.187
		c-1.043,7.456,8.028,4.8,9.965,9.276c-10.772,8.531-15.793-10.433-27.146-5.497c4.653,6.812,3.733,20.993,15.12,19.93
		c0.553,1.879-3.104,2.735-5.498,3.779c-2.566,1.12-4.752,3.271-6.529,3.437c-0.295-1.096,0.541-1.062,0.687-1.719
		c-4.068-9.673-6.211-21.277-17.181-24.053c-1.668-6.597,3.937-10.078,3.093-15.808c4.489-2.497,9.453-4.521,15.12-5.841
		c1.427,1.067,0.882,2.725,1.374,3.781C126.678,685.906,134.377,684.916,139.709,687.225z"/>
	<path fill-rule="evenodd" clip-rule="evenodd" d="M85.76,690.318c2.148,3.335-0.673,7.543-2.062,9.62
		C75.059,698.601,77.102,689.843,85.76,690.318z"/>
	<path fill-rule="evenodd" clip-rule="evenodd" d="M105.003,707.155c3.752,6.672,7.044,13.803,14.089,17.181
		c-3.038,2.575-6.311,4.913-11.34,5.499c1.416-8.071-1.684-14.572-7.216-16.838c-4.134,1.363-7.179,3.818-8.247,8.246
		C82.422,715.114,96.121,704.569,105.003,707.155z"/>
	<path fill-rule="evenodd" clip-rule="evenodd" d="M885.031,722.962c-3.529,2.54-10.766,1.374-11.338,6.873
		c8.547,9.828,10.414,27.609,8.934,46.39c-2.166-9.968-12.9-18.281-23.023-14.433c-3.035,1.153-5.031,6.698-8.246,2.404
		c-0.086-3.636,2.723-4.378,3.779-6.872c-4.662-3.771-15.312,2.195-18.555-3.093c-0.27-9.156,10.229-8.761,18.555-8.247
		c1.521,7.762,16.281,14.331,21.648,5.842c-0.518-11.623-7.369-16.912-20.273-16.15c0-2.748,0-5.497,0-8.247
		c3.191,1.198,7.117,1.198,10.309,0c-0.02-6.005-5.668-10.708-10.309-7.904c0.582-3.869,1.209-6.675,5.842-6.183
		C869.885,714.139,878.037,722.159,885.031,722.962z"/>
	<path fill-rule="evenodd" clip-rule="evenodd" d="M783.32,796.154c3.896,5.047-3.27,9.377-4.125,14.088
		c-3.271,1.278-5.141-1.386-8.246-1.374C774.195,803.753,779.926,801.122,783.32,796.154z"/>
	<path fill-rule="evenodd" clip-rule="evenodd" d="M791.91,814.711c-9.879,9.936-24.035,15.595-32.645,26.802
		c2.211,3.812,6.328,6.855,12.027,4.811c9.375-3.364,14.99-16.935,24.74-18.899c-5.059,13.957-20.275,20.73-32.645,28.521
		c-2.449-6.828-6.449-12.106-10.996-16.838C765.754,831.163,770.525,814.629,791.91,814.711z"/>
	<path fill-rule="evenodd" clip-rule="evenodd" d="M258.26,836.358c3.276,0.848,3.629,4.617,6.872,5.498
		c-2.354,4.174-5.485,7.572-8.246,11.339c1.229,5.415,2.951,10.336,5.497,14.433c10.874,0.106,22.698,1.164,21.992-10.309
		c5.425-0.384,5.385,4.694,7.903,7.216c5.171-1.733,6.702-9.883,14.433-6.871c4.359,16.185-3.217,28.865-11.34,37.798
		c-1.328,1.461-4.414,5.894-6.185,6.185c-1.976,0.326-7.301-2.122-10.652-3.779c-5.274-2.607-10.158-6.311-5.842-13.401
		c1.904-3.13,11.958-10.983,2.749-12.715c-3.156-0.592-6.009,0.291-8.248,1.374c-2.6,1.261-4.242,4.411-5.841,4.469
		c-3.806,0.137-2.94-5.597-4.467-7.217c-5.554-0.368-10.213,1.499-15.464,0.344c3.328-10.993,5.676-25.936,16.838-30.238
		C258.26,839.107,258.26,837.733,258.26,836.358z M285.406,877.594c6.153,1.062,8.642,5.79,14.433,7.216
		c0.087-5.182,5.26-5.276,4.123-11.685C297.581,870.333,287.997,872.469,285.406,877.594z M279.564,893.399
		c4.664,3.162,13.241,0.833,14.433-3.778c-3.077-3.911-9.121-4.854-11.684-9.278C280.298,883.596,279.094,887.66,279.564,893.399z"
		/>
	<path fill-rule="evenodd" clip-rule="evenodd" d="M795.002,861.786c2.711-1.569,5.701-6.658,8.936-2.748
		c-1.604,6.646-6.23,10.262-13.402,11.339c-0.863-4.177-1.963-8.116-6.873-8.246c-1.781-0.711-0.949,2.101-2.061,1.03
		c-0.986-3.659,4.445-3.771,4.811-7.216C790.898,856.27,792.176,859.801,795.002,861.786z"/>
	<path fill-rule="evenodd" clip-rule="evenodd" fill="none" d="M303.962,873.125c1.137,6.408-4.036,6.503-4.123,11.685
		c-5.791-1.426-8.279-6.154-14.433-7.216C287.997,872.469,297.581,870.333,303.962,873.125z"/>
	<path fill-rule="evenodd" clip-rule="evenodd" fill="none" d="M282.313,880.343c2.562,4.425,8.606,5.367,11.684,9.278
		c-1.191,4.611-9.769,6.94-14.433,3.778C279.094,887.66,280.298,883.596,282.313,880.343z"/>
	<path fill-rule="evenodd" clip-rule="evenodd" d="M674.732,892.025c-2.902,1.076-6.812,1.401-9.619,0
		c1.078-4.42,4.117-6.876,6.527-9.965C674.195,883.859,674.932,887.475,674.732,892.025z"/>
	<path fill-rule="evenodd" clip-rule="evenodd" d="M402.926,898.898c-2.237,3.777-9.277,1.375-12.714,0.343
		c3.878,12.158,5.817,26.255,21.305,26.803c0.896,3.951-0.862,7.397-1.718,10.653c-9.18,3.04-16.51,0.595-24.398-1.375
		c-3.701-0.926-8.232-2.662-11.682-1.718c-3.844,1.052-3.227,8.131-9.622,5.841c0.704-8.836-1.966-14.299-1.719-22.679
		c2.87-2.284,5.022-5.286,10.31-5.155c-0.521,10.749,13.43,19.985,19.93,10.31c-0.195-9.884-6.761-13.399-11.339-18.899
		C385.621,898.688,395.668,895.175,402.926,898.898z"/>
	<path fill-rule="evenodd" clip-rule="evenodd" d="M289.529,903.365c1.833,0,3.666,0,5.498,0c-2.176,5.27-2.125,12.766-8.246,14.089
		C286.438,911.498,289.206,908.654,289.529,903.365z"/>
	<path fill-rule="evenodd" clip-rule="evenodd" d="M565.805,914.704c-3.346,3.246-17.432,10.253-18.557,0.344
		C554.812,916.604,560.697,910.247,565.805,914.704z"/>
	<path fill-rule="evenodd" clip-rule="evenodd" d="M478.523,931.886c1.246,2.752,4.21,5.772,7.217,5.842
		c6.953,0.16,9.387-12.729,18.555-11.339c0,4.695,0,9.392,0,14.088c-9.367-1.457-6.177,11.09-14.775,8.935
		c-1.708-0.428-3.505-3.683-4.811-4.812c-3.694-3.192-9.93-6.075-13.058-9.965c1.055-8.68,6.581-12.891,12.37-16.838
		C488.682,923.196,480.268,927.494,478.523,931.886z"/>
	<path fill-rule="evenodd" clip-rule="evenodd" d="M571.646,925.014c8.211,3.474,8.729,14.638,16.838,18.212
		c-1.812,2.375-5.803,5.349-8.934,4.467c-2.965-0.834-7.492-12.528-7.904-17.181C571.447,928.263,571.799,926.943,571.646,925.014z"
		/>
	<path fill-rule="evenodd" clip-rule="evenodd" d="M596.043,927.763c1.344,0.489,1.506,2.159,1.375,4.123
		c-1.566,1.297-3.787,1.941-6.873,1.719C590.727,930.007,594.861,930.358,596.043,927.763z"/>
	<path fill-rule="evenodd" clip-rule="evenodd" d="M548.623,930.855c6.469,1.435,14.945,0.861,18.555,5.153
		c-2.566,9.535,8.215,21.974,0,29.896c-1.938-12.114-1.951-33.585-18.555-25.428C548.623,937.269,548.623,934.062,548.623,930.855z"
		/>
	<path fill-rule="evenodd" clip-rule="evenodd" fill="none" d="M858.574,240.513c7.049,5.206,23.734,3.754,30.924,9.965
		c0,4.238,0,8.476,0,12.714C870.547,265.592,865.346,251.421,858.574,240.513z"/>
	<path fill-rule="evenodd" clip-rule="evenodd" d="M156.203,771.413c0.111-2.632-3.072-1.968-2.749-4.81
		c4.015-2.058,8.074-4.069,10.652-7.561c14.172,9.768,22.371,25.508,26.803,45.014c-0.722,2.775-11.845,7.802-12.37,1.719
		c-0.25-2.893,4.957-4.396,5.154-7.56c0.12-1.93-2.937-7.11-4.124-9.965c-4.286-10.306-7.581-20.01-18.555-23.711
		c0.208,9.075,11.65,11.709,12.026,20.619c-2.108,0.909-3.288-1.321-6.185-0.688c-0.827,5.131,0.574,12.487-3.438,14.433
		c-3.56-0.097-5.507-2.728-7.903-4.123c-1.514-0.883-3.475-0.697-4.467-2.405c2.143-2.037,6.774,0.131,9.621-0.688
		c4.776-16.228-15.001-17.734-24.396-12.028C139.751,775.085,147.773,769.067,156.203,771.413z"/>
	<path fill-rule="evenodd" clip-rule="evenodd" d="M692.604,880.687c0.389,0.063,0.189,0.346,0,0.343
		c-4.076,4.053-2.715,11.893-2.752,19.243c-0.086,18.435-16.75,23.862-21.99,38.486c-4.254-3.306-12.494-2.627-13.059-9.622
		c5.734-0.222,12.898,0.986,15.463-2.404c1.359-7.207-2.504-14.708-7.902-15.121c-4.635-0.354-5.424,4.367-9.965,5.155
		c-2.344-10.731,13.482-13.485,20.271-8.248c1.412,1.087,2.705,4.487,4.125,4.812c3.361,0.77,6.359-4.063,6.529-7.561
		c0.211-4.366-4.24-6.821-4.123-10.308c0.102-3.055,4.203-8.048,6.527-10.309C687.947,882.996,689.629,882.509,692.604,880.687z"/>
</g>
<circle fill="none" stroke="#000000" stroke-width="4" cx="500" cy="500" r="500"/>
<circle fill="none" stroke="#000000" stroke-width="4" cx="500" cy="500" r="474.854"/>
<g>
	<ellipse fill="none" stroke="#000000" stroke-width="4" cx="500.552" cy="503.631" rx="190.359" ry="188.369"/>
	<ellipse fill="none" stroke="#000000" stroke-width="4" cx="689.808" cy="499.159" rx="190.36" ry="188.369"/>
	<ellipse fill="none" stroke="#000000" stroke-width="4" cx="310.192" cy="506.434" rx="190.36" ry="188.369"/>
	<ellipse fill="none" stroke="#000000" stroke-width="4" cx="601.609" cy="661.832" rx="190.36" ry="188.367"/>
	<ellipse fill="none" stroke="#000000" stroke-width="4" cx="409.354" cy="666.064" rx="190.359" ry="188.367"/>
	<ellipse fill="none" stroke="#000000" stroke-width="4" cx="402.937" cy="339.914" rx="190.359" ry="188.369"/>
	<path fill="none" stroke="#000000" stroke-width="4" d="M783.654,333.937c0,104.033-85.223,188.368-190.358,188.368
		c-105.133,0-190.36-84.335-190.36-188.368s85.228-188.369,190.36-188.369C698.432,145.568,783.654,229.903,783.654,333.937z"/>
</g>
<circle fill="none" stroke="#000000" stroke-width="4" cx="500" cy="500" r="390.615"/>
</svg>
