# 3ds Max Wavefront OBJ Exporter v0.97b - (c)2007 guruware
# File Created: 06.02.2012 02:37:54

mtllib Lightning_pole.mtl

#
# object pole_geo
#

v  3.9129 219.4442 -8.2836
v  3.9104 211.9770 -2.0178
v  7.7522 191.1523 -26.8358
v  7.7546 197.5729 -32.2234
v  -0.6598 211.9779 -2.0186
v  -0.6573 219.4451 -8.2844
v  3.1845 197.5737 -32.2242
v  3.1820 191.1531 -26.8366
v  3.2537 211.4742 -1.5959
v  -0.0034 211.4748 -1.5965
v  3.8384 190.6501 -26.4145
v  7.0954 190.6494 -26.4139
v  2.6575 242.0275 15.0589
v  -0.5996 242.0283 15.0582
v  -0.6024 231.0442 24.2749
v  2.6546 231.0434 24.2756
v  7.0983 198.0759 -32.6455
v  3.8412 198.0766 -32.6461
v  -0.0005 219.9480 -8.7063
v  3.2565 219.9473 -8.7057
v  8.0705 169.0940 -50.6188
v  4.8134 169.0947 -50.6195
v  4.8163 179.0291 -58.9554
v  8.0733 179.0284 -58.9548
v  3.3139 241.5244 15.4811
v  3.3113 231.5462 23.8537
v  8.7272 169.5968 -51.0407
v  8.7297 178.5253 -58.5326
v  -1.2589 231.5473 23.8527
v  -1.2562 241.5255 15.4801
v  4.1596 178.5263 -58.5335
v  4.1570 169.5978 -51.0416
v  0.9384 226.9480 70.4250
v  0.9384 252.5752 76.8948
v  -0.0883 251.5797 76.6435
v  -0.0883 227.9434 70.6764
v  14.3456 227.6666 -26.7112
v  4.7194 227.6666 -26.7112
v  5.2935 225.8461 -67.1457
v  13.7715 225.8461 -67.1457
v  15.3723 240.0821 -26.7112
v  15.3723 228.6933 -26.7112
v  14.7982 226.6474 -67.7876
v  14.7982 237.2167 -76.2530
v  4.7194 241.1088 -26.7112
v  14.3456 241.1088 -26.7112
v  13.7715 238.0180 -76.8948
v  5.2935 238.0180 -76.8948
v  3.6927 228.6933 -26.7112
v  3.6927 240.0821 -26.7112
v  4.2668 237.2167 -76.2530
v  4.2668 226.6474 -67.7876
v  14.4923 228.5720 34.0593
v  4.5728 228.5720 34.0593
v  15.5190 243.3361 31.0094
v  15.5190 229.5775 33.8516
v  4.5727 244.3416 30.8018
v  14.4923 244.3415 30.8018
v  3.5461 229.5775 33.8516
v  3.5460 243.3361 31.0095
v  3.8039 228.4984 43.6999
v  15.2611 228.4984 43.6999
v  18.1266 226.9480 70.4250
v  16.2806 229.4684 44.0360
v  16.1540 246.4831 49.9322
v  19.1533 251.5797 76.6435
v  19.1533 227.9434 70.6763
v  15.1201 247.4532 50.2684
v  3.9449 247.4532 50.2684
v  18.1266 252.5752 76.8948
v  2.9110 246.4831 49.9322
v  2.7844 229.4684 44.0360
v  8.4102 222.0229 44.6334
v  10.1677 223.0376 45.5131
v  10.1677 223.0376 49.3275
v  8.4102 222.0229 50.2071
v  8.4102 224.0522 45.5131
v  8.4102 224.0522 49.3275
v  8.4102 228.8972 42.5594
v  10.1677 228.7166 43.1885
v  10.1677 228.7166 51.6521
v  8.4102 228.8972 52.2812
v  8.4102 229.7312 43.1885
v  8.4102 229.7312 51.6521
v  8.6803 223.6365 47.4635
v  -5.9748 204.8202 62.1186
v  23.3355 204.8202 62.1186
v  23.3355 204.8202 32.8083
v  -5.9748 204.8202 32.8083
v  8.6803 204.8202 47.4635
v  -3.2591 179.8400 60.0548
v  8.6803 168.7866 47.4635
v  20.6198 179.8400 60.0548
v  19.0525 196.4353 58.4020
v  -1.6918 196.4353 58.4020
v  -1.6918 188.1377 58.4020
v  19.0525 188.1377 58.4020
v  19.0525 196.4353 36.5250
v  19.0525 188.1377 36.5250
v  -1.6918 196.4353 36.5250
v  -1.6918 188.1377 36.5250
v  -3.2591 179.8401 34.8721
v  20.6198 179.8400 34.8721
v  20.6198 204.7330 60.0548
v  -3.2591 204.7330 60.0548
v  20.6198 204.7330 34.8722
v  -3.2591 204.7330 34.8722
v  -14.6692 281.6576 -42.0022
v  -14.6692 271.7141 -69.4205
v  -15.7536 272.0838 -68.4010
v  -15.7536 281.2879 -43.0217
v  15.1637 0.0000 -18.2652
v  11.6212 23.6525 -21.8078
v  -18.7085 23.6525 -21.8078
v  -22.2510 0.0000 -18.2652
v  16.2482 0.0000 -56.7644
v  12.7056 23.6525 -53.2219
v  12.7056 23.6525 -22.8922
v  16.2482 0.0000 -19.3497
v  -22.2510 0.0000 -57.8489
v  -18.7085 23.6525 -54.3063
v  11.6212 23.6525 -54.3063
v  15.1637 0.0000 -57.8489
v  -23.3355 0.0000 -19.3497
v  -19.7929 23.6525 -22.8922
v  -19.7929 23.6525 -53.2219
v  -23.3355 0.0000 -56.7644
v  2.9080 165.2269 -30.5210
v  -9.9952 165.2269 -30.5210
v  -14.0742 27.3418 -26.4420
v  6.9869 27.3418 -26.4420
v  3.9924 165.2269 -44.5086
v  3.9924 165.2269 -31.6054
v  8.0714 27.3418 -27.5265
v  8.0714 27.3418 -48.5876
v  -9.9952 165.2269 -45.5931
v  2.9080 165.2269 -45.5931
v  6.9869 27.3418 -49.6721
v  -14.0742 27.3418 -49.6721
v  -11.0797 165.2269 -31.6054
v  -11.0797 165.2269 -44.5086
v  -15.1587 27.3418 -48.5876
v  -15.1587 27.3418 -27.5265
v  -16.9949 25.5484 -23.5214
v  9.9076 25.5484 -23.5214
v  -18.0793 25.5484 -51.5083
v  -18.0793 25.5484 -24.6058
v  9.9076 25.5484 -52.5927
v  -16.9949 25.5484 -52.5927
v  10.9920 25.5484 -24.6058
v  10.9920 25.5484 -51.5083
v  2.9215 240.6725 -39.4451
v  -10.0088 240.6725 -39.4451
v  -9.6452 194.6254 -33.0266
v  2.5580 194.6254 -33.0266
v  4.0061 240.6909 -53.4629
v  4.0060 240.6739 -40.5296
v  3.6424 194.6229 -34.1110
v  3.6422 194.5946 -46.3091
v  -10.0089 240.6923 -54.5474
v  2.9217 240.6923 -54.5474
v  2.5577 194.5921 -47.3935
v  -9.6450 194.5921 -47.3935
v  -11.0932 240.6739 -40.5296
v  -11.0934 240.6909 -53.4629
v  -10.7294 194.5946 -46.3091
v  -10.7297 194.6229 -34.1110
v  -11.3138 258.0670 -41.0201
v  4.2265 258.0670 -41.0201
v  7.5819 281.6576 -42.0022
v  5.3269 257.9950 -42.1020
v  5.5804 256.8500 -59.2951
v  8.6664 272.0838 -68.4010
v  8.6664 281.2879 -43.0217
v  4.5119 256.7780 -60.3771
v  -11.5991 256.7780 -60.3771
v  7.5819 271.7141 -69.4205
v  -12.6676 256.8500 -59.2951
v  -12.4142 257.9950 -42.1020
v  1.5567 227.5834 52.4355
v  2.5351 227.6747 42.5230
v  16.5300 227.6747 42.5230
v  17.5083 227.5834 52.4355
v  16.4908 245.8669 39.4732
v  17.2935 248.2760 51.1048
v  2.5742 245.8669 39.4732
v  1.7715 248.2760 51.1048
v  -3.0160 231.0607 16.9472
v  -2.9489 231.0607 12.2580
v  19.6816 233.6711 14.9269
v  -3.0709 235.7500 16.9464
v  -3.0038 235.7500 12.2572
v  -3.0099 233.4054 14.6022
v  18.3559 235.7406 -43.1841
v  18.2888 235.7406 -47.8733
v  -4.3417 233.1302 -45.2044
v  18.4108 231.0513 -43.1849
v  18.3437 231.0513 -47.8741
v  18.3498 233.3960 -45.5291
v  10.4152 188.0302 -37.9559
v  10.3481 188.0302 -42.6451
v  -12.2824 185.4197 -39.9762
v  10.4701 183.3408 -37.9567
v  10.4030 183.3408 -42.6458
v  10.4091 185.6855 -40.3008
# 205 vertices

vn 0.9214 0.3248 -0.2132
vn 0.9227 -0.2576 0.2869
vn 0.9240 -0.2402 0.2976
vn 0.9276 0.3281 -0.1785
vn -0.9254 -0.3314 0.1839
vn -0.9230 0.2372 -0.3029
vn -0.9251 0.2454 -0.2899
vn -0.9217 -0.3340 0.1974
vn 0.3741 -0.7094 0.5973
vn -0.3946 -0.7356 0.5507
vn -0.3748 -0.7189 0.5854
vn 0.3921 -0.6761 0.6239
vn -0.0000 0.6428 0.7660
vn 0.3964 0.7309 -0.5556
vn -0.3779 0.7000 -0.6060
vn -0.3917 0.6581 -0.6431
vn 0.3730 0.6988 -0.6104
vn 0.0000 -0.6428 -0.7660
vn 0.9189 0.3003 -0.2559
vn 0.9187 -0.3045 0.2516
vn 0.9216 -0.2706 0.2781
vn 0.9175 0.3376 -0.2104
vn -0.9197 -0.3232 0.2231
vn -0.9195 0.2762 -0.2798
vn -0.9164 0.3073 -0.2565
vn -0.9202 -0.3100 0.2390
vn 0.3740 -0.7355 0.5650
vn -0.3819 -0.7413 0.5519
vn -0.3741 -0.7000 0.6083
vn 0.3858 -0.6812 0.6222
vn 0.3819 0.7553 -0.5327
vn -0.3697 0.7461 -0.5538
vn -0.3814 0.6724 -0.6344
vn 0.3746 0.6839 -0.6260
vn -0.0000 -0.2448 0.9696
vn 0.0000 -0.2448 0.9696
vn 0.3851 -0.9225 0.0244
vn -0.3846 -0.9227 0.0254
vn -0.3685 -0.9289 0.0366
vn 0.3705 -0.9280 0.0388
vn 1.0000 -0.0007 -0.0078
vn 1.0000 -0.0000 -0.0084
vn 0.9999 -0.0078 -0.0114
vn 0.9999 -0.0089 -0.0111
vn -0.3829 0.9220 -0.0569
vn 0.3825 0.9222 -0.0563
vn 0.2826 0.9572 -0.0622
vn -0.2830 0.9572 -0.0610
vn -1.0000 -0.0007 -0.0072
vn -1.0000 -0.0000 -0.0068
vn -0.9999 -0.0082 -0.0130
vn -0.9999 -0.0108 -0.0134
vn 0.3690 -0.9293 -0.0129
vn -0.3688 -0.9294 -0.0133
vn 0.9997 0.0032 -0.0251
vn 0.9990 -0.0089 -0.0432
vn -0.3826 0.9179 -0.1058
vn 0.3833 0.9177 -0.1045
vn -0.9995 0.0064 -0.0302
vn -0.9999 -0.0034 -0.0166
vn -0.3782 -0.9235 -0.0634
vn 0.3785 -0.9234 -0.0638
vn 0.4192 -0.9027 -0.0973
vn -0.4192 -0.9027 -0.0973
vn 0.9968 0.0184 -0.0775
vn 0.9949 0.0394 -0.0923
vn 0.9932 0.0347 -0.1111
vn 0.9940 0.0267 -0.1057
vn 0.3344 0.9227 -0.1918
vn -0.3343 0.9231 -0.1903
vn -0.3346 0.9177 -0.2143
vn 0.3343 0.9179 -0.2136
vn -0.9956 0.0279 -0.0894
vn -0.9955 0.0374 -0.0866
vn -0.9931 0.0349 -0.1124
vn -0.9927 0.0296 -0.1171
vn 0.0000 -0.6251 -0.7805
vn -0.0000 -0.6251 -0.7805
vn 0.6266 -0.7788 0.0300
vn 0.7062 -0.7078 0.0152
vn -0.7070 -0.7071 0.0169
vn -0.6278 -0.7779 0.0262
vn 0.6365 0.7694 -0.0546
vn 0.7064 0.7064 -0.0454
vn -0.6344 0.7712 -0.0520
vn -0.7058 0.7069 -0.0467
vn 0.6972 -0.7165 -0.0228
vn -0.6973 -0.7164 -0.0235
vn 0.7049 0.7036 -0.0905
vn -0.7062 0.7019 -0.0929
vn 0.7020 -0.7060 -0.0934
vn 0.7059 -0.6988 -0.1162
vn -0.7023 -0.7058 -0.0930
vn -0.7059 -0.6987 -0.1161
vn 0.6435 0.7454 -0.1738
vn 0.6530 0.7270 -0.2120
vn -0.6457 0.7445 -0.1699
vn -0.6520 0.7275 -0.2135
vn 0.5000 -0.8660 0.0000
vn 0.5000 -0.8660 -0.0000
vn -1.0000 0.0000 0.0000
vn -1.0000 0.0000 -0.0000
vn -1.0000 -0.0000 -0.0000
vn 0.5000 0.8660 -0.0000
vn 0.5000 0.8660 0.0000
vn 0.3422 -0.3391 -0.8763
vn 0.2806 -0.3636 -0.8883
vn 0.5070 -0.2619 -0.8212
vn 0.5426 -0.2426 -0.8042
vn 0.3459 -0.2839 0.8943
vn 0.2987 -0.2757 0.9137
vn 0.5117 -0.3075 0.8023
vn 0.5634 -0.3130 0.7646
vn 0.2137 0.3701 0.9041
vn 0.2137 0.3701 -0.9041
vn 0.0000 0.6145 0.7889
vn 0.7889 0.6145 0.0000
vn 0.0000 0.6145 -0.7889
vn -0.7889 0.6145 -0.0000
vn -0.0000 -1.0000 -0.0000
vn 0.0000 -1.0000 -0.0000
vn -0.0000 -0.7515 0.6597
vn 0.0000 -0.1036 0.9946
vn -0.0000 -0.1036 0.9946
vn 0.0000 0.1036 0.9946
vn -0.0000 0.1036 0.9946
vn 0.9951 -0.0986 0.0000
vn 0.9951 0.0986 0.0000
vn -0.0000 -0.1036 -0.9946
vn 0.0000 0.1036 -0.9946
vn -0.9951 -0.0986 -0.0000
vn -0.9951 0.0986 -0.0000
vn -0.9951 0.0986 0.0000
vn -0.6794 -0.7338 -0.0000
vn -0.0000 -0.7515 -0.6597
vn 0.6794 -0.7338 0.0000
vn 0.0000 -0.1954 0.9807
vn -0.0000 -0.1954 0.9807
vn -0.0000 0.1954 0.9807
vn 0.9826 -0.1856 0.0000
vn 0.9826 0.1856 0.0000
vn -0.0000 -0.1954 -0.9807
vn 0.0000 -0.1954 -0.9807
vn 0.0000 0.1954 -0.9807
vn -0.9826 -0.1856 -0.0000
vn -0.9826 0.1856 0.0000
vn -0.0000 0.9401 -0.3409
vn 0.3918 0.1934 0.8995
vn 0.3416 0.4773 0.8096
vn -0.3416 0.4773 0.8096
vn -0.3918 0.1934 0.8995
vn 0.8995 0.1934 -0.3918
vn 0.8096 0.4773 -0.3416
vn 0.8096 0.4773 0.3416
vn 0.8995 0.1934 0.3918
vn -0.3918 0.1934 -0.8995
vn -0.3416 0.4773 -0.8096
vn 0.3416 0.4773 -0.8096
vn 0.3918 0.1934 -0.8995
vn -0.8995 0.1934 0.3918
vn -0.8096 0.4773 0.3416
vn -0.8096 0.4773 -0.3416
vn -0.8995 0.1934 -0.3918
vn 0.3778 0.0605 0.9239
vn -0.3778 0.0605 0.9239
vn -0.3859 0.0387 0.9217
vn 0.3859 0.0387 0.9217
vn 0.9274 0.0136 -0.3739
vn 0.9205 0.0417 0.3886
vn 0.9217 0.0387 0.3859
vn 0.9217 0.0387 -0.3859
vn -0.3848 -0.0067 -0.9230
vn 0.3848 -0.0067 -0.9230
vn 0.3859 0.0387 -0.9217
vn -0.3859 0.0387 -0.9217
vn -0.9205 0.0417 0.3886
vn -0.9274 0.0136 -0.3739
vn -0.9217 0.0387 -0.3859
vn -0.9217 0.0387 0.3859
vn 0.1170 0.8942 0.4321
vn -0.1170 0.8942 0.4321
vn -0.1903 0.8215 0.5375
vn 0.1903 0.8215 0.5375
vn -0.4321 0.8942 0.1170
vn -0.4321 0.8942 -0.1170
vn -0.5375 0.8215 -0.1903
vn -0.5375 0.8215 0.1903
vn -0.1170 0.8942 -0.4321
vn 0.1170 0.8942 -0.4321
vn 0.1903 0.8215 -0.5375
vn -0.1903 0.8215 -0.5375
vn 0.4321 0.8942 -0.1170
vn 0.4321 0.8942 0.1170
vn 0.5375 0.8215 0.1903
vn 0.5375 0.8215 -0.1903
vn 0.3770 0.0913 0.9217
vn -0.3771 0.0914 0.9217
vn -0.3770 0.1037 0.9204
vn 0.3770 0.1037 0.9204
vn 0.9247 -0.1348 -0.3559
vn 0.9248 0.0046 0.3805
vn 0.9205 0.0461 0.3880
vn 0.9271 -0.0378 -0.3730
vn -0.3709 -0.2544 -0.8932
vn 0.3705 -0.2549 -0.8932
vn 0.3833 -0.0994 -0.9182
vn -0.3833 -0.0994 -0.9182
vn -0.9238 0.0025 0.3829
vn -0.9229 -0.1390 -0.3590
vn -0.9271 -0.0378 -0.3730
vn -0.9205 0.0461 0.3880
vn -0.3737 0.0207 0.9273
vn 0.3732 0.0204 0.9275
vn 0.3643 -0.0130 0.9312
vn -0.3647 -0.0143 0.9310
vn 0.9140 -0.0821 0.3974
vn 0.9054 -0.2850 -0.3146
vn 0.8881 -0.3493 -0.2989
vn 0.8724 -0.1048 0.4775
vn 0.3539 -0.4545 -0.8174
vn -0.3553 -0.4534 -0.8174
vn -0.3882 -0.5344 -0.7508
vn 0.3870 -0.5321 -0.7530
vn -0.9094 -0.2740 -0.3128
vn -0.9155 -0.0752 0.3953
vn -0.8727 -0.1123 0.4753
vn -0.8878 -0.3569 -0.2905
vn -0.0000 -1.0000 -0.0092
vn 0.0000 -1.0000 -0.0092
vn 0.9961 -0.0069 -0.0879
vn 0.9950 -0.0143 -0.0983
vn 0.9970 0.0002 -0.0780
vn 0.9975 0.0059 -0.0701
vn -0.0000 0.9792 -0.2028
vn 0.0000 0.9792 -0.2028
vn -0.9970 -0.0049 -0.0770
vn -0.9977 -0.0091 -0.0670
vn -0.9961 -0.0002 -0.0882
vn -0.9952 0.0040 -0.0982
vn -0.0000 0.0642 0.9979
vn 0.0000 -0.1653 -0.9862
vn -0.0000 -0.1653 -0.9862
vn 0.0000 0.9401 -0.3409
vn 0.1144 -0.9934 0.0016
vn 0.0885 0.0012 0.9961
vn 0.0911 0.9958 0.0013
vn 0.1170 0.0012 -0.9931
vn -0.9998 -0.0117 -0.0143
vn -0.1144 0.9934 0.0016
vn -0.0885 -0.0012 0.9961
vn -0.0911 -0.9958 0.0013
vn -0.1170 -0.0012 -0.9931
vn 0.9998 0.0117 -0.0143
# 253 vertex normals

vt 0.5481 0.1308 0.0000
vt 0.5384 0.0496 0.0000
vt 0.2713 0.0461 0.0000
vt 0.2796 0.1160 0.0000
vt 0.5362 0.0257 0.0000
vt 0.5374 0.0441 0.0000
vt 0.2703 0.0406 0.0000
vt 0.2681 0.0221 0.0000
vt 0.8049 0.1961 0.0000
vt 0.8049 0.2533 0.0000
vt 0.5330 0.2533 0.0000
vt 0.5330 0.1961 0.0000
vt 0.2812 0.1460 0.0000
vt 0.2799 0.1214 0.0000
vt 0.5484 0.1363 0.0000
vt 0.5502 0.1606 0.0000
vt 0.8119 0.1482 0.0000
vt 0.8043 0.0392 0.0000
vt 0.0070 0.0345 0.0000
vt 0.0139 0.1320 0.0000
vt 0.8026 0.0149 0.0000
vt 0.8039 0.0337 0.0000
vt 0.0066 0.0290 0.0000
vt 0.0053 0.0091 0.0000
vt 0.0160 0.1623 0.0000
vt 0.0142 0.1375 0.0000
vt 0.8123 0.1536 0.0000
vt 0.8140 0.1774 0.0000
vt 0.5168 0.1746 0.0000
vt 0.2435 0.1745 0.0000
vt 0.2536 0.1637 0.0000
vt 0.5066 0.1637 0.0000
vt 0.8875 0.2691 0.0000
vt 0.9233 0.2691 0.0000
vt 0.9206 0.0386 0.0000
vt 0.8854 0.0386 0.0000
vt 0.8226 0.2691 0.0000
vt 0.8801 0.2691 0.0000
vt 0.8782 0.0386 0.0000
vt 0.8223 0.0094 0.0000
vt 0.8886 0.5938 0.0000
vt 0.9462 0.5879 0.0000
vt 0.8204 0.5815 0.0000
vt 0.8796 0.5952 0.0000
vt 0.9566 0.6361 0.0000
vt 0.8914 0.6456 0.0000
vt 0.9037 0.7911 0.0000
vt 0.9959 0.7764 0.0000
vt 0.8828 0.6486 0.0000
vt 0.7972 0.6781 0.0000
vt 0.7675 0.8282 0.0000
vt 0.8949 0.7935 0.0000
vt 0.5168 0.3966 0.0000
vt 0.2435 0.3966 0.0000
vt 0.8176 0.2691 0.0000
vt 0.8175 0.0094 0.0000
vt 0.8132 0.5784 0.0000
vt 0.7885 0.6829 0.0000
vt 0.7606 0.8286 0.0000
vt 0.1745 0.6626 1.0000
vt 0.1312 0.6626 1.0000
vt 0.1312 0.5131 1.0000
vt 0.1745 0.5131 1.0000
vt 0.1745 0.8043 1.0000
vt 0.1312 0.8043 1.0000
vt 0.1312 0.3714 1.0000
vt 0.1745 0.3714 1.0000
vt 0.6602 0.7859 0.0000
vt 0.5233 0.5632 0.0000
vt 0.7972 0.5632 0.0000
vt 0.5412 0.4567 0.0000
vt 0.7827 0.4567 0.0000
vt 0.7827 0.3651 0.0000
vt 0.5412 0.3652 0.0000
vt 0.5230 0.5483 0.0000
vt 0.8009 0.5483 0.0000
vt 0.8009 0.2735 0.0000
vt 0.5229 0.2736 0.0000
vt 0.2220 0.1739 0.0000
vt 0.2014 0.3240 0.0000
vt 0.0252 0.3240 0.0000
vt 0.0046 0.1739 0.0000
vt 0.4595 0.9729 0.0000
vt 0.4600 0.9223 0.0000
vt 1.0001 0.9115 0.0000
vt 1.0000 0.9941 0.0000
vt 0.4593 0.9789 0.0000
vt 1.0000 1.0000 0.0000
vt 0.4582 0.8697 0.0000
vt 0.4596 0.9151 0.0000
vt 1.0000 0.9042 0.0000
vt 0.9999 0.8276 0.0000
vt 0.4580 0.8649 0.0000
vt 0.9999 0.8223 0.0000
vt 0.1745 0.3474 0.0000
vt 0.0521 0.3474 0.0000
vt 0.0351 0.3360 0.0000
vt 0.1914 0.3360 0.0000
vt 0.1614 0.9702 0.0000
vt 0.1619 0.9194 0.0000
vt 0.3443 0.9226 0.0000
vt 0.3438 0.9705 0.0000
vt 0.1612 0.9761 0.0000
vt 0.3436 0.9764 0.0000
vt 0.1601 0.8673 0.0000
vt 0.1615 0.9122 0.0000
vt 0.3439 0.9153 0.0000
vt 0.3426 0.8725 0.0000
vt 0.1599 0.8619 0.0000
vt 0.3425 0.8679 0.0000
vt 0.0934 0.9137 0.0000
vt 0.0929 0.9746 0.0000
vt 0.0008 0.9869 0.0000
vt 0.0010 0.8996 0.0000
vt 0.0929 0.9806 0.0000
vt 0.0010 0.9927 0.0000
vt 0.0934 0.9064 0.0000
vt 0.0955 0.8458 0.0000
vt 0.0327 0.7993 0.0000
vt 0.0023 0.8925 0.0000
vt 0.0957 0.8394 0.0000
vt 0.0349 0.7927 0.0000
vt 0.2283 0.1739 0.0000
vt 0.2077 0.3240 0.0000
vt 0.1808 0.3474 0.0000
vt 0.1977 0.3360 0.0000
vt 0.0070 0.3562 0.0000
vt 0.1189 0.3562 0.0000
vt 0.1189 0.4519 0.0000
vt 0.0070 0.4519 0.0000
vt 0.1189 0.5760 0.0000
vt 0.0070 0.5760 0.0000
vt 0.1189 0.6668 0.0000
vt 0.0070 0.6668 0.0000
vt 0.1189 0.7844 0.0000
vt 0.0070 0.7844 0.0000
vt 0.5066 0.4074 0.0000
vt 0.2536 0.4074 0.0000
vt 0.7911 0.2648 0.0000
vt 0.5468 0.2648 0.0000
vt 0.5468 0.1846 0.0000
vt 0.7911 0.1846 0.0000
vt 0.2766 0.4174 0.0000
vt 0.1824 0.4174 0.0000
vt 0.2295 0.7056 0.0000
vt 0.4877 0.6240 0.0000
vt 0.3845 0.5209 0.0000
vt 0.2814 0.6240 0.0000
vt 0.4877 0.4177 0.0000
vt 0.2814 0.4177 0.0000
# 150 texture coords

g pole_geo
usemtl pole_diffuse
s 1
f 1/1/1 2/2/2 3/3/3 4/4/4 
f 5/2/5 6/1/6 7/4/7 8/3/8 
f 9/5/9 10/6/10 11/7/11 12/8/12 
s 2
f 13/9/13 14/10/13 15/11/13 16/12/13 
s 1
f 17/13/14 18/14/15 19/15/16 20/16/17 
s 2
f 21/9/18 22/10/18 23/11/18 24/12/18 
s 1
f 25/17/19 26/18/20 2/2/2 1/1/1 
f 27/19/21 28/20/22 4/4/4 3/3/3 
f 29/18/23 30/17/24 6/1/6 5/2/5 
f 31/20/25 32/19/26 8/3/8 7/4/7 
f 16/21/27 15/22/28 10/6/10 9/5/9 
f 22/23/29 21/24/30 12/8/12 11/7/11 
f 24/25/31 23/26/32 18/14/15 17/13/14 
f 14/27/33 13/28/34 20/16/17 19/15/16 
f 28/20/22 24/26/31 17/14/14 4/4/4 
f 26/18/20 16/22/27 9/6/9 2/2/2 
f 32/19/26 22/23/29 11/7/11 8/3/8 
f 30/17/24 14/27/33 19/15/16 6/1/6 
f 4/4/4 17/14/14 20/15/17 1/1/1 
f 1/1/1 20/15/17 13/27/34 25/17/19 
f 2/2/2 9/6/9 12/7/12 3/3/3 
f 3/3/3 12/7/12 21/23/30 27/19/21 
f 8/3/8 11/7/11 10/6/10 5/2/5 
f 5/2/5 10/6/10 15/22/28 29/18/23 
f 6/1/6 19/15/16 18/14/15 7/4/7 
f 7/4/7 18/14/15 23/26/32 31/20/25 
f 33/29/35 34/30/36 35/31/36 36/32/35 
s 2
f 37/33/37 38/34/38 39/35/39 40/36/40 
s 4
f 41/37/41 42/38/42 43/39/43 44/40/44 
s 2
f 45/33/45 46/34/46 47/35/47 48/36/48 
s 4
f 49/37/49 50/38/50 51/39/51 52/40/52 
s 2
f 53/41/53 54/42/54 38/34/38 37/33/37 
s 4
f 55/43/55 56/44/56 42/38/42 41/37/41 
s 2
f 57/41/57 58/42/58 46/34/46 45/33/45 
s 4
f 59/43/59 60/44/60 50/38/50 49/37/49 
s 2
f 61/45/61 62/46/62 63/47/63 33/48/64 
s 4
f 64/49/65 65/50/66 66/51/67 67/52/68 
s 2
f 68/45/69 69/46/70 34/47/71 70/48/72 
s 4
f 71/49/73 72/50/74 36/51/75 35/52/76 
s 2
f 61/45/61 54/42/54 53/41/53 62/46/62 
s 4
f 64/49/65 56/44/56 55/43/55 65/50/66 
s 2
f 68/45/69 58/42/58 57/41/57 69/46/70 
s 4
f 71/49/73 60/44/60 59/43/59 72/50/74 
s 1
f 48/29/77 47/53/78 40/54/78 39/30/78 
s 2
f 40/36/40 43/39/79 42/38/80 37/33/37 
f 38/55/38 49/37/81 52/40/82 39/56/39 
f 44/40/83 47/56/47 46/55/46 41/37/84 
f 48/36/48 51/39/85 50/38/86 45/33/45 
f 37/33/37 42/38/80 56/44/87 53/41/53 
f 54/57/54 59/43/88 49/37/81 38/55/38 
f 41/37/84 46/55/46 58/57/58 55/43/89 
f 45/33/45 50/38/86 60/44/90 57/41/57 
f 62/46/62 64/49/91 67/52/92 63/47/63 
f 72/50/93 61/58/61 33/59/64 36/51/94 
f 65/50/95 68/58/69 70/59/72 66/51/96 
f 69/46/70 71/49/97 35/52/98 34/47/71 
f 53/41/53 56/44/87 64/49/91 62/46/62 
f 59/43/88 54/57/54 61/58/61 72/50/93 
f 55/43/89 58/57/58 68/58/69 65/50/95 
f 57/41/57 60/44/90 71/49/97 69/46/70 
s 1
f 73/60/99 74/61/99 75/62/99 76/63/100 
s 2
f 77/60/101 73/61/101 76/62/102 78/63/103 
s 4
f 74/61/104 77/60/105 78/63/104 75/62/104 
s 8
f 79/64/106 80/65/107 74/61/108 73/60/109 
f 81/66/110 82/67/111 76/63/112 75/62/113 
s 2
f 83/64/101 79/65/102 73/61/101 77/60/101 
f 82/66/102 84/67/102 78/63/103 76/62/102 
s 16
f 80/65/114 83/64/114 77/60/114 74/61/114 
f 84/67/115 81/66/115 75/62/115 78/63/115 
s 1
f 85/68/116 86/69/116 87/70/116 
s 2
f 85/68/117 87/70/117 88/69/117 
s 4
f 85/68/118 88/69/118 89/70/118 
s 8
f 85/68/119 89/69/119 86/70/119 
s 16
f 86/70/120 90/69/120 87/70/120 
f 87/70/120 90/69/120 88/68/120 
f 88/68/120 90/69/120 89/68/121 
f 89/68/121 90/69/120 86/70/120 
s 1
f 91/70/122 92/68/122 93/69/122 
s 2
f 94/71/123 95/72/124 96/73/125 97/74/126 
s 4
f 98/71/127 94/72/127 97/73/128 99/74/128 
s 1
f 100/72/129 98/71/129 99/74/130 101/73/130 
s 4
f 95/72/131 100/71/131 101/74/132 96/73/133 
s 8
f 91/69/134 102/70/134 92/68/134 
s 2
f 102/70/135 103/69/135 92/68/135 
s 16
f 92/68/136 103/70/136 93/69/136 
s 2
f 104/75/137 105/76/138 95/72/124 94/71/123 
f 91/77/139 93/78/139 97/74/126 96/73/125 
s 4
f 106/75/140 104/76/140 94/72/127 98/71/127 
f 93/77/141 103/78/141 99/74/128 97/73/128 
s 1
f 107/76/142 106/75/143 98/71/129 100/72/129 
f 103/78/144 102/77/144 101/73/130 99/74/130 
s 4
f 105/76/145 107/75/145 100/71/131 95/72/131 
f 102/78/146 91/77/146 96/73/133 101/74/132 
s 1
f 108/29/147 109/30/147 110/31/147 111/32/147 
f 112/79/148 113/80/149 114/81/150 115/82/151 
f 116/79/152 117/80/153 118/81/154 119/82/155 
f 120/79/156 121/80/157 122/81/158 123/82/159 
f 124/79/160 125/80/161 126/81/162 127/82/163 
s 2
f 128/83/164 129/84/165 130/85/166 131/86/167 
f 132/84/168 133/87/169 134/88/170 135/85/171 
f 136/89/172 137/90/173 138/91/174 139/92/175 
f 140/90/176 141/93/177 142/94/178 143/91/179 
s 1
f 131/95/180 130/96/181 144/97/182 145/98/183 
f 143/95/184 142/96/185 146/97/186 147/98/187 
f 139/95/188 138/96/189 148/97/190 149/98/191 
f 135/95/192 134/96/193 150/97/194 151/98/195 
s 2
f 152/99/196 153/100/197 154/101/198 155/102/199 
f 156/100/200 157/103/201 158/104/202 159/101/203 
f 160/105/204 161/106/205 162/107/206 163/108/207 
f 164/106/208 165/109/209 166/110/210 167/107/211 
f 168/111/212 169/112/213 170/113/214 108/114/215 
f 171/115/216 172/111/217 173/114/218 174/116/219 
f 175/117/220 176/118/221 109/119/222 177/120/223 
f 178/121/224 179/117/225 111/120/226 110/122/227 
s 1
f 113/80/149 145/98/183 144/97/182 114/81/150 
f 125/80/161 147/98/187 146/97/186 126/81/162 
f 121/80/157 149/98/191 148/97/190 122/81/158 
f 117/80/153 151/98/195 150/97/194 118/81/154 
s 2
f 128/83/164 155/102/199 154/101/198 129/84/165 
f 132/84/168 159/101/203 158/104/202 133/87/169 
f 136/89/172 163/108/207 162/107/206 137/90/173 
f 140/90/176 167/107/211 166/110/210 141/93/177 
f 168/111/212 153/100/197 152/99/196 169/112/213 
f 171/115/216 157/103/201 156/100/200 172/111/217 
f 175/117/220 161/106/205 160/105/204 176/118/221 
f 178/121/224 165/109/209 164/106/208 179/117/225 
s 1
f 112/79/148 119/123/155 118/124/154 113/80/149 
s 2
f 153/100/197 164/106/208 167/107/211 154/101/198 
s 1
f 116/79/152 123/123/159 122/124/158 117/80/153 
f 120/79/156 127/123/163 126/124/162 121/80/157 
s 2
f 131/86/167 134/88/170 133/87/169 128/83/164 
s 1
f 114/124/150 125/80/161 124/79/160 115/123/151 
s 2
f 135/85/171 138/91/174 137/90/173 132/84/168 
f 139/92/175 142/94/178 141/93/177 136/89/172 
s 1
f 134/125/193 131/95/180 145/98/183 150/126/194 
f 130/125/181 143/95/184 147/98/187 144/126/182 
f 142/125/185 139/95/188 149/98/191 146/126/186 
f 138/125/189 135/95/192 151/98/195 148/126/190 
s 2
f 129/84/165 140/90/176 143/91/179 130/85/166 
f 155/102/199 158/104/202 157/103/201 152/99/196 
f 159/101/203 162/107/206 161/106/205 156/100/200 
f 163/108/207 166/110/210 165/109/209 160/105/204 
f 179/117/225 168/111/212 108/114/215 111/120/226 
f 169/112/213 171/115/216 174/116/219 170/113/214 
f 172/111/217 175/117/220 177/120/223 173/114/218 
f 176/118/221 178/121/224 110/122/227 109/119/222 
s 1
f 150/126/194 145/98/183 113/80/149 118/124/154 
f 144/126/182 147/98/187 125/80/161 114/124/150 
f 146/126/186 149/98/191 121/80/157 126/124/162 
f 148/126/190 151/98/195 117/80/153 122/124/158 
s 2
f 140/90/176 129/84/165 154/101/198 167/107/211 
f 128/83/164 133/87/169 158/104/202 155/102/199 
f 132/84/168 137/90/173 162/107/206 159/101/203 
f 136/89/172 141/93/177 166/110/210 163/108/207 
f 164/106/208 153/100/197 168/111/212 179/117/225 
f 171/115/216 169/112/213 152/99/196 157/103/201 
f 160/105/204 165/109/209 178/121/224 176/118/221 
f 175/117/220 172/111/217 156/100/200 161/106/205 
s 1
f 180/127/228 181/128/228 182/129/229 183/130/229 
s 2
f 183/130/230 182/129/231 184/131/232 185/132/233 
s 1
f 185/132/234 184/131/235 186/133/234 187/134/234 
s 2
f 187/134/236 186/133/237 181/135/238 180/136/239 
s 4
f 185/135/240 187/136/240 180/134/240 183/133/240 
f 186/134/241 184/133/241 182/135/241 181/136/242 
s 1
f 63/53/36 70/54/35 34/30/36 33/29/35 
f 67/137/36 66/138/35 70/54/35 63/53/36 
f 52/31/78 51/32/77 48/29/77 39/30/78 
f 44/137/77 43/138/78 40/54/78 47/53/78 
f 170/53/147 177/54/243 109/30/147 108/29/147 
f 174/137/147 173/138/243 177/54/243 170/53/147 
s 2
f 30/139/13 29/140/13 15/11/13 14/10/13 
f 26/141/13 25/142/13 13/9/13 16/12/13 
f 32/139/18 31/140/18 23/11/18 22/10/18 
f 28/141/18 27/142/18 21/9/18 24/12/18 
s 1
f 188/143/244 189/144/244 190/145/244 
s 2
f 191/143/245 188/144/245 190/145/245 
s 4
f 192/143/246 191/144/246 190/145/246 
s 8
f 189/143/247 192/144/247 190/145/247 
s 16
f 188/146/248 193/147/248 189/148/248 
f 191/149/248 193/147/248 188/146/248 
f 192/150/248 193/147/248 191/149/248 
f 189/148/248 193/147/248 192/150/248 
s 1
f 194/143/249 195/144/249 196/145/249 
s 2
f 197/143/250 194/144/250 196/145/250 
s 4
f 198/143/251 197/144/251 196/145/251 
s 8
f 195/143/252 198/144/252 196/145/252 
s 16
f 194/146/253 199/147/253 195/148/253 
f 197/149/253 199/147/253 194/146/253 
f 198/150/253 199/147/253 197/149/253 
f 195/148/253 199/147/253 198/150/253 
s 1
f 200/143/249 201/144/249 202/145/249 
s 2
f 203/143/250 200/144/250 202/145/250 
s 4
f 204/143/251 203/144/251 202/145/251 
s 8
f 201/143/252 204/144/252 202/145/252 
s 16
f 200/146/253 205/147/253 201/148/253 
f 203/149/253 205/147/253 200/146/253 
f 204/150/253 205/147/253 203/149/253 
f 201/148/253 205/147/253 204/150/253 
# 162 polygons - 36 triangles

