# Blender v2.66 (sub 1) OBJ File: ''
# www.blender.org
mtllib eatsheep_farm_tree.mtl
o farm_tree_farm_tree_mesh
v 0.047999 2.606453 0.148069
v 0.093240 2.400269 0.247945
v 0.152164 2.406420 0.212412
v 0.178886 2.411895 0.148970
v 0.163197 2.414604 0.081851
v 0.111091 2.413511 0.036693
v 0.042470 2.409035 0.030743
v -0.016456 2.402885 0.066275
v -0.043177 2.397409 0.129718
v -0.027489 2.394701 0.196838
v 0.024618 2.395793 0.241996
v -0.009999 2.283495 0.317499
v 0.111178 2.291400 0.328005
v -0.011009 2.205183 0.316657
v 0.110613 2.213117 0.327201
v -0.102012 2.281566 0.237755
v -0.103361 2.203247 0.236619
v -0.129716 2.286350 0.119232
v -0.131167 2.208048 0.117659
v -0.082529 2.296018 0.007202
v -0.083807 2.217753 0.005216
v 0.021525 2.306879 -0.055545
v 0.020631 2.228653 -0.057761
v 0.142701 2.314784 -0.045039
v 0.142253 2.236587 -0.047217
v 0.234715 2.316713 0.034705
v 0.234606 2.238523 0.032821
v 0.262418 2.311930 0.153228
v 0.262412 2.233722 0.151780
v 0.215232 2.302260 0.265259
v 0.215051 2.224018 0.264224
v -0.025533 -0.003472 0.288472
v 0.008959 0.441031 0.196987
v -0.065356 0.441031 0.071676
v -0.162006 -0.003472 0.060849
v 0.233075 -0.003472 0.247360
v 0.164935 0.441031 0.183419
v 0.013835 1.355879 0.183495
v -0.052748 1.355879 0.071223
v 0.141186 1.355879 0.154865
v 0.030856 0.441031 -0.037724
v 0.005624 -0.003472 -0.129758
v 0.169351 0.441031 0.026242
v 0.244211 -0.003472 -0.021913
v 0.033454 1.355879 -0.026795
v 0.153312 1.384781 0.024898
v 0.153312 1.355879 0.024898
v 0.097915 1.607464 -0.298224
v 0.183543 1.875245 0.024097
v 0.357305 1.711020 -0.144217
v 0.265784 1.458354 -0.428866
v 0.552863 1.508402 -0.303899
v 0.448549 1.616865 0.098850
v 0.631620 1.478209 -0.011878
v 0.774072 1.599712 0.176621
v 0.478319 1.728491 0.149389
v 0.407253 1.632646 0.398458
v 0.645431 1.556798 0.448651
v 0.202225 1.824690 0.146151
v 0.666191 1.495151 -0.102600
v 0.422959 1.582535 -0.128744
v -0.290802 1.587352 -0.126433
v 0.031482 1.848004 -0.020965
v -0.025170 1.696954 -0.264824
v -0.318017 1.449924 -0.345188
v -0.063476 1.508227 -0.525036
v 0.229810 1.599002 -0.224043
v 0.227544 1.472021 -0.445114
v 0.013533 1.508227 0.820597
v 0.017027 1.696954 0.557605
v -0.228244 1.599002 0.476858
v -0.261105 1.472021 0.695484
v -0.000190 1.848004 0.307844
v 0.293399 1.449924 0.683443
v 0.301263 1.587352 0.463142
v -0.135034 1.587352 0.542575
v -0.088970 1.848004 0.206615
v -0.318747 1.696954 0.306011
v -0.345383 1.449924 0.608514
v -0.567896 1.508227 0.390284
v -0.324274 1.599002 0.047851
v -0.541367 1.472021 0.089658
v -0.375181 1.767123 -0.067340
v -0.176964 1.922591 0.020143
v -0.036640 1.841900 -0.139720
v -0.191753 1.737298 -0.235153
v 0.017905 2.047021 0.087662
v -0.361501 1.719095 0.189036
v -0.197053 1.832305 0.266062
v 0.201295 1.832305 0.384952
v 0.047101 2.047021 0.152020
v -0.041026 1.922591 0.338477
v 0.106996 1.719094 0.540141
v -0.149362 1.767123 0.526111
v -0.184835 1.841900 0.181741
v -0.296430 1.737298 0.325667
v 0.105143 1.767123 -0.381746
v 0.076566 1.922591 -0.166974
v 0.269287 1.841900 -0.076942
v 0.317547 1.737298 -0.252553
v 0.066223 2.047021 0.039000
v -0.137186 1.719095 -0.296931
v -0.165161 1.832305 -0.117506
v 0.362894 1.868706 0.136528
v 0.089463 2.048985 0.266418
v 0.262410 1.920216 0.373764
v 0.503276 1.748894 0.244835
v 0.434564 1.757826 0.496673
v 0.085811 1.813075 0.469113
v 0.211109 1.698768 0.592985
v 0.528871 1.767267 0.010582
v 0.324049 1.934179 0.046672
v 0.291827 1.856616 0.258105
v 0.467975 1.742395 0.252180
v 0.131419 2.069462 0.097737
v 0.372804 1.726039 -0.194762
v 0.199569 1.848871 -0.168406
v -0.150387 2.090351 0.106448
v 0.043018 2.354557 0.109917
v -0.023249 2.192525 -0.013764
v -0.196578 1.943234 -0.007958
v -0.081238 1.992613 -0.148230
v 0.126839 2.099627 -0.026024
v 0.094173 1.962824 -0.145744
v 0.267106 1.981305 -0.162559
v 0.210855 2.175802 -0.024653
v 0.304860 2.047477 0.080853
v 0.369379 1.910570 -0.025107
v 0.165398 2.330031 0.111269
v 0.083409 1.970608 -0.168736
v 0.032003 2.114108 -0.054969
v -0.056284 2.070509 0.348064
v 0.013365 2.327679 0.164123
v -0.129432 2.178647 0.190487
v -0.183754 1.934916 0.358036
v -0.281217 1.992440 0.205787
v -0.099047 2.082002 0.043830
v -0.227198 1.956718 0.039285
v 0.382102 1.992440 0.232718
v 0.235958 2.178647 0.188966
v 0.151929 2.082002 0.312945
v 0.268658 1.956718 0.366028
v 0.093901 2.327679 0.158870
v 0.350082 1.934916 0.054804
v 0.228446 2.070509 0.015401
v 0.211683 2.070509 0.307622
v 0.054551 2.327679 0.189324
v 0.039939 2.178647 0.333796
v 0.185618 1.934916 0.432797
v 0.012192 1.992440 0.483805
v -0.092374 2.082002 0.263619
v -0.132568 1.956718 0.385389
v 0.547632 1.640365 0.205316
v 0.161373 1.817852 0.252568
v 0.359811 1.728155 0.447683
v 0.706020 1.554061 0.392254
v 0.559349 1.602079 0.669233
v 0.147409 1.582678 0.547652
v 0.283133 1.502719 0.748118
v -0.521208 1.488336 -0.229424
v -0.290710 1.655163 -0.075038
v -0.096545 1.554052 -0.243409
v -0.270156 1.445548 -0.395354
v -0.062454 1.785761 0.052775
v -0.560670 1.415698 0.076684
v -0.371520 1.534789 0.209049
v -0.506734 1.319323 0.248870
v -0.098166 1.561584 0.033224
v -0.384163 1.435518 -0.112008
v -0.742021 1.204365 0.095407
v -0.671330 1.274483 -0.290359
v -0.122942 1.337918 -0.335358
v -0.336929 1.233180 -0.514338
v 0.663566 1.384277 0.764709
v 0.420662 1.505978 0.500270
v 0.140358 1.365550 0.639169
v 0.302358 1.288366 0.881345
v 0.177463 1.592561 0.268854
v 0.870588 1.337926 0.408467
v 0.678493 1.421235 0.184694
v -0.771638 1.293683 0.488468
v -0.444976 1.475860 0.366838
v -0.435389 1.381307 0.044009
v -0.717976 1.258734 0.110400
v -0.142309 1.621666 0.227531
v -0.498897 1.237403 0.747263
v -0.223444 1.370062 0.651098
v 0.344178 1.370062 0.523413
v -0.034406 1.621666 0.348511
v -0.028378 1.475860 0.660069
v 0.319780 1.237403 0.799714
v -0.049906 1.293682 0.989532
v -0.339357 1.381307 0.574861
v -0.395876 1.258734 0.850684
v -0.062078 1.293683 -0.690064
v -0.029538 1.475860 -0.366788
v 0.296545 1.381307 -0.332241
v 0.307935 1.258734 -0.608850
v 0.027713 1.621666 -0.065171
v -0.401878 1.237403 -0.448437
v -0.380955 1.370062 -0.176342
v 0.539388 1.365412 -0.225442
v 0.237018 1.599162 0.132987
v 0.592753 1.506302 0.119167
v 0.851274 1.281061 -0.208457
v 0.972280 1.381993 0.134113
v 0.485010 1.413784 0.435575
v 0.788824 1.340568 0.482992
v 0.718199 1.293852 -0.453124
v 0.455748 1.489438 -0.240561
v 0.557645 1.398550 0.057825
v 0.800831 1.264707 -0.092645
v 0.220834 1.647962 -0.018602
v 0.356184 1.245541 -0.590985
v 0.131306 1.389475 -0.416569
vt 0.983126 0.936612
vt 0.953952 0.875078
vt 0.972547 0.870432
vt 0.954065 0.875612
vt 0.982803 0.937606
vt 0.971552 0.871036
vt 0.936213 0.886097
vt 0.921967 0.902636
vt 0.911879 0.919249
vt 0.913925 0.936965
vt 0.912533 0.919721
vt 0.913920 0.936478
vt 0.922469 0.902211
vt 0.936556 0.885993
vt 0.895915 0.846646
vt 0.927319 0.827198
vt 0.863616 0.816721
vt 0.904399 0.791534
vt 0.871180 0.875080
vt 0.831681 0.853420
vt 0.860704 0.910679
vt 0.820081 0.900724
vt 0.873402 0.945961
vt 0.830848 0.962098
vt 0.860283 0.909808
vt 0.873902 0.945772
vt 0.819737 0.899587
vt 0.831897 0.961212
vt 0.871984 0.874661
vt 0.833184 0.852557
vt 0.896376 0.846569
vt 0.864505 0.816550
vt 0.927349 0.827014
vt 0.904391 0.790986
vt 0.968364 0.822866
vt 0.960133 0.784948
vt 0.968705 0.822371
vt 0.959858 0.784508
vt 0.701788 0.079253
vt 0.674942 0.181057
vt 0.626283 0.176760
vt 0.634822 0.073713
vt 0.670981 0.358952
vt 0.625976 0.357907
vt 0.560708 0.178516
vt 0.549439 0.071606
vt 0.563387 0.357480
vt 0.509832 0.187055
vt 0.480092 0.076648
vt 0.518741 0.357523
vt 0.998343 0.654440
vt 0.927488 0.750547
vt 0.905724 0.668780
vt 0.975076 0.588182
vt 0.876680 0.587191
vt 0.803267 0.691307
vt 0.773385 0.623645
vn -0.091647 0.994720 0.045961
vn 0.155431 0.540391 0.826899
vn 0.589892 0.573199 0.568712
vn 0.790796 0.603442 0.102237
vn 0.677572 0.619434 -0.396405
vn 0.290475 0.614338 -0.733604
vn -0.220344 0.589862 -0.776849
vn -0.655843 0.555864 -0.510727
vn -0.849544 0.525895 -0.040651
vn -0.730766 0.511277 0.452254
vn -0.347423 0.516923 0.782311
vn -0.381390 0.289621 0.877834
vn 0.197790 0.292123 0.935697
vn -0.400098 -0.004669 0.916440
vn 0.210334 -0.011536 0.977538
vn -0.815149 0.297952 0.496689
vn -0.856838 0.007263 0.515519
vn -0.947325 0.313852 -0.063570
vn -0.997009 0.019959 -0.074343
vn -0.728904 0.331858 -0.598773
vn -0.767632 0.028748 -0.640217
vn -0.234260 0.345439 -0.908719
vn -0.244545 0.030244 -0.969146
vn 0.354289 0.349101 -0.867489
vn 0.378124 0.023591 -0.925443
vn 0.806818 0.340831 -0.482528
vn 0.855098 0.011292 -0.518326
vn 0.941160 0.323740 0.096744
vn 0.995666 -0.001801 0.092685
vn 0.705374 0.305002 0.639851
vn 0.746300 -0.010498 0.665517
vn -0.421003 0.205817 0.883358
vn -0.433119 0.118381 0.893490
vn -0.988830 0.118412 -0.090213
vn -0.972808 0.213111 -0.090640
vn 0.721274 0.217048 0.657735
vn 0.732292 0.128452 0.668722
vn -0.429640 0.021882 0.902707
vn -0.995514 0.013672 -0.093539
vn 0.772729 0.029847 0.633992
vn -0.206977 0.115726 -0.971465
vn -0.208533 0.210639 -0.955046
vn 0.848964 0.110233 -0.516800
vn 0.834010 0.193609 -0.516587
vn -0.212531 0.011048 -0.977081
vn 0.997955 0.022309 0.059725
vn 0.408582 0.007782 -0.912656
vn 0.126102 0.729637 -0.672079
vn 0.431379 0.826655 -0.361248
vn 0.432722 0.816492 -0.382183
vn 0.147313 0.715690 -0.682669
vn 0.440840 0.806879 -0.393170
vn 0.670309 0.741905 -0.015412
vn 0.655965 0.754051 -0.033174
vn 0.361950 0.929838 -0.066134
vn 0.346507 0.935850 -0.064119
vn 0.292489 0.880764 0.372417
vn 0.290872 0.890927 0.348704
vn 0.329112 0.942930 -0.050233
vn 0.368389 0.802820 -0.468734
vn 0.342845 0.809809 -0.476058
vn -0.508682 0.755760 -0.412336
vn -0.084872 0.855739 -0.510330
vn -0.102237 0.846309 -0.522721
vn -0.507004 0.743095 -0.436659
vn -0.107608 0.837428 -0.535813
vn 0.333964 0.770196 -0.543321
vn 0.311472 0.782281 -0.539415
vn 0.021149 0.837428 0.546129
vn 0.017945 0.846309 0.532334
vn -0.415998 0.770196 0.483413
vn -0.393139 0.782281 0.483108
vn 0.002777 0.855739 0.517350
vn 0.431257 0.743095 0.511612
vn 0.436781 0.755760 0.487869
vn -0.314585 0.755760 0.574297
vn -0.486892 0.855739 0.174871
vn -0.495987 0.846309 0.194189
vn -0.338847 0.743095 0.577013
vn -0.507889 0.837428 0.201788
vn -0.594348 0.770196 -0.231300
vn -0.586474 0.782281 -0.209845
vn -0.510788 0.837428 -0.194342
vn -0.496872 0.846309 -0.191931
vn -0.281899 0.770196 -0.572069
vn -0.290567 0.782281 -0.550951
vn -0.477126 0.855739 -0.200018
vn -0.639637 0.743095 0.196448
vn -0.619953 0.755760 0.210852
vn 0.142796 0.755760 0.639058
vn -0.250252 0.855739 0.452773
vn -0.244362 0.846309 0.473281
vn 0.126377 0.743095 0.657094
vn -0.248268 0.837428 0.486862
vn -0.599109 0.770196 0.218604
vn -0.579058 0.782281 0.229499
vn 0.043794 0.837428 -0.544755
vn 0.045351 0.846309 -0.530717
vn 0.470443 0.770196 -0.430586
vn 0.447737 0.782281 -0.433027
vn 0.058626 0.855739 -0.514023
vn -0.367473 0.743095 -0.559191
vn -0.375774 0.755760 -0.536271
vn 0.601276 0.792840 0.099063
vn 0.333140 0.826167 0.454329
vn 0.354991 0.818537 0.451613
vn 0.616443 0.778619 0.117038
vn 0.368084 0.809687 0.457045
vn 0.039827 0.680837 0.731315
vn 0.053713 0.696188 0.715812
vn 0.576708 0.806848 -0.127750
vn 0.564287 0.816492 -0.122105
vn 0.592425 0.741905 0.313944
vn 0.588580 0.754051 0.291452
vn 0.552873 0.826685 -0.104495
vn 0.462020 0.715690 -0.523698
vn 0.438337 0.729637 -0.524827
vn -0.757622 0.529099 -0.382122
vn -0.319773 0.654042 -0.685507
vn -0.325968 0.641957 -0.693960
vn -0.755699 0.516037 -0.403211
vn -0.341411 0.625996 -0.701071
vn 0.206763 0.547807 -0.810633
vn 0.186590 0.559404 -0.807581
vn 0.490493 0.628040 -0.604083
vn 0.455641 0.646962 -0.611377
vn 0.838099 0.483627 -0.252297
vn 0.827937 0.495285 -0.263039
vn 0.442061 0.662862 -0.604297
vn -0.036409 0.589312 -0.807062
vn -0.054170 0.606647 -0.793115
vn -0.553941 0.559099 0.616871
vn -0.710135 0.697439 0.096194
vn -0.721152 0.685324 0.101291
vn -0.574847 0.546648 0.608844
vn -0.734214 0.669179 0.114444
vn -0.675039 0.581713 -0.453749
vn -0.677572 0.593951 -0.433668
vn 0.722343 0.669179 0.174261
vn 0.705252 0.685324 0.181402
vn 0.450911 0.581713 0.676931
vn 0.460921 0.593951 0.659322
vn 0.693136 0.697439 0.181921
vn 0.763604 0.546648 -0.343547
vn 0.747368 0.559099 -0.358928
vn 0.437391 0.559099 0.704306
vn -0.106174 0.697439 0.708701
vn -0.104343 0.685324 0.720695
vn 0.423841 0.546648 0.722129
vn -0.095370 0.669179 0.736930
vn -0.624378 0.581713 0.521256
vn -0.605823 0.593951 0.529283
vn 0.443281 0.895505 0.038820
vn 0.104312 0.939634 0.325846
vn 0.127171 0.935820 0.328715
vn 0.456252 0.887692 0.061708
vn 0.139958 0.930631 0.338084
vn -0.216071 0.792718 0.569994
vn -0.201636 0.807428 0.554399
vn -0.418622 0.878445 -0.230323
vn -0.404767 0.886227 -0.225166
vn -0.134129 0.811792 -0.568285
vn -0.145482 0.823542 -0.548265
vn -0.383404 0.894620 -0.229377
vn -0.616779 0.776605 0.128269
vn -0.599017 0.787225 0.146367
vn -0.489364 0.866482 0.098514
vn -0.300088 0.929197 -0.215613
vn -0.329508 0.924406 -0.191931
vn -0.506241 0.858364 0.083132
vn -0.347545 0.918332 -0.189276
vn -0.131046 0.868984 -0.477096
vn -0.139134 0.878018 -0.457900
vn 0.122623 0.954314 0.272439
vn 0.105167 0.957091 0.269967
vn -0.153844 0.867092 0.473769
vn -0.141179 0.877926 0.457472
vn 0.081271 0.958495 0.273202
vn 0.361309 0.929899 0.068545
vn 0.349803 0.935453 0.050142
vn -0.397595 0.902951 0.162908
vn -0.390362 0.908994 0.146001
vn -0.497604 0.838221 -0.222968
vn -0.487136 0.849879 -0.200964
vn -0.388928 0.914396 0.112003
vn -0.260414 0.834223 0.486007
vn -0.237068 0.843806 0.481399
vn 0.377056 0.822169 0.426374
vn 0.039857 0.905271 0.422895
vn 0.031495 0.897732 0.439375
vn 0.374828 0.810663 0.449751
vn 0.013337 0.893735 0.448347
vn -0.326548 0.857295 0.397961
vn -0.305826 0.865627 0.396374
vn -0.085788 0.890835 -0.446120
vn -0.099521 0.895291 -0.434156
vn 0.254555 0.855037 -0.451735
vn 0.234901 0.863216 -0.446791
vn -0.100345 0.903104 -0.417524
vn -0.434309 0.811792 -0.390271
vn -0.432966 0.823237 -0.367077
vn 0.260598 0.884304 -0.387371
vn 0.252297 0.967620 -0.006928
vn 0.264962 0.963073 -0.047456
vn 0.283151 0.879910 -0.381481
vn 0.279519 0.957884 -0.065523
vn 0.244362 0.917234 0.314554
vn 0.240913 0.925626 0.291787
vn 0.347758 0.884182 -0.311808
vn 0.338969 0.889950 -0.305063
vn 0.562578 0.826533 0.017609
vn 0.545762 0.837916 -0.000183
vn 0.335276 0.897580 -0.286172
vn 0.094485 0.804285 -0.586627
vn 0.074496 0.815912 -0.573290
usemtl farm_tree.001
s 1
f 1/1/1 2/2/2 3/3/3
f 4/4/4 1/5/1 3/6/3
f 5/7/5 1/5/1 4/4/4
f 6/8/6 1/5/1 5/7/5
f 7/9/7 1/5/1 6/8/6
f 8/10/8 1/5/1 7/9/7
f 9/11/9 1/1/1 8/12/8
f 10/13/10 1/1/1 9/11/9
f 11/14/11 1/1/1 10/13/10
f 2/2/2 1/1/1 11/14/11
f 11/14/11 12/15/12 13/16/13 2/2/2
f 12/15/12 14/17/14 15/18/15 13/16/13
f 10/13/10 16/19/16 12/15/12 11/14/11
f 16/19/16 17/20/17 14/17/14 12/15/12
f 9/11/9 18/21/18 16/19/16 10/13/10
f 18/21/18 19/22/19 17/20/17 16/19/16
f 8/12/8 20/23/20 18/21/18 9/11/9
f 20/23/20 21/24/21 19/22/19 18/21/18
f 7/9/7 22/25/22 20/26/20 8/10/8
f 22/25/22 23/27/23 21/28/21 20/26/20
f 6/8/6 24/29/24 22/25/22 7/9/7
f 24/29/24 25/30/25 23/27/23 22/25/22
f 5/7/5 26/31/26 24/29/24 6/8/6
f 26/31/26 27/32/27 25/30/25 24/29/24
f 4/4/4 28/33/28 26/31/26 5/7/5
f 28/33/28 29/34/29 27/32/27 26/31/26
f 3/6/3 30/35/30 28/33/28 4/4/4
f 30/35/30 31/36/31 29/34/29 28/33/28
f 2/2/2 13/16/13 30/37/30 3/3/3
f 13/16/13 15/18/15 31/38/31 30/37/30
f 32/39/32 33/40/33 34/41/34 35/42/35
f 32/39/32 36/42/36 37/41/37 33/40/33
f 33/40/33 38/43/38 39/44/39 34/41/34
f 40/44/40 38/43/38 33/40/33 37/41/37
f 35/42/35 34/41/34 41/45/41 42/46/42
f 43/45/43 37/41/37 36/42/36 44/46/44
f 34/41/34 39/44/39 45/47/45 41/45/41
f 46/47/46 40/44/40 37/41/37 43/45/43
f 42/46/42 41/45/41 43/48/43 44/49/44
f 41/45/41 45/47/45 47/50/47 43/48/43
f 48/51/48 49/52/49 50/53/50
f 51/54/51 48/51/48 50/53/50 52/55/52
f 50/53/50 49/52/49 53/56/53
f 52/55/52 50/53/50 53/56/53 54/57/54
f 55/55/55 56/53/56 57/56/57 58/57/58
f 56/53/56 59/52/59 57/56/57
f 60/54/60 61/51/61 56/53/56 55/55/55
f 61/51/61 59/52/59 56/53/56
f 62/51/62 63/52/63 64/53/64
f 65/54/65 62/51/62 64/53/64 66/55/66
f 64/53/64 63/52/63 67/56/67
f 66/55/66 64/53/64 67/56/67 68/57/68
f 69/55/69 70/53/70 71/56/71 72/57/72
f 70/53/70 73/52/73 71/56/71
f 74/54/74 75/51/75 70/53/70 69/55/69
f 75/51/75 73/52/73 70/53/70
f 76/51/76 77/52/77 78/53/78
f 79/54/79 76/51/76 78/53/78 80/55/80
f 78/53/78 77/52/77 81/56/81
f 80/55/80 78/53/78 81/56/81 82/57/82
f 83/55/83 84/53/84 85/56/85 86/57/86
f 84/53/84 87/52/87 85/56/85
f 88/54/88 89/51/89 84/53/84 83/55/83
f 89/51/89 87/52/87 84/53/84
f 90/51/90 91/52/91 92/53/92
f 93/54/93 90/51/90 92/53/92 94/55/94
f 92/53/92 91/52/91 95/56/95
f 94/55/94 92/53/92 95/56/95 96/57/96
f 97/55/97 98/53/98 99/56/99 100/57/100
f 98/53/98 101/52/101 99/56/99
f 102/54/102 103/51/103 98/53/98 97/55/97
f 103/51/103 101/52/101 98/53/98
f 104/51/104 105/52/105 106/53/106
f 107/54/107 104/51/104 106/53/106 108/55/108
f 106/53/106 105/52/105 109/56/109
f 108/55/108 106/53/106 109/56/109 110/57/110
f 111/55/111 112/53/112 113/56/113 114/57/114
f 112/53/112 115/52/115 113/56/113
f 116/54/116 117/51/117 112/53/112 111/55/111
f 117/51/117 115/52/115 112/53/112
f 118/51/118 119/52/119 120/53/120
f 121/54/121 118/51/118 120/53/120 122/55/122
f 120/53/120 119/52/119 123/56/123
f 122/55/122 120/53/120 123/56/123 124/57/124
f 125/55/125 126/53/126 127/56/127 128/57/128
f 126/53/126 129/52/129 127/56/127
f 130/54/130 131/51/131 126/53/126 125/55/125
f 131/51/131 129/52/129 126/53/126
f 132/51/132 133/52/133 134/53/134
f 135/54/135 132/51/132 134/53/134 136/55/136
f 134/53/134 133/52/133 137/56/137
f 136/55/136 134/53/134 137/56/137 138/57/138
f 139/55/139 140/53/140 141/56/141 142/57/142
f 140/53/140 143/52/143 141/56/141
f 144/54/144 145/51/145 140/53/140 139/55/139
f 145/51/145 143/52/143 140/53/140
f 146/51/146 147/52/147 148/53/148
f 149/54/149 146/51/146 148/53/148 150/55/150
f 148/53/148 147/52/147 151/56/151
f 150/55/150 148/53/148 151/56/151 152/57/152
f 153/51/153 154/52/154 155/53/155
f 156/54/156 153/51/153 155/53/155 157/55/157
f 155/53/155 154/52/154 158/56/158
f 157/55/157 155/53/155 158/56/158 159/57/159
f 160/55/160 161/53/161 162/56/162 163/57/163
f 161/53/161 164/52/164 162/56/162
f 165/54/165 166/51/166 161/53/161 160/55/160
f 166/51/166 164/52/164 161/53/161
f 167/51/167 168/52/168 169/53/169
f 170/54/170 167/51/167 169/53/169 171/55/171
f 169/53/169 168/52/168 172/56/172
f 171/55/171 169/53/169 172/56/172 173/57/173
f 174/55/174 175/53/175 176/56/176 177/57/177
f 175/53/175 178/52/178 176/56/176
f 179/54/179 180/51/180 175/53/175 174/55/174
f 180/51/180 178/52/178 175/53/175
f 181/55/181 182/53/182 183/56/183 184/57/184
f 182/53/182 185/52/185 183/56/183
f 186/54/186 187/51/187 182/53/182 181/55/181
f 187/51/187 185/52/185 182/53/182
f 188/51/188 189/52/189 190/53/190
f 191/54/191 188/51/188 190/53/190 192/55/192
f 190/53/190 189/52/189 193/56/193
f 192/55/192 190/53/190 193/56/193 194/57/194
f 195/55/195 196/53/196 197/56/197 198/57/198
f 196/53/196 199/52/199 197/56/197
f 200/54/200 201/51/201 196/53/196 195/55/195
f 201/51/201 199/52/199 196/53/196
f 202/51/202 203/52/203 204/53/204
f 205/54/205 202/51/202 204/53/204 206/55/206
f 204/53/204 203/52/203 207/56/207
f 206/55/206 204/53/204 207/56/207 208/57/208
f 209/55/209 210/53/210 211/56/211 212/57/212
f 210/53/210 213/52/213 211/56/211
f 214/54/214 215/51/215 210/53/210 209/55/209
f 215/51/215 213/52/213 210/53/210
