# Blender v2.66 (sub 1) OBJ File: 'mineral.blend'
# www.blender.org
mtllib mineral.mtl
o Cylinder
v 0.000000 0.576000 -0.160000
v -0.000000 0.704000 -0.003200
v 0.152169 0.576000 -0.049443
v 0.003043 0.704000 -0.000989
v 0.094046 0.576000 0.129443
v 0.001881 0.704000 0.002589
v -0.094046 0.576000 0.129443
v -0.001881 0.704000 0.002589
v -0.152169 0.576000 -0.049443
v -0.003043 0.704000 -0.000989
v 0.000000 -0.160000 -0.160000
v 0.152169 -0.160000 -0.049443
v 0.094046 -0.160000 0.129443
v -0.094046 -0.160000 0.129443
v -0.152169 -0.160000 -0.049443
v 0.534176 0.287576 -0.123655
v 0.486523 0.482364 -0.096142
v 0.531830 0.350989 0.053409
v 0.486476 0.483632 -0.092601
v 0.375866 0.453593 0.076340
v 0.483357 0.485684 -0.092142
v 0.281821 0.453593 -0.086552
v 0.481476 0.485684 -0.095400
v 0.379661 0.350989 -0.210155
v 0.483432 0.483632 -0.097872
v 0.168581 -0.315320 0.087422
v 0.166236 -0.251907 0.264485
v 0.010272 -0.149302 0.287416
v -0.083774 -0.149302 0.124524
v 0.014067 -0.251907 0.000921
v 0.000000 0.468848 0.282769
v -0.000000 0.501299 0.482562
v 0.152169 0.413569 0.378515
v 0.003043 0.500193 0.484477
v 0.094046 0.324126 0.533434
v 0.001881 0.498405 0.487575
v -0.094046 0.324126 0.533434
v -0.001881 0.498405 0.487575
v -0.152169 0.413569 0.378515
v -0.003043 0.500193 0.484477
v 0.000000 -0.168547 -0.085231
v 0.152169 -0.223825 0.010515
v 0.094046 -0.313268 0.165434
v -0.094046 -0.313268 0.165434
v -0.152169 -0.223825 0.010515
v -0.338521 0.736000 0.140680
v -0.187064 0.864000 0.181263
v -0.192347 0.736000 0.022311
v -0.184140 0.864000 0.178896
v -0.034600 0.736000 0.124753
v -0.180985 0.864000 0.180945
v -0.083282 0.736000 0.306435
v -0.181959 0.864000 0.184578
v -0.271115 0.736000 0.316279
v -0.185716 0.864000 0.184775
v -0.338521 0.000000 0.140680
v -0.192347 0.000000 0.022311
v -0.034600 0.000000 0.124753
v -0.083282 0.000000 0.306435
v -0.271115 0.000000 0.316279
v -0.165159 0.447576 -0.365887
v -0.150917 0.642364 -0.312737
v 0.005265 0.510989 -0.317794
v -0.147509 0.643632 -0.311775
v -0.012952 0.613593 -0.161209
v -0.147873 0.645684 -0.308643
v -0.194635 0.613593 -0.112528
v -0.151507 0.645684 -0.307670
v -0.288703 0.510989 -0.239026
v -0.153388 0.643632 -0.310200
v -0.055898 -0.155320 0.041881
v 0.114526 -0.091907 0.089974
v 0.096309 0.010698 0.246558
v -0.085374 0.010698 0.295240
v -0.179442 -0.091907 0.168742
v 0.089161 0.628848 0.255277
v 0.282146 0.661299 0.306988
v 0.221029 0.573569 0.133074
v 0.284784 0.660193 0.304544
v 0.355626 0.484126 0.229313
v 0.287476 0.658405 0.306468
v 0.306944 0.484126 0.410995
v 0.286502 0.658405 0.310102
v 0.142260 0.573569 0.427042
v 0.283208 0.660193 0.310423
v -0.266299 -0.008547 0.160032
v -0.134432 -0.063826 0.037829
v 0.000165 -0.153268 0.134068
v -0.048517 -0.153268 0.315750
v -0.213201 -0.063825 0.331797
vt 0.000000 0.000000
vt 1.000000 0.000000
vt 1.000000 1.000000
vt 0.000000 1.000000
vt 0.500000 1.000000
vt 0.975528 0.654508
vt 0.793893 0.095491
vt 0.206107 0.095492
vt 0.024472 0.654509
vn 0.417492 0.703920 -0.574628
vn 0.675516 0.703920 0.219489
vn -0.000000 0.703920 0.710280
vn 0.000000 1.000000 0.000000
vn -0.417492 0.703920 -0.574628
vn -0.675516 0.703920 0.219488
vn -0.951056 0.000000 0.309017
vn 0.000000 -1.000000 -0.000000
vn -0.000000 0.000000 1.000000
vn 0.587785 0.000000 -0.809017
vn 0.951056 0.000000 0.309017
vn -0.587785 0.000000 -0.809017
vn 0.966050 0.247024 -0.075671
vn 0.531711 0.702511 0.473036
vn -0.154218 0.984017 0.089038
vn 0.496729 0.819154 -0.286788
vn 0.548558 0.247024 -0.798788
vn -0.143805 0.702511 -0.696993
vn -0.694747 0.177245 -0.697073
vn -0.496732 -0.819152 0.286788
vn -0.709406 0.573576 0.409576
vn 0.867814 -0.464033 0.177683
vn 0.256309 0.177245 0.950205
vn 0.280029 -0.464033 -0.840391
vn 0.417492 0.896926 -0.145683
vn 0.675516 0.499868 0.542042
vn 0.000000 0.254472 0.967080
vn 0.000000 0.866023 0.500004
vn -0.417492 0.896926 -0.145683
vn -0.675516 0.499868 0.542042
vn -0.951056 -0.154508 0.267616
vn -0.000000 -0.866025 -0.500000
vn -0.000000 -0.500000 0.866025
vn 0.587785 0.404508 -0.700629
vn 0.951056 -0.154509 0.267617
vn -0.587785 0.404509 -0.700629
vn -0.446994 0.703920 -0.551991
vn 0.386846 0.703920 -0.595691
vn 0.686077 0.703920 0.183834
vn 0.000000 1.000000 -0.000012
vn -0.663103 0.703920 0.254541
vn 0.037173 0.703919 0.709306
vn 0.052336 0.000000 0.998630
vn 0.965926 0.000000 0.258819
vn -0.629320 0.000000 -0.777146
vn 0.544639 0.000000 -0.838671
vn -0.933580 0.000000 0.358368
vn 0.176939 0.247024 -0.952718
vn 0.594534 0.702511 -0.391162
vn 0.046089 0.984017 0.172007
vn -0.148447 0.819153 -0.554032
vn -0.629593 0.247024 -0.736609
vn -0.710463 0.702511 -0.041490
vn -0.853135 0.177245 0.490658
vn 0.148452 -0.819152 0.554032
vn 0.212012 0.573576 0.791240
vn 0.396236 -0.464033 -0.792257
vn 0.984165 0.177245 -0.001645
vn -0.739278 -0.464033 -0.487997
vn -0.032664 0.896927 -0.440972
vn 0.698409 0.499868 -0.512207
vn 0.934127 0.254473 0.250299
vn 0.482964 0.866026 0.129401
vn -0.248774 0.896926 0.365561
vn 0.348736 0.499868 0.792789
vn 0.012346 -0.154508 0.987914
vn -0.482963 -0.866025 -0.129409
vn 0.836516 -0.500000 0.224144
vn -0.524626 0.404509 -0.749093
vn 0.504649 -0.154509 -0.849386
vn -0.828886 0.404509 0.386421
usemtl Material
s off
f 1/1/1 2/2/1 4/3/1 3/4/1
f 3/1/2 4/2/2 6/3/2 5/4/2
f 5/1/3 6/2/3 8/3/3 7/4/3
f 4/5/4 2/6/4 10/7/4 8/8/4 6/9/4
f 9/1/5 10/2/5 2/3/5 1/4/5
f 7/1/6 8/2/6 10/3/6 9/4/6
f 7/1/7 9/2/7 15/3/7 14/4/7
f 11/5/8 12/6/8 13/7/8 14/8/8 15/9/8
f 5/1/9 7/2/9 14/3/9 13/4/9
f 1/1/10 3/2/10 12/3/10 11/4/10
f 3/1/11 5/2/11 13/3/11 12/4/11
f 9/1/12 1/2/12 11/3/12 15/4/12
f 16/1/13 17/2/13 19/3/13 18/4/13
f 18/1/14 19/2/14 21/3/14 20/4/14
f 20/1/15 21/2/15 23/3/15 22/4/15
f 19/5/16 17/6/16 25/7/16 23/8/16 21/9/16
f 24/1/17 25/2/17 17/3/17 16/4/17
f 22/1/18 23/2/18 25/3/18 24/4/18
f 22/1/19 24/2/19 30/3/19 29/4/19
f 26/5/20 27/6/20 28/7/20 29/8/20 30/9/20
f 20/1/21 22/2/21 29/3/21 28/4/21
f 16/1/22 18/2/22 27/3/22 26/4/22
f 18/1/23 20/2/23 28/3/23 27/4/23
f 24/1/24 16/2/24 26/3/24 30/4/24
f 31/1/25 32/2/25 34/3/25 33/4/25
f 33/1/26 34/2/26 36/3/26 35/4/26
f 35/1/27 36/2/27 38/3/27 37/4/27
f 34/5/28 32/6/28 40/7/28 38/8/28 36/9/28
f 39/1/29 40/2/29 32/3/29 31/4/29
f 37/1/30 38/2/30 40/3/30 39/4/30
f 37/1/31 39/2/31 45/3/31 44/4/31
f 41/5/32 42/6/32 43/7/32 44/8/32 45/9/32
f 35/1/33 37/2/33 44/3/33 43/4/33
f 31/1/34 33/2/34 42/3/34 41/4/34
f 33/1/35 35/2/35 43/3/35 42/4/35
f 39/1/36 31/2/36 41/3/36 45/4/36
f 46/1/37 47/2/37 49/3/37 48/4/37
f 48/1/38 49/2/38 51/3/38 50/4/38
f 50/1/39 51/2/39 53/3/39 52/4/39
f 49/5/40 47/6/40 55/7/40 53/8/40 51/9/40
f 54/1/41 55/2/41 47/3/41 46/4/41
f 52/1/42 53/2/42 55/3/42 54/4/42
f 52/1/43 54/2/43 60/3/43 59/4/43
f 56/5/8 57/6/8 58/7/8 59/8/8 60/9/8
f 50/1/44 52/2/44 59/3/44 58/4/44
f 46/1/45 48/2/45 57/3/45 56/4/45
f 48/1/46 50/2/46 58/3/46 57/4/46
f 54/1/47 46/2/47 56/3/47 60/4/47
f 61/1/48 62/2/48 64/3/48 63/4/48
f 63/1/49 64/2/49 66/3/49 65/4/49
f 65/1/50 66/2/50 68/3/50 67/4/50
f 64/5/51 62/6/51 70/7/51 68/8/51 66/9/51
f 69/1/52 70/2/52 62/3/52 61/4/52
f 67/1/53 68/2/53 70/3/53 69/4/53
f 67/1/54 69/2/54 75/3/54 74/4/54
f 71/5/55 72/6/55 73/7/55 74/8/55 75/9/55
f 65/1/56 67/2/56 74/3/56 73/4/56
f 61/1/57 63/2/57 72/3/57 71/4/57
f 63/1/58 65/2/58 73/3/58 72/4/58
f 69/1/59 61/2/59 71/3/59 75/4/59
f 76/1/60 77/2/60 79/3/60 78/4/60
f 78/1/61 79/2/61 81/3/61 80/4/61
f 80/1/62 81/2/62 83/3/62 82/4/62
f 79/5/63 77/6/63 85/7/63 83/8/63 81/9/63
f 84/1/64 85/2/64 77/3/64 76/4/64
f 82/1/65 83/2/65 85/3/65 84/4/65
f 82/1/66 84/2/66 90/3/66 89/4/66
f 86/5/67 87/6/67 88/7/67 89/8/67 90/9/67
f 80/1/68 82/2/68 89/3/68 88/4/68
f 76/1/69 78/2/69 87/3/69 86/4/69
f 78/1/70 80/2/70 88/3/70 87/4/70
f 84/1/71 76/2/71 86/3/71 90/4/71
